<svg width="463" height="310" viewBox="0 0 463 310" fill="none" xmlns="http://www.w3.org/2000/svg">
<path opacity="0.1" d="M39.6214 320.603H443.93C477.441 292.648 460.196 208.53 432.204 191.477C402.074 173.121 449.917 109.64 403.504 89.0342C373.198 75.5813 325 90.2449 331.483 54.2499C340.475 4.33696 235.396 -8.45017 157.981 5.00268C74.2867 19.5491 150.717 91.0651 58.677 105.475C11.3488 112.885 20.4949 176.275 24.9081 189.375C28.7516 200.784 54.1802 218.881 18.8403 243.802C-32.981 280.344 38.4 319.93 39.6214 320.603Z" fill="#9BC1F9"/>
<path d="M398.752 107.097C398.752 107.097 392.134 121.506 387.68 127.592C383.226 133.679 378.983 139.499 375.429 156.392C371.875 173.285 372.484 174.982 371.513 179.346C370.54 183.709 364.21 201.387 364.174 204.629C364.137 207.871 351.382 226.324 348.113 234.961C344.845 243.598 339.058 255.936 339.383 262.218L340.837 261.849C340.837 261.849 342.023 247.203 352.106 232.401C362.189 217.599 360.748 214.805 372.198 207.2C383.65 199.596 391.046 178.59 391.046 178.59C391.046 178.59 402.695 155.774 402.152 143.914C401.609 132.053 404.703 121.357 398.752 107.097Z" fill="#256653"/>
<path d="M383.253 84.9351C383.253 84.9351 382.867 94.4007 379.814 100.023C376.76 105.645 374.131 109.061 373.577 115.145C373.024 121.228 371.106 136.911 362.592 144.568C354.078 152.224 352.992 175.166 346.512 182.107C340.032 189.046 339.185 194.035 340.382 205.938C341.579 217.841 345.644 234.337 336.244 255.869L334.119 250.513C334.119 250.513 340.844 232.799 339.216 222.426C337.588 212.054 331.923 196.382 333.996 188.865C336.07 181.349 328.36 179.881 333.002 168.512C337.645 157.143 335.738 153.193 342.06 143.364C342.06 143.364 342.708 142.904 344.369 134.587C346.031 126.27 359.429 111.028 365.603 105.826C371.774 100.627 380.671 92.2899 383.253 84.9351Z" fill="#256653"/>
<path d="M358.106 131.8C358.106 131.8 350.712 144.458 350.607 152.606C350.503 160.753 351.385 167.38 347.644 178.537C343.904 189.695 351.328 196.748 349.189 202.908C347.05 209.068 346.883 216.361 346.948 221.891C347.014 227.421 338.481 245.725 337.181 254.992C335.882 264.259 337.541 264.291 337.541 264.291C337.541 264.291 338.956 252.056 340.92 248.01C342.883 243.964 348.853 230.016 350.249 224.619C351.644 219.223 355.423 215.759 358.685 206.618C361.946 197.479 366.583 189.78 366.228 176.812C365.874 163.84 371.094 150.151 358.106 131.8Z" fill="#3C8F7C"/>
<path d="M342.452 255.796C342.452 255.796 345.899 239.731 360.439 238.126C374.978 236.522 383.517 239.398 393.788 227.66C404.06 215.922 410.025 197.297 413.305 194.091C413.305 194.091 408.145 191.437 399.565 199.458C390.985 207.479 384.96 213.562 379.993 218.233C375.026 222.904 370.992 219.857 365.748 222.937C361.355 225.519 355.67 232.975 353.167 236.88C352.354 238.15 351.39 239.312 350.282 240.335C349.276 241.265 348.076 242.403 347.305 243.243C345.766 244.92 341.326 255.852 341.326 255.852L342.452 255.796Z" fill="#3C8F7C"/>
<path d="M337.329 252.962C337.329 252.962 342.452 233.315 339.02 223.702C335.589 214.088 324.845 206.974 325.276 200.935C325.708 194.895 332.606 178.572 326.982 166.42C326.982 166.42 324.845 177.26 322.738 179.673C320.629 182.083 306.162 191.808 308.728 204.65C311.293 217.493 325.356 220.495 328.822 224.276C332.285 228.057 336.961 228.052 336.991 230.566C337.022 233.079 337.934 242.22 336.381 251.24L337.329 252.962Z" fill="#3C8F7C"/>
<path d="M342.932 239.813L350.13 219.078C350.13 219.078 354.359 202.401 356.811 188.494C359.262 174.587 358.107 131.798 358.107 131.798C358.107 131.798 350.713 144.455 350.608 152.604C350.503 160.75 351.386 167.377 347.645 178.535C343.905 189.692 351.329 196.745 349.19 202.906C347.05 209.066 346.883 216.358 346.949 221.888C347.015 227.418 338.479 245.723 337.182 254.99C336.47 260.067 336.647 262.368 336.953 263.415C335.795 255.309 342.932 239.813 342.932 239.813Z" fill="#327F6B"/>
<path d="M378.387 227.463C371.966 228.744 366.224 228.308 358.602 233.981C350.979 239.655 346.496 245.714 346.496 245.714C346.496 245.714 343.07 251.837 341.653 255.066C341.449 255.56 341.33 255.854 341.33 255.854L342.454 255.797C342.454 255.797 345.901 239.733 360.441 238.128C374.98 236.524 383.519 239.399 393.791 227.661C404.062 215.924 410.027 197.299 413.308 194.093C413.308 194.093 402.383 202.591 395.633 210.113C388.882 217.633 384.808 226.179 378.387 227.463Z" fill="#327F6B"/>
<path d="M322.738 179.669C320.629 182.08 306.162 191.805 308.728 204.647C311.293 217.489 325.356 220.491 328.822 224.272C332.285 228.054 336.961 228.048 336.991 230.562C337.022 233.076 337.934 242.217 336.381 251.237L336.796 251.989C337.554 248.469 338.609 243.11 338.953 239.039C339.512 232.428 338.44 229.692 336.317 224.336C334.192 218.98 320.989 208.073 317.682 202.339C314.375 196.605 324.06 187.019 326.212 182.391C328.362 177.763 326.988 166.417 326.988 166.417C326.988 166.417 324.845 177.258 322.738 179.669Z" fill="#327F6B"/>
<path d="M357.057 243.471L359.317 238.008C361.071 233.991 365.557 232.074 369.34 233.723C378.87 237.882 383.013 249.462 378.595 259.585L375.364 266.986C373.949 270.227 374.44 273.796 376.349 276.309C378.081 278.594 378.366 281.77 377.164 284.523L375.461 288.425C373.617 292.651 370.029 295.779 365.774 297.069C363.285 297.824 361.087 299.691 359.924 302.354L357.512 307.879C354.845 313.987 348.023 316.904 342.273 314.394L338.992 312.961C333.242 310.451 330.743 303.465 333.409 297.357C337.721 290.053 337.377 284.603 335.848 280.905C333.603 275.47 333.627 269.215 336.058 263.648L336.399 262.867C338.964 256.991 343.917 252.604 349.816 250.726C352.422 249.899 355.136 247.873 357.057 243.471Z" fill="#50BFA5"/>
<path d="M316.365 320.604C320.99 314.607 346.349 282.486 362.884 277.132C381.135 271.224 363.933 294.691 363.933 294.691C363.933 294.691 396.312 259.285 408.194 262.477C419.085 265.403 408.194 287.348 408.194 287.348C408.194 287.348 420.461 275.197 435.337 275.197C449.816 275.197 425.222 318.296 423.896 320.604H316.365Z" fill="#96D9C9"/>
<path d="M413.946 251.113C400.717 271.773 391.061 294.725 385.542 319.108L384.635 318.865C390.133 294.992 399.723 272.08 412.931 251.443C416 246.646 419.314 240.957 425.061 239.085C425.171 239.05 425.213 239.219 425.109 239.258C419.858 241.235 416.817 246.628 413.946 251.113Z" fill="#3C8F7C"/>
<path d="M388.73 319.966C403.513 299.863 421.486 281.282 442.856 265.125C443.069 264.964 443.357 265.336 443.142 265.502C422.874 281.081 404.942 299.478 389.854 320.27L388.73 319.966Z" fill="#3C8F7C"/>
<path d="M415.155 238.301C415.496 238.801 416.799 240.108 417.182 241.825C417.697 243.453 417.291 245.491 417.246 245.42C417.149 245.46 418.755 244.102 419.256 241.942C419.905 239.87 419.451 236.994 418.641 236.043C417.246 233.889 414.807 233.671 414.333 234.715C413.832 235.75 414.47 237.161 415.155 238.301Z" fill="#3C8F7C"/>
<path d="M418.32 256.743C417.827 256.393 416.545 255.063 414.837 254.646C413.22 254.099 411.175 254.465 411.244 254.511C411.201 254.609 412.591 253.029 414.761 252.569C416.845 251.96 419.71 252.471 420.647 253.299C422.772 254.737 422.943 257.179 421.89 257.632C420.843 258.115 419.446 257.451 418.32 256.743Z" fill="#3C8F7C"/>
<path d="M413.543 264.825C413.05 264.475 411.77 263.145 410.06 262.728C408.443 262.181 406.398 262.547 406.467 262.593C406.424 262.691 407.814 261.111 409.984 260.651C412.068 260.042 414.933 260.554 415.871 261.381C417.996 262.819 418.166 265.261 417.113 265.714C416.068 266.197 414.669 265.533 413.543 264.825Z" fill="#3C8F7C"/>
<path d="M430.58 283.573C430.086 283.223 428.806 281.893 427.097 281.476C425.48 280.929 423.434 281.295 423.504 281.341C423.461 281.439 424.851 279.859 427.02 279.399C429.105 278.79 431.97 279.302 432.907 280.129C435.032 281.567 435.203 284.01 434.15 284.462C433.102 284.947 431.705 284.281 430.58 283.573Z" fill="#3C8F7C"/>
<path d="M439.284 275.906C438.79 275.556 437.509 274.226 435.801 273.809C434.184 273.262 432.139 273.628 432.208 273.674C432.165 273.772 433.555 272.192 435.725 271.732C437.809 271.123 440.674 271.635 441.611 272.462C443.736 273.9 443.907 276.343 442.854 276.795C441.807 277.278 440.409 276.612 439.284 275.906Z" fill="#3C8F7C"/>
<path d="M408.47 247.447C408.886 247.887 410.379 248.972 411.028 250.607C411.794 252.134 411.714 254.211 411.659 254.147C411.568 254.202 412.94 252.608 413.095 250.396C413.409 248.248 412.507 245.48 411.559 244.667C409.841 242.76 407.398 242.931 407.094 244.035C406.762 245.138 407.615 246.43 408.47 247.447Z" fill="#3C8F7C"/>
<path d="M401.448 256.613C402.039 256.927 404.104 257.495 405.142 259.039C406.318 260.415 406.467 262.766 406.389 262.719C406.278 262.821 407.86 260.451 407.793 257.914C407.938 255.381 406.435 252.68 405.109 252.18C402.653 250.792 399.511 252.029 399.254 253.394C398.957 254.77 400.216 255.846 401.448 256.613Z" fill="#3C8F7C"/>
<path d="M394.056 270.497C394.692 270.706 396.822 270.919 398.106 272.269C399.496 273.426 400.039 275.72 399.954 275.686C399.862 275.805 401.023 273.202 400.529 270.714C400.247 268.191 398.31 265.784 396.918 265.514C394.264 264.559 391.376 266.307 391.351 267.696C391.291 269.098 392.714 269.948 394.056 270.497Z" fill="#3C8F7C"/>
<path d="M415.931 280.168C416.394 280.457 418.041 281.036 418.798 282.353C419.675 283.539 419.664 285.46 419.602 285.417C419.506 285.494 420.928 283.656 421.017 281.588C421.279 279.536 420.211 277.253 419.16 276.772C417.241 275.503 414.615 276.332 414.328 277.425C414.008 278.526 414.972 279.474 415.931 280.168Z" fill="#3C8F7C"/>
<path d="M427.317 241.551C427.04 241.322 426.34 240.48 425.348 240.159C424.414 239.765 423.189 239.893 423.228 239.921C423.198 239.976 424.089 239.103 425.394 238.927C426.655 238.659 428.327 239.087 428.844 239.616C430.038 240.56 430.031 242.012 429.389 242.234C428.749 242.472 427.952 242.018 427.317 241.551Z" fill="#3C8F7C"/>
<path d="M424.665 235.65C424.678 236.009 424.917 237.078 424.566 238.059C424.308 239.039 423.46 239.932 423.46 239.882C423.398 239.872 424.633 239.7 425.569 238.775C426.55 237.94 427.234 236.355 427.129 235.622C427.111 234.1 425.956 233.218 425.388 233.593C424.811 233.953 424.683 234.862 424.665 235.65Z" fill="#3C8F7C"/>
<path d="M445.551 268.095C445.274 267.866 444.574 267.024 443.582 266.703C442.648 266.309 441.423 266.437 441.462 266.465C441.432 266.52 442.325 265.647 443.628 265.471C444.889 265.203 446.561 265.631 447.077 266.16C448.272 267.104 448.265 268.556 447.622 268.778C446.983 269.018 446.186 268.563 445.551 268.095Z" fill="#3C8F7C"/>
<path d="M442.352 262.144C442.393 262.501 442.721 263.545 442.451 264.553C442.275 265.551 441.501 266.512 441.498 266.462C441.436 266.457 442.654 266.183 443.509 265.185C444.42 264.275 444.97 262.638 444.807 261.915C444.663 260.399 443.442 259.617 442.906 260.035C442.357 260.442 442.304 261.358 442.352 262.144Z" fill="#3C8F7C"/>
<path d="M440.126 300.599C426.618 302.08 414.037 308.043 401.924 313.857C393.756 317.778 394.168 318.895 392.505 319.479C392.235 319.573 391.965 319.28 392.096 319.021C392.737 317.754 394.415 316.896 395.581 316.167C396.941 315.318 398.359 314.567 399.801 313.868C402.885 312.371 406.046 311.024 409.188 309.658C415.581 306.88 422.077 304.269 428.832 302.499C432.535 301.53 436.302 300.83 440.115 300.487C440.188 300.482 440.195 300.59 440.126 300.599Z" fill="#3C8F7C"/>
<path d="M427.95 296.41C428.039 296.964 428.616 298.574 428.259 300.163C428.047 301.73 426.902 303.278 426.895 303.202C426.798 303.197 428.679 302.692 429.952 301.079C431.314 299.598 432.067 297.01 431.765 295.893C431.443 293.537 429.485 292.392 428.678 293.081C427.849 293.752 427.825 295.185 427.95 296.41Z" fill="#3C8F7C"/>
<path d="M416.05 300.672C416.139 301.226 416.716 302.836 416.359 304.425C416.148 305.993 415.002 307.541 414.995 307.464C414.898 307.459 416.779 306.955 418.052 305.341C419.414 303.861 420.167 301.272 419.865 300.154C419.544 297.798 417.585 296.653 416.778 297.342C415.947 298.013 415.926 299.447 416.05 300.672Z" fill="#3C8F7C"/>
<path d="M403.959 306.061C404.047 306.615 404.624 308.225 404.267 309.814C404.056 311.382 402.911 312.93 402.904 312.854C402.806 312.848 404.688 312.344 405.961 310.73C407.323 309.25 408.075 306.661 407.774 305.543C407.452 303.187 405.494 302.042 404.686 302.731C403.856 303.402 403.832 304.837 403.959 306.061Z" fill="#3C8F7C"/>
<path d="M431.503 307.53C431.258 307.072 430.786 305.565 429.637 304.592C428.608 303.555 426.9 303.053 426.937 303.115C426.868 303.173 428.537 302.495 430.374 302.973C432.204 303.303 434.203 304.791 434.604 305.783C435.682 307.697 434.878 309.633 433.898 309.578C432.911 309.546 432.094 308.501 431.503 307.53Z" fill="#3C8F7C"/>
<path d="M419.125 311.912C418.88 311.454 418.408 309.946 417.257 308.974C416.228 307.937 414.52 307.434 414.557 307.497C414.488 307.555 416.157 306.877 417.994 307.354C419.824 307.685 421.823 309.172 422.225 310.165C423.302 312.08 422.498 314.015 421.518 313.96C420.535 313.928 419.716 312.883 419.125 311.912Z" fill="#3C8F7C"/>
<path d="M440.93 303.019C440.715 302.763 440.22 301.879 439.37 301.421C438.585 300.906 437.447 300.816 437.479 300.849C437.443 300.896 438.402 300.249 439.618 300.306C440.811 300.273 442.263 300.942 442.647 301.512C443.577 302.572 443.328 303.894 442.705 303.988C442.08 304.098 441.431 303.551 440.93 303.019Z" fill="#3C8F7C"/>
<path d="M439.501 297.2C439.451 297.529 439.492 298.542 439.007 299.378C438.608 300.227 437.685 300.9 437.694 300.855C437.639 300.836 438.794 300.886 439.801 300.199C440.836 299.604 441.722 298.273 441.75 297.587C441.988 296.197 441.085 295.201 440.504 295.446C439.918 295.677 439.65 296.485 439.501 297.2Z" fill="#3C8F7C"/>
<path d="M91.5885 218.009C75.716 203.855 67.5534 183.531 63.5023 168.97C59.1032 153.165 58.4623 140.55 58.457 140.424L57.5942 140.371C57.5996 140.497 58.244 153.204 62.6697 169.115C66.7581 183.818 75.0059 204.354 91.0755 218.682L91.5885 218.009Z" fill="#3C8F7C"/>
<path d="M60.266 136.764C61.0489 140.404 60.3938 143.842 58.7251 146.324C56.1101 144.398 54.0526 141.314 53.2697 137.675C52.4868 134.036 53.1419 130.599 54.8106 128.115C57.4274 130.04 59.4831 133.125 60.266 136.764Z" fill="#3C8F7C"/>
<path d="M55.3957 147.127C58.1314 149.671 59.7291 153.014 60.0398 156.233C57.0378 156.369 53.7341 155.152 51.0002 152.606C48.2663 150.062 46.6668 146.719 46.3579 143.501C49.3581 143.364 52.6618 144.583 55.3957 147.127Z" fill="#3C8F7C"/>
<path d="M54.1145 158.016C57.5123 159.083 60.2995 161.449 61.9504 164.323C59.4846 165.907 56.1791 166.363 52.7813 165.296C49.3834 164.229 46.5963 161.863 44.9453 158.989C47.4111 157.405 50.7149 156.949 54.1145 158.016Z" fill="#3C8F7C"/>
<path d="M59.3482 171.114C62.0395 171.963 64.1929 174.136 65.4125 176.878C63.371 178.593 60.6992 179.243 58.0062 178.394C55.3149 177.546 53.1615 175.373 51.9419 172.63C53.9834 170.915 56.6552 170.266 59.3482 171.114Z" fill="#3C8F7C"/>
<path d="M63.944 152.42C66.0619 150.288 68.8686 149.377 71.5847 149.67C71.7356 152.544 70.7432 155.459 68.6254 157.591C66.5075 159.723 63.7008 160.634 60.9847 160.341C60.8338 157.467 61.8261 154.552 63.944 152.42Z" fill="#3C8F7C"/>
<path d="M66.4006 161.807C68.5185 159.675 71.3251 158.764 74.0413 159.057C74.1922 161.931 73.1998 164.846 71.0819 166.979C68.964 169.111 66.1574 170.021 63.4412 169.728C63.2903 166.852 64.2809 163.939 66.4006 161.807Z" fill="#3C8F7C"/>
<path d="M82.0238 237.203C67.3655 235.065 54.8216 226.382 46.8791 219.473C38.2567 211.973 33.0446 204.886 32.9931 204.815L32.4712 205.115C32.5227 205.186 37.7739 212.326 46.4513 219.878C54.4701 226.856 67.1436 235.628 81.9847 237.79L82.0238 237.203Z" fill="#50BFA5"/>
<path d="M32.6399 201.996C34.4915 203.812 35.4289 206.061 35.4129 208.143C33.153 208.028 30.7741 207.023 28.9226 205.209C27.071 203.393 26.1336 201.143 26.1496 199.061C28.4095 199.176 30.7883 200.179 32.6399 201.996Z" fill="#50BFA5"/>
<path d="M33.7867 209.888C36.3537 210.318 38.5639 211.648 39.9788 213.4C38.2852 214.632 35.8992 215.191 33.3322 214.761C30.7652 214.332 28.555 213.002 27.1401 211.25C28.832 210.018 31.2197 209.457 33.7867 209.888Z" fill="#50BFA5"/>
<path d="M37.2177 216.708C39.6019 216.024 42.1316 216.33 44.1927 217.368C43.3672 219.236 41.6204 220.768 39.2362 221.453C36.852 222.137 34.3223 221.831 32.2612 220.793C33.0867 218.925 34.8336 217.393 37.2177 216.708Z" fill="#50BFA5"/>
<path d="M45.2867 222.315C47.1773 221.775 49.2615 222.212 51.0225 223.339C50.4935 225.12 49.1904 226.522 47.2998 227.062C45.4092 227.601 43.325 227.165 41.564 226.037C42.093 224.257 43.396 222.854 45.2867 222.315Z" fill="#50BFA5"/>
<path d="M40.7861 209.684C41.1997 207.632 42.4815 206.025 44.1715 205.154C45.3627 206.768 45.9041 208.841 45.4905 210.893C45.0769 212.945 43.7951 214.552 42.1033 215.424C40.9139 213.812 40.3725 211.736 40.7861 209.684Z" fill="#50BFA5"/>
<path d="M45.8158 214.198C46.2295 212.146 47.5112 210.54 49.203 209.668C50.3942 211.282 50.9357 213.355 50.522 215.407C50.1084 217.46 48.8267 219.066 47.1349 219.938C45.9437 218.324 45.4022 216.251 45.8158 214.198Z" fill="#50BFA5"/>
<path d="M90.85 281.074C73.9425 287.493 55.329 284.103 42.6928 280.128C28.9754 275.814 19.1387 269.897 19.0411 269.838L18.6665 270.554C18.7641 270.614 28.6736 276.575 42.4815 280.921C55.242 284.937 74.0455 288.36 91.1642 281.862L90.85 281.074Z" fill="#96D9C9"/>
<path d="M16.9591 266.403C20.0285 267.595 22.3878 269.922 23.6287 272.633C21.1522 273.899 18.01 274.088 14.9406 272.897C11.8712 271.704 9.5119 269.379 8.271 266.668C10.7475 265.402 13.8897 265.212 16.9591 266.403Z" fill="#96D9C9"/>
<path d="M22.9485 275.911C25.9416 274.86 29.1015 275.196 31.6685 276.579C30.6087 279.236 28.4038 281.457 25.409 282.508C22.4159 283.559 19.256 283.224 16.689 281.841C17.7506 279.185 19.9554 276.964 22.9485 275.911Z" fill="#96D9C9"/>
<path d="M30.7274 282.601C32.8542 280.221 35.7336 279.033 38.5581 279.085C38.8066 282.023 37.8728 285.103 35.7443 287.483C33.6176 289.866 30.7381 291.053 27.9137 291C27.6669 288.064 28.6007 284.982 30.7274 282.601Z" fill="#96D9C9"/>
<path d="M41.6112 286.054C43.738 283.671 46.6174 282.484 49.4419 282.537C49.6904 285.475 48.7566 288.555 46.6281 290.936C44.5013 293.318 41.6219 294.506 38.7975 294.452C38.5507 291.516 39.4845 288.436 41.6112 286.054Z" fill="#96D9C9"/>
<path d="M31.3716 274.896C29.4987 272.459 28.6643 269.521 28.8632 266.856C31.329 267.144 33.8498 268.576 35.721 271.014C37.5939 273.451 38.4282 276.389 38.2294 279.054C35.7636 278.766 33.2427 277.333 31.3716 274.896Z" fill="#96D9C9"/>
<path d="M42.6788 278.434C40.7722 276.025 39.8917 273.096 40.0461 270.424C42.5101 270.669 45.0488 272.059 46.9572 274.468C48.8638 276.877 49.7443 279.807 49.5898 282.478C47.124 282.235 44.5854 280.845 42.6788 278.434Z" fill="#96D9C9"/>
<path d="M55.9151 287C56.4157 285.731 57.4081 284.848 58.5726 284.484C59.1318 285.658 59.2277 287.051 58.7289 288.321C58.2282 289.59 57.2359 290.472 56.0713 290.836C55.5121 289.663 55.4162 288.269 55.9151 287Z" fill="#96D9C9"/>
<path d="M127.14 319.364C127.14 319.364 148.683 234.165 141.539 225.603C131.667 213.77 123.522 253.019 122.723 249.686C115.176 218.203 113.167 177.921 88.8211 173.657C74.983 171.234 92.0183 203.611 90.9922 212.368C89.9679 221.125 65.0292 192.05 49.8739 176.819C34.7186 161.587 26.8915 171.23 36.4672 190.383C45.7269 208.905 75.6807 229.144 69.5064 231.546C63.3321 233.948 25.8476 210.03 21.2568 220.254C15.6293 232.79 71.8568 249.851 66.563 252.668C61.2674 255.484 34.3937 246.21 35.1286 255.796C35.8636 265.382 71.9882 265.026 71.3722 269.242C70.3727 276.069 46.4778 260.616 45.4286 270.062C44.3546 279.725 76.863 277.962 76.3003 285.499C75.9772 289.831 69.0004 283.298 67.9726 289.297C65.6292 302.977 108.484 319.639 108.484 319.639L127.14 319.364Z" fill="#3C8F7C"/>
<path d="M143.567 319.884C143.567 319.884 123.065 288.449 113.2 282.515C102.688 276.191 110.691 295.124 110.691 295.124C110.691 295.124 89.2072 269.563 83.237 274.755C77.265 279.95 82.6849 285.964 82.6849 285.964C82.6849 285.964 63.3986 280.25 59.9333 287.328C54.6075 298.204 86.3579 307.225 86.3579 307.225C86.3579 307.225 72.7275 307.081 75.2359 314.425C79.0172 325.501 143.567 319.884 143.567 319.884Z" fill="#50BFA5"/>
<path d="M59.9331 287.328C63.4002 280.248 82.6847 285.964 82.6847 285.964C82.6847 285.964 77.2649 279.95 83.2368 274.755C89.2088 269.561 106.393 285.109 106.393 285.109C106.393 285.109 104.591 272.288 117.533 283.582C126.775 291.649 143.569 319.884 143.569 319.884L59.9331 287.328Z" fill="#96D9C9"/>
<path d="M118.678 240.959L119.598 240.331C102.905 215.05 97.8102 185.037 96.4752 164.309C95.0266 141.817 97.5688 125.098 97.5954 124.933L96.4557 124.601C96.429 124.767 93.8674 141.599 95.3213 164.224C96.6651 185.13 101.808 215.41 118.678 240.959Z" fill="#96D9C9"/>
<path d="M100.882 120.994C100.919 126.073 99.1565 130.272 96.3445 132.791C93.4881 129.159 91.6613 124.255 91.6241 119.176C91.5886 114.097 93.3496 109.899 96.1616 107.38C99.018 111.012 100.846 115.915 100.882 120.994Z" fill="#96D9C9"/>
<path d="M91.8401 132.409C94.6859 136.899 95.854 141.94 95.3924 146.267C91.4869 145.155 87.5547 142.15 84.7107 137.66C81.865 133.171 80.6969 128.129 81.1585 123.803C85.064 124.912 88.9944 127.918 91.8401 132.409Z" fill="#96D9C9"/>
<path d="M87.2797 146.047C91.3752 148.896 94.3345 153.176 95.6926 157.632C92.0906 158.637 87.7111 157.813 83.6156 154.964C79.5201 152.114 76.5607 147.834 75.2026 143.378C78.8046 142.374 83.1842 143.197 87.2797 146.047Z" fill="#96D9C9"/>
<path d="M92.6212 169.856C94.4071 170.922 95.7634 172.631 96.461 174.469C94.9947 175.015 93.1502 174.813 91.3643 173.748C89.5784 172.683 88.2221 170.973 87.5244 169.136C88.9908 168.589 90.8335 168.79 92.6212 169.856Z" fill="#96D9C9"/>
<path d="M94.0718 178.676C95.8577 179.741 97.214 181.45 97.9117 183.288C96.4453 183.834 94.6009 183.632 92.815 182.567C91.0291 181.502 89.6728 179.792 88.9751 177.955C90.4415 177.41 92.2859 177.61 94.0718 178.676Z" fill="#96D9C9"/>
<path d="M101.444 142.975C104.745 141.106 108.604 141.126 112.027 142.672C111.453 146.483 109.398 149.854 106.097 151.724C102.797 153.593 98.9378 153.574 95.5151 152.027C96.0885 148.216 98.1443 144.845 101.444 142.975Z" fill="#96D9C9"/>
<path d="M102.103 156.262C105.403 154.393 109.263 154.412 112.685 155.958C112.112 159.77 110.056 163.141 106.756 165.01C103.456 166.88 99.5965 166.86 96.1738 165.314C96.7472 161.504 98.803 158.131 102.103 156.262Z" fill="#96D9C9"/>
<path d="M101.448 175.278C103.596 174.061 106.108 174.075 108.336 175.081C107.963 177.561 106.625 179.756 104.477 180.973C102.329 182.191 99.8168 182.177 97.5889 181.17C97.9617 178.69 99.3002 176.496 101.448 175.278Z" fill="#96D9C9"/>
<path d="M336.99 250.244C338.93 250.559 338.815 250.875 339.065 250.908C339.36 250.947 342.861 249.19 342.861 249.19C342.861 249.19 353.216 244.079 353.764 243.782L361.238 234.379L366.997 237.035C366.997 237.035 358.591 247.031 358.06 247.471C357.528 247.912 342.681 253.118 341.391 253.619C341.391 253.619 340.09 254.808 339.246 255.527C338.403 256.246 337.278 256.53 337.009 256.694C336.97 256.719 336.04 257.209 334.728 257.494C333.597 257.741 334.54 256.973 334.54 256.973C334.54 256.973 336.541 256.128 336.443 255.975C336.367 255.858 335.303 256.385 334.055 256.671C333.734 256.744 333.418 256.816 333.125 256.878C332.358 257.044 332.023 256.605 332.792 256.3C333.063 256.191 333.519 256.025 333.864 255.954C334.235 255.875 334.547 255.682 334.847 255.567C335.444 255.339 335.882 255.181 335.859 255.162C335.829 255.135 335.912 255.004 335.57 255.069C335.156 255.149 334.324 255.522 333.706 255.591C333.356 255.63 332.63 255.76 332.63 255.76C332.63 255.76 331.345 255.883 331.336 255.703C331.316 255.309 332.108 255.089 332.593 255.1C332.898 254.943 333.667 254.83 333.667 254.83C333.667 254.83 335.156 254.242 335.071 254.022C335.037 253.933 334.134 254.07 333.177 254.136C332.165 254.205 331.432 254.205 331.378 254.01C331.293 253.699 332.097 253.58 332.097 253.58C332.097 253.58 332.807 253.477 333.04 253.424C333.313 253.362 334.112 253.111 334.112 253.111C334.112 253.111 336.853 252.105 336.754 251.902C336.654 251.7 336.202 251.278 336.008 251.278C335.815 251.279 335.47 251.471 335.277 251.473C335.083 251.475 334.668 251.437 334.64 251.194C334.611 250.951 335.683 250.447 335.683 250.447C335.683 250.447 336.431 250.154 336.99 250.244Z" fill="#F8A492"/>
<path d="M356.037 240.205C356.037 240.205 357.901 241.899 358.676 242.456C359.321 242.919 362.463 244.432 362.463 244.432C362.463 244.432 365.589 239.646 366.956 237.246C368.614 234.334 369.763 230.003 369.371 229.886C368.27 229.555 366.757 229.355 365.36 229.996C360.523 232.216 356.037 240.205 356.037 240.205Z" fill="#355389"/>
<path d="M338.802 252.745C337.973 252.877 337.125 252.719 336.757 251.959C336.674 252.861 338.039 253.308 338.802 252.745Z" fill="#FE875E"/>
<path d="M107.054 219.173C107.17 216.386 106.761 213.632 105.519 211.039C104.45 208.805 101.807 207.54 99.3958 207.536C91.7409 207.525 90.768 217.683 85.895 221.601C84.4055 222.798 82.7421 223.774 81.3326 225.065C76.1293 229.832 78.4727 238.658 83.2499 242.837C86.5643 245.738 91.7746 247.385 95.8612 245.118C97.9933 243.934 99.6123 241.967 100.766 239.812C102.403 236.753 103.459 233.222 104.622 229.963C105.863 226.49 106.902 222.878 107.054 219.173Z" fill="#13375B"/>
<path d="M108.306 232.669C105.915 225.416 102.759 225.529 102.759 225.529L105.31 240.974C106.787 240.571 108.709 239.671 110.185 239.256C109.695 236.962 108.894 234.455 108.306 232.669Z" fill="#F7CC7F"/>
<path d="M120.39 257.408L111.649 250.741C111.649 250.741 110.77 244.52 109.591 238.999C108.116 239.416 106.785 240.572 105.31 240.977L107.532 253.34L118.99 259.249L122.226 263.409L122.963 259.139L120.39 257.408Z" fill="#F48C7F"/>
<path d="M200.07 246.993C202.785 246.993 205.332 247.708 207.533 248.96C207.812 249.118 208.114 249.263 208.435 249.395C215.153 252.154 222.502 247.044 222.502 239.782V204.069H186.791C179.529 204.069 174.42 196.72 177.178 190.002C177.31 189.681 177.455 189.379 177.613 189.1C178.865 186.897 179.58 184.351 179.58 181.637C179.58 173.036 172.408 166.109 163.718 166.512C155.854 166.876 149.522 173.336 149.302 181.206C149.223 184.005 149.905 186.638 151.157 188.914C151.313 189.198 151.455 189.505 151.586 189.832C154.322 196.659 149.131 204.071 141.776 204.071H106.371V285.447C106.371 304.642 121.932 320.204 141.128 320.204H222.504V284.61C222.504 277.312 215.13 272.171 208.371 274.921C208.048 275.052 207.745 275.196 207.466 275.353C205.059 276.703 202.243 277.415 199.25 277.257C191.54 276.849 185.311 270.584 184.947 262.871C184.535 254.172 191.465 246.993 200.07 246.993Z" fill="#F47458"/>
<path d="M277.475 227.182C277.601 224.472 278.436 221.96 279.788 219.819C279.959 219.549 280.119 219.252 280.264 218.938C283.334 212.357 278.572 204.777 271.319 204.438L235.643 202.771L233.976 238.445C233.637 245.698 226.057 250.46 219.476 247.39C219.162 247.243 218.865 247.085 218.596 246.914C216.455 245.562 213.944 244.729 211.232 244.601C202.64 244.2 195.386 251.04 195.382 259.739C195.379 267.61 201.535 274.239 209.386 274.825C212.178 275.034 214.839 274.475 217.172 273.332C217.463 273.19 217.775 273.06 218.109 272.945C225.056 270.531 232.219 276.062 231.874 283.408L230.222 318.775L311.509 322.576C330.683 323.472 346.955 308.654 347.852 289.48L351.652 208.193L316.096 206.531C308.807 206.19 303.326 213.316 305.757 220.197C305.872 220.525 306.002 220.836 306.146 221.122C307.383 223.589 307.963 226.435 307.665 229.418C306.898 237.101 300.348 243.03 292.627 243.034C283.921 243.035 277.072 235.778 277.475 227.182Z" fill="#F7CC7F"/>
<path d="M178.07 171.012C178.207 173.723 177.621 176.302 176.481 178.564C176.337 178.85 176.208 179.159 176.092 179.487C173.674 186.334 179.146 193.419 186.399 193.054L222.068 191.261L220.275 155.592C219.911 148.341 226.994 142.867 233.841 145.285C234.17 145.401 234.479 145.53 234.764 145.674C237.026 146.814 239.605 147.4 242.316 147.263C250.907 146.832 257.465 139.32 256.627 130.661C255.869 122.825 249.098 116.824 241.228 117C238.429 117.062 235.833 117.877 233.623 119.241C233.348 119.411 233.048 119.569 232.728 119.716C226.048 122.793 218.382 117.98 218.013 110.634L216.234 75.2729L134.962 79.3596C115.791 80.3235 101.029 96.647 101.993 115.818L106.08 197.091L141.629 195.303C148.917 194.937 153.682 187.314 150.596 180.702C150.449 180.386 150.291 180.089 150.119 179.819C148.647 177.483 147.795 174.707 147.804 171.71C147.823 163.989 153.769 157.453 161.454 156.702C170.119 155.857 177.637 162.416 178.07 171.012Z" fill="#50BFA5"/>
<path d="M251.073 151.326C248.359 151.326 245.811 150.611 243.61 149.359C243.331 149.201 243.03 149.056 242.708 148.924C235.991 146.166 228.641 151.275 228.641 158.537V194.25H264.354C271.616 194.25 276.726 201.6 273.967 208.317C273.835 208.638 273.69 208.94 273.532 209.219C272.28 211.422 271.565 213.968 271.565 216.682C271.565 225.283 278.737 232.21 287.427 231.807C295.291 231.443 301.623 224.983 301.844 217.114C301.922 214.314 301.238 211.681 299.988 209.405C299.832 209.121 299.69 208.814 299.559 208.488C296.821 201.66 302.014 194.248 309.369 194.248H344.774V112.874C344.774 93.6786 329.213 78.1167 310.017 78.1167H228.641V113.71C228.641 121.009 236.016 126.15 242.774 123.4C243.097 123.268 243.401 123.125 243.679 122.968C246.087 121.617 248.902 120.904 251.895 121.064C259.605 121.472 265.834 127.737 266.198 135.45C266.608 144.147 259.68 151.326 251.073 151.326Z" fill="#184655"/>
<path d="M83.1264 308.91C83.1264 308.91 82.5867 312.659 81.66 313.87C81.3493 314.277 80.7795 314.79 80.4067 315.525C79.8262 316.666 80.1475 318.369 80.5753 319.304C80.7954 319.785 80.5593 319.784 81.0617 319.938C82.5458 320.396 84.124 319.624 84.756 318.2C85.1093 317.405 85.4182 316.343 85.4803 315.005C85.6383 311.6 86.6946 309.869 86.6946 309.869L83.1264 308.91Z" fill="#F7A491"/>
<path d="M106.846 254.428C106.846 254.428 108.054 261.293 107.26 265.793C106.466 270.293 102.666 312.006 102.666 312.006L98.4406 312.246C98.4406 312.246 97.5547 294.822 97.7127 292.399C97.8707 289.975 99.1258 285.921 99.1258 285.921L98.7051 271.852L104.038 253.37L106.846 254.428Z" fill="#355389"/>
<path d="M94.4289 252.982C94.4289 252.982 91.1021 258 90.3085 262.154C89.5168 266.309 90.8908 279.074 89.3659 284.519C88.5404 287.466 85.4142 292.016 84.9384 295.824C84.4626 299.632 82.5986 309.607 82.5986 309.607L86.822 310.447L96.6373 285.536L104.337 263.021L106.309 251.425L94.4289 252.982Z" fill="#466EB6"/>
<path d="M97.1215 224.424C97.1215 224.424 92.7153 224.143 90.9738 226.046C89.2305 227.949 94.8403 243.012 95.1563 245.434C95.4723 247.857 93.5408 254.299 93.5408 254.299C93.5408 254.299 103.889 256.387 106.848 254.425C106.848 254.425 107.166 237.001 106.848 235.271C106.532 233.54 103.891 226.501 103.257 225.808C102.621 225.116 97.1215 224.424 97.1215 224.424Z" fill="#F7CC7F"/>
<path d="M98.5885 218.524C98.5885 218.524 98.5655 218.654 98.5246 218.876C98.3276 219.938 97.5713 223.46 97.06 224.427C96.4423 225.597 99.1744 229.329 101.804 228.872C102.586 228.737 101.141 225.444 101.212 225.095C101.346 224.427 101.525 223.516 101.709 222.583C101.814 222.055 101.919 221.521 102.018 221.02C102.299 219.593 102.53 218.427 102.53 218.427L98.5885 218.524Z" fill="#F7A491"/>
<path d="M98.5243 218.874C98.5652 218.653 98.5883 218.523 98.5883 218.523L102.528 218.425C102.528 218.425 102.299 219.592 102.016 221.019C101.919 221.518 101.814 222.049 101.709 222.574C101.1 222.484 100.465 222.189 99.8274 221.628C99.1333 221.019 98.677 220.286 98.4019 219.505C98.4533 219.254 98.4942 219.04 98.5243 218.874Z" fill="#F47458"/>
<path d="M101.24 209.549C101.24 209.549 99.3835 209.334 98.219 210.843C97.0544 212.352 95.8011 217.017 98.6912 219.554C101.583 222.091 104.439 219.218 104.864 216.174C105.288 213.129 105.451 209.439 101.24 209.549Z" fill="#F7A491"/>
<path d="M105.72 216.13C105.375 216.802 104.795 217.173 104.426 216.96C104.056 216.747 104.037 216.03 104.381 215.357C104.726 214.685 105.306 214.312 105.675 214.525C106.045 214.74 106.064 215.457 105.72 216.13Z" fill="#F7A491"/>
<path d="M101.448 209.05C101.448 209.05 98.9676 213.488 97.1924 213.693C95.4171 213.897 95.1846 216.256 95.1846 216.256C95.1846 216.256 95.8183 210.824 97.5758 209.776C99.3316 208.727 101.448 209.05 101.448 209.05Z" fill="#13375B"/>
<path d="M97.6583 214.807C97.8021 215.596 97.5127 216.318 97.0103 216.421C96.5079 216.524 95.9842 215.97 95.8386 215.182C95.6948 214.394 95.9842 213.671 96.4866 213.568C96.989 213.464 97.5127 214.019 97.6583 214.807Z" fill="#F7A491"/>
<path d="M100.555 217.536L102.796 217.637C102.796 217.637 102.705 218.485 101.72 218.469C100.516 218.45 100.555 217.536 100.555 217.536Z" fill="white"/>
<path d="M291.564 38.9238C291.843 38.9345 292.608 39.1919 293.724 41.3027C295.152 44.0011 297.238 52.1495 297.238 52.1495L291.01 54.4679L290.209 52.7672L288.892 39.673C288.894 39.673 291.488 38.9203 291.564 38.9238Z" fill="#DD513A"/>
<path d="M283.333 37.7491C285.113 37.7508 289.52 38.271 291.565 38.9243C291.565 38.9243 293.067 51.8357 290.212 61.6475C289.573 63.8435 290.741 70.7528 290.741 70.7528L272.289 70.5095C272.289 70.5095 274.474 53.808 273.651 51.1114C272.827 48.413 272.807 39.013 272.807 39.013C272.807 39.013 272.933 38.9935 276.953 38.2994C278.829 37.9727 281.432 37.7455 283.333 37.7491Z" fill="#F47458"/>
<path d="M281.183 94.7168C281.183 94.7168 281.591 99.4283 282.342 100.733C283.093 102.038 282.303 104.255 282.263 104.561C282.223 104.864 280.683 105.299 278.233 105.038C275.783 104.777 275.824 104.213 276.021 103.298C276.218 102.386 277.523 101.211 277.601 100.341C277.681 99.4709 276.85 96.3394 276.85 96.3394L281.183 94.7168Z" fill="#F7A491"/>
<path d="M288.658 66.8642C288.658 66.8642 301.396 66.1576 304.24 67.8796C307.084 69.6016 302.219 78.0571 302.219 78.0571C302.219 78.0571 293.356 77.6488 275.995 78.65C271.884 78.8879 271.531 67.9311 272.299 67.0239C273.068 66.1168 288.658 66.8642 288.658 66.8642Z" fill="#E0973F"/>
<path d="M277.929 105.404C275.406 105.135 275.718 103.896 275.923 102.955C276.05 102.366 276.773 101.672 277.204 101.015C277.43 101.194 277.797 101.512 278.891 101.835C280.029 102.171 281.587 101.507 282.58 101.09C282.935 102.407 282.951 104.088 282.917 104.344C282.876 104.658 280.449 105.673 277.929 105.404Z" fill="#DD513A"/>
<path d="M279.321 75.9755C279.83 79.826 282.349 98.9969 282.349 98.9969L276.503 99.7212C276.503 99.7212 269.313 74.6991 269.683 70.8734C270.052 67.046 272.743 66.7246 272.743 66.7246C272.743 66.7246 277.973 65.782 279.321 75.9755Z" fill="#F7CC7F"/>
<path d="M272.607 40.4459C274.332 39.798 275.175 55.3438 275.408 61.7418C278.463 62.0365 283.789 61.7436 285.115 61.6442C285.738 61.598 287.176 61.0708 287.797 60.9891C288.433 60.9057 289.01 60.8631 289.321 60.9163C289.436 60.9359 292.619 62.2389 292.892 62.5247C293.23 62.8798 294.144 63.7727 293.99 64.158C293.835 64.545 292.234 63.0821 292.234 63.0821L291.451 62.6419C292.426 63.5934 294.286 64.8485 294.018 65.3048C293.757 65.7503 292.079 64.4775 290.885 63.6094C291.911 64.5361 293.184 66.1924 292.891 66.4516C292.626 66.6841 291.178 64.7651 289.63 64.213C289.056 64.0088 288.483 64.5751 288.032 64.6444C287.7 64.6941 287.189 64.8024 286.862 64.7101L285.184 64.2343C284.613 64.2858 284.598 64.6231 284.022 64.7473C283.352 64.8894 282.253 65.0403 281.401 65.248C276.491 66.448 274.852 67.0055 273.349 67.0037C268.793 67.0019 268.531 41.9762 272.607 40.4459Z" fill="#F7A491"/>
<path d="M269.333 55.0398C269.01 48.4856 269.058 40.4082 272.731 39.0306C274.181 38.4873 276.736 41.7556 276.276 55.1729C274.316 55.3345 271.437 55.4658 269.333 55.0398Z" fill="#DD513A"/>
<path d="M298.279 98.7466C298.279 98.7466 297.769 100.382 298.681 101.464C299.596 102.546 303.391 103.607 303.888 104.193C304.387 104.779 304.348 105.278 304.348 105.278L293.695 104.985L293.81 101.768L294.3 99.4567L298.279 98.7466Z" fill="#F7A491"/>
<path d="M299.345 102.003C299.345 102.003 296.608 103.11 295.285 102.453C293.963 101.798 294.004 101.616 293.62 101.861C293.237 102.106 293.1 105.122 293.1 105.122L305.079 105.473C305.914 105.454 306.335 104.839 305.656 104.314C305.191 103.954 304.655 103.712 304.35 103.538C303.414 103.002 299.345 102.003 299.345 102.003Z" fill="#DD513A"/>
<path d="M297.876 69.8828C298.699 68.1502 300.572 65.8938 303.867 67.2537C307.009 68.5496 307.852 71.7344 306.862 74.9956C305.871 78.2567 299.344 97.4294 299.116 100.066L293.904 100.099C293.904 100.099 294.851 84.9192 295.083 81.2498C295.305 77.717 296.45 72.8812 297.876 69.8828Z" fill="#F7CC7F"/>
<path d="M306.337 52.2246H288.917C288.455 52.2246 288.042 52.5033 287.866 52.9312L282.501 66.0591H272.897C272.629 66.0591 272.411 66.2775 272.411 66.5473C272.411 66.8172 272.629 67.0355 272.897 67.0355H300.232C300.983 67.0355 301.665 66.5935 301.974 65.9047L307.376 53.8312C307.71 53.0767 307.161 52.2246 306.337 52.2246Z" fill="black"/>
<path d="M296.956 59.8691C296.839 60.4585 296.326 60.8526 295.811 60.7496C295.296 60.6467 294.975 60.0839 295.092 59.4945C295.209 58.9051 295.722 58.511 296.237 58.614C296.752 58.717 297.073 59.2797 296.956 59.8691Z" fill="white"/>
<path d="M287.472 21.9798C286.947 21.8022 286.43 21.6034 285.931 21.362C285.367 21.0904 284.635 20.7708 284.174 20.6998C283.201 20.5489 281.532 20.6501 280.609 21.6496C279.46 22.8958 277.419 21.875 277.829 28.4026C278.294 35.793 282.404 34.9817 282.503 34.8557C282.603 34.7314 286.167 30.1282 286.167 30.1282C286.167 30.1282 287.414 32.855 287.414 32.7538C287.415 32.6597 293.78 24.103 287.472 21.9798Z" fill="#0E2E35"/>
<path d="M284.353 35.404L284.708 38.0438C284.708 38.0438 285.503 41.8482 284.481 42.5814C283.458 43.3146 280.133 37.9356 280.133 37.9356L280.485 31.2446L284.353 35.404Z" fill="#F7A491"/>
<path d="M280.371 33.414C281.216 35.697 283.227 37.0994 284.654 37.6426L284.354 35.404L280.484 31.2446L280.371 33.414Z" fill="#F47458"/>
<path d="M284.144 23.9643C286.309 23.6146 288.253 25.3561 288.198 27.5255C288.175 28.4681 288.097 29.6451 287.902 30.9127C287.431 33.9608 285.351 36.6449 283.977 36.4053C282.603 36.1656 279.141 33.5365 279.752 29.1978C280.126 26.5189 281.87 24.33 284.144 23.9643Z" fill="#F7A491"/>
<path d="M280.705 29.7145C280.589 30.3855 280.052 30.8506 279.507 30.7566C278.96 30.6607 278.612 30.0411 278.727 29.3701C278.843 28.699 279.38 28.2339 279.925 28.328C280.472 28.4239 280.82 29.0452 280.705 29.7145Z" fill="#F7A491"/>
<path d="M279.925 28.3279C279.925 28.3279 281.589 28.7415 282.205 27.671C282.823 26.6023 285.027 24.2945 287.832 25.2514C290.637 26.2082 285.365 22.9258 285.139 22.9258C284.916 22.9258 282.223 22.9062 282.223 22.9062C282.223 22.9062 280.147 24.614 280.073 24.8004C279.998 24.9886 279.4 27.0337 279.4 27.0337L279.925 28.3279Z" fill="#0E2E35"/>
<path d="M282.967 32.791L285.992 33.3697C285.992 33.3697 285.703 34.5095 284.366 34.2929C282.737 34.0301 282.967 32.791 282.967 32.791Z" fill="white"/>
<path d="M231.792 243.419C231.908 243.818 231.975 243.949 232.121 244.218C233.069 245.945 235.27 248.409 235.27 248.409L236.973 244.573C236.973 244.573 236.696 243.367 236.213 241.647C234.571 242.075 233.005 242.323 231.792 243.419Z" fill="#F8A492"/>
<path d="M241.555 240.092C241.555 240.092 232.057 244.182 231.75 244.104C231.553 244.055 227.855 237.864 227.815 232.045C227.797 229.357 230.587 226.123 233.703 226.762C235.271 227.083 235.248 227.52 237.568 230.891C239.89 234.262 241.555 240.092 241.555 240.092Z" fill="#13375B"/>
<path d="M236.299 245.487L243.063 236.013C243.091 235.929 243.154 235.761 243.248 235.501C243.588 234.561 244.297 232.604 244.915 230.659L244.922 230.637C245.115 229.957 245.527 228.77 245.925 227.623C246.367 226.346 246.915 224.763 246.935 224.493C246.917 224.447 246.885 224.363 246.844 224.253C246.596 223.609 246.26 222.077 246.143 221.409C246.069 220.985 245.992 219.954 246.496 219.954C247.29 219.954 246.912 220.983 247.277 221.628C247.412 221.198 247.684 220.344 247.828 219.482L247.961 217.467C247.986 217.314 247.824 216.203 248.382 216.203H248.408C248.909 216.24 248.896 217.42 249.104 219.419C249.17 219.189 249.236 218.912 249.285 218.658C249.28 218.521 249.379 217.921 249.454 217.603C249.353 217.046 249.411 216.169 250.004 216.251C250.301 216.291 250.278 217.518 250.278 217.518C250.274 217.687 250.256 218.983 250.267 219.238C250.327 218.803 250.565 216.948 251.03 216.948C251.416 216.948 251.448 217.447 251.439 217.843C251.433 218.077 251.192 220.085 251.178 220.319C251.359 220.014 251.575 218.244 251.755 218.244C252.507 218.244 252.236 220.761 251.959 221.418C251.932 221.486 251.906 221.617 251.874 221.77C251.78 222.219 251.622 222.97 251.229 223.643C250.757 224.45 250.105 225.736 250.006 225.933C249.933 226.334 249.708 227.777 249.422 229.593C249.299 230.371 249.166 231.221 249.028 232.104L249.021 232.102C248.996 232.294 248.854 232.901 248.32 235.178C247.588 238.296 247.512 238.431 247.478 238.487C247.16 239.05 239.868 248.954 239.557 249.375L239.374 249.624L236.299 245.487Z" fill="#F7A491"/>
<path d="M248.879 223.389C248.879 223.389 248.331 221.985 247.353 221.983C247.353 221.983 247.899 221.786 248.366 222.157C248.837 222.526 248.879 223.389 248.879 223.389Z" fill="#F47458"/>
<path d="M234.665 220.676L233.795 226.183C233.795 226.183 237.113 228.848 239.046 228.285C240.669 227.813 239.556 225.692 239.556 225.692C239.556 225.692 238.691 222.752 238.956 221.211C239.222 219.67 234.665 220.676 234.665 220.676Z" fill="#F7A491"/>
<path d="M235.292 222.339C236.123 222.732 237.766 223.268 239.046 223.397C238.924 222.627 238.855 221.812 238.958 221.21C239.08 220.5 238.175 220.331 237.166 220.356C235.846 220.47 234.667 220.676 234.667 220.676L234.5 221.734C234.75 221.998 235.013 222.21 235.292 222.339Z" fill="#FE875E"/>
<path d="M230.479 214.324C230.342 214.324 231.791 220.475 234.031 221.533C236.274 222.591 239.616 222.039 240.243 220.383C240.937 218.551 238.406 212.275 235.253 211.478C232.102 210.681 230.479 214.324 230.479 214.324Z" fill="#F7A491"/>
<path d="M233.073 208.672C231.283 209.706 230.461 211.236 230.184 211.864C229.345 212.264 228.328 213.125 227.839 215.45C227.239 218.307 229.373 220.51 231.635 221.172C233.896 221.834 234.246 223.331 234.246 223.331L234.504 221.721C234.504 221.721 234.001 220.318 233.243 219.617C232.487 218.916 233.602 217.891 233.699 217.057C233.776 216.414 233.302 215.166 233.405 214.112C233.405 214.112 234.662 212.207 235.901 211.737C238.012 210.934 235.37 207.348 233.073 208.672Z" fill="#13375B"/>
<path d="M234.026 218.127C234.319 218.837 234.2 219.544 233.758 219.703C233.318 219.863 232.723 219.416 232.43 218.706C232.137 217.996 232.256 217.289 232.698 217.131C233.138 216.97 233.733 217.417 234.026 218.127Z" fill="#F7A491"/>
<path d="M242.375 245.638L255.421 243.511C255.421 243.511 253.937 239.774 253.406 239.774C252.876 239.774 243.541 243.849 243.541 243.849L242.799 245.34L242.375 245.638Z" fill="#F8A492"/>
<path d="M235.691 254.583C235.691 254.583 234.39 260.875 234.92 265.647C235.451 270.417 235.492 287.365 235.492 287.365L233.468 314.48L238.27 314.585C238.27 314.585 243.965 287.482 243.859 288.178C243.752 288.874 245.767 269.096 245.767 269.096L238.979 253.989L235.691 254.583Z" fill="#184655"/>
<path d="M236.964 254.286C236.964 254.286 236.115 259.95 237.177 262.436C238.237 264.921 246.275 289.301 246.381 291.287C246.488 293.275 249.16 315.246 249.16 315.246L254.743 315.09L255.95 290.662L253.42 259.961L250.965 252.2L236.964 254.286Z" fill="#13375B"/>
<path d="M233.795 226.182C233.795 226.182 235.173 227.085 236.456 226.98C237.74 226.876 239.556 225.692 239.556 225.692L239.304 224.836C239.304 224.836 235.982 224.351 235.897 224.404C235.813 224.456 233.795 226.182 233.795 226.182Z" fill="#F7A491"/>
<path d="M248.471 239.59C248.471 239.59 253.406 244.247 255.634 243.451C257.862 242.656 258.783 239.938 253.347 235.961C248.483 232.404 248.471 239.59 248.471 239.59Z" fill="#F8A492"/>
<path d="M251.813 245.34C251.08 241.351 245.767 228.94 245.342 226.656C245.136 225.544 242.269 225.519 239.541 225.665C236.658 225.818 233.793 226.183 233.793 226.183C233.793 226.183 231.24 226.602 230.118 227.655C228.994 228.708 228.696 231.617 230.311 237.142C231.586 241.502 233.166 243.897 233.947 247.075C234.105 248.14 234.242 249.191 234.421 250.419C234.709 255.168 234.417 261.443 234.417 261.443C234.417 261.443 248.312 264.326 253.51 259.952C253.51 259.95 252.566 249.427 251.813 245.34Z" fill="#355389"/>
<path d="M255.357 236.765C255.357 236.765 249.906 241.265 249.588 241.265C249.384 241.265 241.807 235.693 240.058 231.114C239.091 228.583 241.12 225.751 243.435 225.76C245.04 225.767 245.753 226.181 248.936 228.863C252.119 231.546 255.357 236.765 255.357 236.765Z" fill="#466EB6"/>
<path d="M159.443 35.8662C160.336 33.7164 161.245 31.5613 163.564 30.473C165.44 29.5925 167.4 29.9227 169.067 31.1778C173.791 34.7301 169.674 38.6427 175.051 45.378C176.722 47.4711 178.744 49.1611 179.745 51.6127C181.146 55.0461 179.477 56.6935 176.804 58.3374C164.006 66.2035 157.297 50.0523 157.539 46.358C157.716 43.6099 158.868 37.2509 159.443 35.8662Z" fill="#13375B"/>
<path d="M146.162 77.7299C146.701 77.6447 148.011 76.7056 148.475 76.6203C148.833 76.5547 149.609 76.4375 149.939 76.3878C150.344 74.877 152.4 66.6363 152.631 64.2202C152.881 61.6035 154.731 50.2827 154.731 50.2827L159.522 51.1544C159.522 51.1544 157.532 59.8637 156.982 64.0853C156.51 67.7121 152.529 75.8676 152.023 76.7286C152.023 76.7499 152.024 76.7695 152.022 76.7908C151.945 78.0707 151.328 77.6447 151.328 77.6447L150.326 77.9003C150.326 77.9003 146.781 78.2411 146.549 78.3264C146.316 78.4116 145.622 77.8151 146.162 77.7299Z" fill="#F7A491"/>
<path d="M158.906 43.6655C155.519 44.8141 153.593 54.0223 153.593 54.0223C153.593 54.0223 158.908 55.5065 160.269 54.7271C160.269 54.7271 161.816 47.8764 162.37 48.1161L158.906 43.6655Z" fill="#6A97CE"/>
<path d="M132.705 93.6396C131.668 96.3735 131.13 99.0062 131.082 99.324C131.059 99.4767 131.276 100.221 131.255 100.379C129.174 103.217 126.185 103.837 123.621 104.018C124.928 102.743 126.845 101.534 126.937 101.131C127.085 100.489 127.873 97.6251 128.262 93.6592C129.856 94.3977 130.939 93.8118 132.705 93.6396Z" fill="#F7A491"/>
<path d="M162.185 63.0586L166.764 75.9505C166.764 75.9505 159.407 77.3352 156.657 77.8393C153.907 78.3435 138.541 79.0146 138.152 79.2879C137.862 79.4903 134.688 89.7566 133.272 95.4179C131.663 95.7711 128.91 95.3469 127.445 94.8427C128.237 86.7422 131.095 73.9107 132.011 72.5136C133.499 70.2395 162.185 63.0586 162.185 63.0586Z" fill="#256653"/>
<path d="M144.301 99.292C143.795 102.171 143.76 104.859 143.772 105.18C143.778 105.335 144.129 106.024 144.14 106.185C142.627 109.363 139.806 110.533 137.323 111.192C138.367 109.695 140.025 108.147 140.039 107.733C140.062 107.075 140.302 104.115 139.939 100.144C141.645 100.568 142.599 99.7926 144.301 99.292Z" fill="#F7A491"/>
<path d="M167.529 63.7285L169.304 66.7606C172.008 71.3781 169.934 77.3181 164.947 79.2531C164.921 79.2637 164.894 79.2744 164.868 79.2833C162.262 80.2934 147.293 83.8332 146.962 84.1741C146.716 84.4279 145.523 95.1061 145.191 100.932C143.676 101.582 140.893 101.68 139.359 101.458C138.619 93.3539 139.022 80.2135 139.659 78.669C140.696 76.157 167.529 63.7285 167.529 63.7285Z" fill="#327F6B"/>
<path d="M143.543 105.269C143.941 104.829 145.405 107.252 145.771 107.769C146.183 108.349 146.066 108.788 146.016 108.88C145.886 109.12 138.171 113.659 136.289 113.982C136.112 114.012 135.803 113.9 135.727 113.831C134.992 113.18 138.375 108.374 139.897 107.742C140.878 107.334 141.75 107.248 143.543 105.269Z" fill="#13375B"/>
<path d="M130.836 99.4106C131.31 99.052 132.293 101.706 132.556 102.283C132.851 102.931 132.653 103.339 132.588 103.419C132.416 103.63 123.987 106.643 122.077 106.607C121.895 106.604 121.615 106.435 121.551 106.354C120.951 105.576 125.176 101.489 126.788 101.154C127.83 100.939 128.704 101.021 130.836 99.4106Z" fill="#13375B"/>
<path d="M162.119 43.6389C162.032 43.6389 161.906 43.6087 161.778 43.5679C161.149 43.4561 159.774 43.291 158.703 43.7419C157.402 44.2904 155.385 49.4227 155.504 54.6881C155.552 55.494 155.602 56.2148 155.643 56.7172C155.971 60.6955 157.112 68.1605 157.175 68.1995C158.728 69.199 168.096 65.3236 168.739 64.4733C169.383 63.6229 169.763 53.2821 170.075 52.7655L170.691 43.7721C169.603 43.4507 163.784 43.6265 162.119 43.6389Z" fill="#9BC1F9"/>
<path d="M165.916 40.3258C165.916 40.3258 165.313 43.445 165.433 44.677C165.554 45.9072 164.974 49.8731 162.369 49.8873C159.765 49.8998 161.874 44.8456 162.121 43.6385C162.366 42.4331 162.424 38.6997 162.424 38.6997L165.916 40.3258Z" fill="#F7A491"/>
<path d="M162.37 40.5726C162.41 39.5518 162.423 38.6997 162.423 38.6997L165.917 40.3276C165.917 40.3276 165.794 40.9649 165.67 41.778C164.14 42.0833 163.032 41.5188 162.37 40.5726Z" fill="#F47458"/>
<path d="M167.192 31.7169C167.192 31.7169 168.538 32.4642 169.03 34.0815C169.521 35.7005 168.962 39.8759 165.485 40.8843C162.007 41.8926 160.501 38.5853 161.217 35.9988C161.934 33.414 163.491 30.1404 167.192 31.7169Z" fill="#F7A491"/>
<path d="M160.784 34.9972C160.852 35.6913 161.235 36.2221 161.64 36.1831C162.045 36.144 162.316 35.5475 162.249 34.8534C162.181 34.1593 161.798 33.6285 161.393 33.6676C160.988 33.7084 160.715 34.3031 160.784 34.9972Z" fill="#F7A491"/>
<path d="M166.785 31.5054C166.785 31.5054 167.415 36.1636 168.922 37.0051C170.427 37.8466 169.797 39.913 169.797 39.913C169.797 39.913 171.164 35.1145 169.973 33.5735C168.782 32.0308 166.785 31.5054 166.785 31.5054Z" fill="#13375B"/>
<path d="M168.029 37.6745C167.621 38.2816 167.623 38.997 168.033 39.274C168.443 39.5509 169.107 39.2811 169.515 38.6739C169.923 38.0668 169.922 37.3514 169.512 37.0744C169.101 36.7993 168.438 37.0673 168.029 37.6745Z" fill="#F7A491"/>
<path d="M162.963 37.9336L165.412 38.5496C165.412 38.5496 165.118 39.4798 164.033 39.2402C162.71 38.949 162.963 37.9336 162.963 37.9336Z" fill="white"/>
<path d="M175.13 77.3409C175.248 77.3355 185.695 76.8101 185.695 76.8101C185.695 76.8101 181.36 79.9256 181.271 79.9256C181.182 79.9256 177.818 78.5977 177.671 78.5977C177.523 78.5977 175.13 77.3409 175.13 77.3409Z" fill="#50BFA5"/>
<path d="M396.289 255.174C396.289 255.174 397.484 261.355 396.997 266.042C396.511 270.729 396.472 287.379 396.472 287.379L398.717 314.009L393.921 314.121C393.921 314.121 388.694 287.494 388.79 288.178C388.888 288.861 387.038 269.429 387.038 269.429L393.269 254.586L396.289 255.174Z" fill="#355389"/>
<path d="M394.618 251.183C394.618 251.183 400.031 256.883 398.018 263.109C397.21 265.61 389.667 289.503 389.569 291.456C389.472 293.409 387.018 314.994 387.018 314.994L381.893 314.84L380.784 290.84L382.248 258.504L385.36 253.05L394.618 251.183Z" fill="#466EB6"/>
<path d="M361.76 232.629C363.532 230.652 367.39 227.838 367.39 227.838C367.39 227.838 369.687 225.874 370.624 225.551C372.003 225.075 374.365 223.808 377.78 228.985C380.225 232.689 395.648 251.871 398.181 252.517L381.647 260.428C381.194 256.65 373.023 249.512 371.846 248.18C369.218 245.205 360.083 234.502 361.76 232.629Z" fill="#F47458"/>
<path d="M362.531 224.593L367.681 227.609C367.681 227.609 367.826 232.006 366.142 233.148C364.728 234.106 363.654 231.806 363.654 231.806C363.654 231.806 361.739 229.152 360.285 228.324C358.829 227.497 362.531 224.593 362.531 224.593Z" fill="#F7A491"/>
<path d="M363.395 226.528C363.202 227.446 362.753 228.772 362.058 229.863C361.49 229.249 360.853 228.647 360.285 228.324C359.614 227.943 360.04 227.119 360.695 226.341C361.62 225.379 362.531 224.593 362.531 224.593L363.521 225.172C363.585 225.548 363.459 226.222 363.395 226.528Z" fill="#F47458"/>
<path d="M359.848 217.036C359.935 216.929 364.169 222.198 363.647 224.671C363.125 227.144 360.565 229.399 358.787 228.779C356.82 228.094 353.161 221.889 354.473 218.877C355.785 215.864 359.848 217.036 359.848 217.036Z" fill="#F7A491"/>
<path d="M355.213 215.373C357.06 214.347 360.07 214.053 362.32 215.23C365.085 216.678 365.716 220.321 364.849 222.544C363.983 224.766 364.975 226.023 364.975 226.023L363.509 225.166C363.509 225.166 362.652 223.827 362.54 222.762C362.428 221.695 360.873 221.885 360.113 221.4C359.529 221.028 358.782 219.819 357.837 219.19C357.837 219.19 355.455 218.897 354.285 219.556C352.286 220.676 352.57 216.843 355.213 215.373Z" fill="#13375B"/>
<path d="M361.302 222.29C361.287 223.08 361.662 223.728 362.136 223.735C362.61 223.742 363.006 223.108 363.02 222.318C363.034 221.528 362.66 220.88 362.186 220.873C361.71 220.864 361.314 221.498 361.302 222.29Z" fill="#F7A491"/>
<path d="M356.966 226.485L359.208 224.809C359.208 224.809 359.801 225.714 358.837 226.481C357.66 227.415 356.966 226.485 356.966 226.485Z" fill="white"/>
<path d="M351.336 259.828C351.897 259.008 352.142 257.824 352.92 256.92C353.181 256.617 353.596 256.276 354.069 255.935C357.804 253.75 367.532 248.117 367.91 247.68C368.359 247.162 374.999 236.13 374.999 236.13L369.036 234.779L363.207 245.07C362.721 245.457 353.47 252.294 353.47 252.294C353.47 252.294 351.631 253.732 350.625 254.405C350.117 254.701 349.623 254.893 349.192 255.044C348.649 255.232 347.615 255.749 347.406 255.931C347.163 256.144 346.676 256.602 346.387 256.881C346.098 257.16 345.748 257.476 345.611 257.641C345.53 257.742 345.274 257.881 345.086 257.975C344.805 258.115 344.843 258.529 345.143 258.614C345.427 258.694 345.808 258.516 346.046 258.404C346.715 258.09 347.534 257.24 347.576 257.345C347.619 257.449 346.788 259.269 346.707 259.484C346.625 259.698 345.672 261.82 345.622 262.292C345.572 262.764 345.858 262.874 346.069 262.7C346.252 262.551 347.786 259.72 347.786 259.72C347.786 259.72 347.983 259.359 348.059 259.565C348.136 259.771 346.747 262.347 346.612 262.77C346.478 263.192 346.584 263.538 346.976 263.391C347.452 263.212 348.764 260.371 348.764 260.371C348.764 260.371 348.934 260.018 349.052 260.141C349.169 260.263 347.951 262.434 347.937 262.684C347.923 262.935 348.15 263.182 348.478 262.972C348.865 262.725 350.016 260.181 350.016 260.181C350.016 260.181 350.158 260.013 350.202 260.132C350.246 260.251 349.341 262.175 349.408 262.455C349.465 262.692 349.678 262.644 349.678 262.644C350.152 262.642 350.774 260.648 351.336 259.828Z" fill="#F8A492"/>
<path d="M373.363 241.958C373.363 241.958 371.421 241.341 370.175 240.771C369.34 240.389 365.701 238.578 365.701 238.578C365.701 238.578 367.271 231.96 368.33 229.58C372.223 220.845 376.646 226.869 377.246 228.273C378.589 231.412 373.363 241.958 373.363 241.958Z" fill="#355389"/>
<path d="M237.713 219.089L239.561 217.708C239.561 217.708 240.049 218.455 239.254 219.086C238.285 219.856 237.713 219.089 237.713 219.089Z" fill="white"/>
<path d="M185.934 76.7994C185.89 76.6876 185.792 76.6858 185.693 76.6823C184.724 76.6521 183.754 76.6095 182.794 76.4657C182.634 76.4426 182.476 76.4053 182.329 76.3468C182.061 76.2402 181.798 76.242 181.526 76.3166C181.381 76.3574 181.232 76.3645 181.081 76.3645C180.592 76.3627 179.202 75.8887 178.487 75.7645C178.324 75.7361 178.194 75.6118 178.153 75.452C177.45 72.672 175.943 66.4338 175.748 64.3833C175.498 61.7613 173.687 49.9346 173.687 49.9346L168.84 51.2855C168.84 51.2855 170.836 60.0144 171.386 64.2466C171.812 67.5149 175.079 74.4508 176.103 76.4444C176.604 77.9285 177.725 77.9693 177.986 78.0013C178.136 78.019 178.272 78.0936 178.37 78.2072C178.547 78.4132 178.75 78.5925 178.981 78.7398C179.153 78.8481 179.284 78.9901 179.398 79.1552C179.604 79.4552 179.788 79.7694 179.969 80.0854C180.09 80.2949 180.216 80.3606 180.395 80.3109C180.587 80.2576 180.679 80.1156 180.676 79.8813C180.671 79.5351 180.561 79.2227 180.387 78.9262C180.223 78.6493 180.236 78.4895 180.426 78.2339C180.534 78.0883 180.648 77.9463 180.79 77.8291C180.935 77.7102 181.088 77.6214 181.285 77.648C181.633 77.735 181.984 77.806 182.341 77.8451L182.634 77.9054C182.645 77.9072 182.794 77.9392 182.794 77.9392C182.819 77.9463 183.333 78.0013 183.511 78.0031C183.653 78.0031 183.882 78.0119 184.077 78.0226C184.255 78.0315 184.628 77.9392 184.64 77.9392C184.812 77.9356 184.965 77.8735 185.093 77.7581C185.146 77.7102 185.196 77.6587 185.169 77.577C185.144 77.5042 185.087 77.4723 185.011 77.4581C184.894 77.4368 184.292 77.364 184.299 77.3391C184.479 77.3391 185.038 77.3267 185.217 77.3214C185.458 77.3143 185.666 77.2291 185.833 77.0498C185.902 76.9823 185.977 76.9113 185.934 76.7994Z" fill="#F7A491"/>
<path d="M170.75 43.7551C173.142 43.3202 175.116 54.0214 175.116 54.0214C175.116 54.0214 169.801 55.5055 168.439 54.7261C168.439 54.7261 166.893 47.8755 166.339 48.1151L170.75 43.7551Z" fill="#9BC1F9"/>
<path d="M112.915 236.114C113.073 235.659 110.868 235.293 110.749 234.835C110.632 234.376 113.534 234.34 113.637 233.937C113.829 233.195 110.456 233.781 110.522 233.433C110.587 233.085 114.037 232.309 113.664 231.715C113.291 231.118 110.172 232.892 110.078 232.489C109.984 232.084 113.126 231.1 113.071 230.214C113.041 229.74 107.912 232.577 107.317 232.32C106.723 232.063 107.957 229.836 107.484 229.504C107.01 229.174 105.652 234.029 105.324 234.193C104.997 234.354 98.0684 238.31 95.6025 238.938C95.3025 238.113 94.6563 236.998 94.3918 236.217C93.0089 237.202 91.981 237.695 90.5537 238.592C91.5887 241.184 93.0604 244.022 93.7811 244.347C95.9753 245.34 104.461 238.301 106.156 237.095C107.852 235.89 108.823 236.281 109.968 235.901C111.115 235.521 112.757 236.566 112.915 236.114Z" fill="#F7A491"/>
<path d="M90.2588 239.837C90.2588 239.837 88.3592 231.449 88.6894 229.015C89.0196 226.581 91.9115 224.314 93.9158 225.156C95.92 225.997 96.829 237.708 96.829 237.708L90.2588 239.837Z" fill="#F7CC7F"/>
</svg>
