<svg width="349" height="139" viewBox="0 0 349 139" fill="none" xmlns="http://www.w3.org/2000/svg">
<path d="M329.025 101.949C325.805 85.958 319.921 67.1126 321.092 61.4522C324.873 43.199 317.687 13.4247 262.327 5.04265C186.691 -6.40922 99.4313 5.094 75.9379 14.0999C61.2125 19.745 52.9965 30.2417 47.5218 40.7351C42.047 51.2284 43.2092 74.0817 30.5421 81.5274C27.147 83.5232 23.2769 85.1809 20.1301 87.3402C9.77108 94.447 6.61392 110.44 9.40735 117.121C13.1721 126.124 22.3843 135.785 31.9987 138.107C32.46 138.218 47.1914 138.392 47.6578 138.521H83.364C90.1147 137.717 104.826 138.578 110.26 138.236C131.508 136.901 264.049 140.391 307.451 138.688C351.967 136.942 329.901 106.299 329.025 101.949Z" fill="#CBEFEF"/>
<path opacity="0.4" d="M65.9058 111.269C67.5918 110.241 69.2127 109.116 70.149 107.742C71.271 106.097 71.3215 104.232 71.1298 102.436C70.8542 99.8566 70.0609 97.2087 67.7689 95.0956C64.4894 92.072 58.8041 90.6693 54.0448 88.6401C49.2856 86.6109 44.9542 82.9822 46.8268 79.4887C48.1242 77.0676 52.0901 75.4732 52.922 72.9664C53.8146 70.2757 50.6147 67.6449 46.8499 66.3842C44.9756 65.7569 42.9824 65.353 40.9267 65.0894C38.9643 71.9805 36.0681 78.2563 30.4847 81.5384C29.1795 82.3052 27.8051 83.0224 26.428 83.7379C26.5359 83.7875 26.6446 83.8355 26.7515 83.8851C28.0036 84.4662 29.2882 85.1192 29.8445 86.0512C30.6413 87.3863 29.7666 89.0098 30.8458 90.2576C32.697 92.3998 37.9561 91.4515 41.1423 92.7729C42.4064 93.2967 43.252 94.1516 43.9401 95.0169C45.1545 96.5437 46.0052 98.3735 44.991 99.961C42.9242 103.196 35.3184 102.947 31.7778 105.587C27.8487 108.517 30.8236 113.205 28.8244 116.868C27.5817 119.144 17.5719 124.249 14.3643 125.492C17.7953 129.858 22.6761 134.633 29.0794 137.177C29.6494 136.553 35.7566 131.345 36.1212 130.668C37.7344 127.671 37.7284 124.184 40.8325 121.733C43.2391 119.833 47.0151 118.972 50.4683 117.961C56.1348 116.303 61.3742 114.032 65.9058 111.269Z" fill="white"/>
<path opacity="0.4" d="M292.087 13.251C291.753 13.3203 291.394 13.3717 291.001 13.4016C288.353 13.5369 282.72 13.8159 280.137 14.1881C273.702 15.115 267.998 17.513 261.706 18.7874C250.756 21.0048 238.955 19.6843 227.492 19.9427C216.709 20.1867 205.18 21.7537 195.649 18.4681C194.331 18.0137 193.02 17.4266 192.406 16.5434C191.491 15.2263 192.459 13.6053 194.144 12.6622C195.83 11.7191 198.068 11.3203 200.251 11.0472C209.727 9.86363 219.48 10.5628 229.127 10.6989C238.774 10.8359 248.887 10.3146 257.103 7.02569C258.612 6.42148 260.055 5.70771 261.324 4.89382C252.759 3.6212 244.049 2.64042 235.304 1.91553C235.153 1.96089 235.003 2.00625 234.853 2.04989C226.07 4.63022 216.586 6.19896 206.974 6.66196C198.953 7.04794 190.89 6.67052 182.854 6.88962C174.819 7.10871 166.607 7.97652 159.672 10.6245C158.574 11.0438 157.476 11.5308 156.834 12.2463C156.118 13.043 156.064 14.0161 156.168 14.9361C156.457 17.5207 157.859 20.0489 160.173 22.1585C160.557 22.5085 160.964 22.8423 161.389 23.1649L175.17 21.3181L177.608 29.006C179.858 29.3295 182.152 29.5306 184.421 29.6179C193.655 29.9765 202.843 28.786 212.063 28.3034C231.941 27.2635 251.827 29.5195 271.701 30.5961C275.445 30.799 279.213 30.8708 282.951 30.68C299.232 29.849 309.053 29.2165 313.139 28.5952C308.504 22.8868 301.722 17.5627 292.087 13.251Z" fill="white"/>
<path opacity="0.4" d="M310.515 88.9601C307.053 87.9973 303.846 86.6725 300.355 85.7559C290.295 83.1157 278.607 84.0306 268.7 81.1567C266.897 80.6338 265.107 79.9491 264.041 78.8682C262.974 77.7873 262.849 76.2271 264.214 75.2985C265.47 74.4427 267.494 74.3622 269.314 74.3366C276.188 74.2407 283.097 74.1449 289.911 74.7457C292.956 75.0135 296.026 75.4209 299.075 75.1761C303.354 74.8321 307.146 73.2403 310.52 71.4961C311.422 71.0296 312.334 70.5393 313.428 70.303C314.391 70.0951 315.427 70.0985 316.442 70.1045C318.08 70.1139 319.718 70.1242 321.356 70.1336C320.901 67.6893 320.076 65.2767 318.742 62.9052C317.677 61.0113 316.312 59.2072 314.818 57.4408C311.8 57.0402 308.786 56.6277 305.769 56.2315C303.482 55.9311 301.087 55.6324 298.847 56.056C295.476 56.6936 293.335 58.7622 290.839 60.366C285.948 63.5086 279.097 65.0671 272.283 65.673C265.47 66.2789 258.557 66.0247 251.68 66.059C241.879 66.1086 232.085 66.7479 222.464 67.9658C219.544 68.3355 216.482 68.8113 214.33 70.1464C210.992 72.2167 210.957 75.8608 213.251 78.4617C215.544 81.0634 219.648 82.7768 223.86 84.0006C240.581 88.8617 260.611 87.483 276.776 93.0827C282.136 94.939 286.882 97.5099 292.408 99.148C300.345 101.501 309.005 101.73 317.82 101.65C318.128 98.014 318.865 94.3596 319.624 90.7155C316.501 90.3183 313.44 89.774 310.515 88.9601Z" fill="white"/>
<path opacity="0.8" d="M148.921 96.5408C148.276 94.7154 145.763 93.3537 142.759 93.3537C142.207 93.3537 141.672 93.3999 141.162 93.4864C139.679 91.4255 136.461 89.9972 132.73 89.9972C131.765 89.9972 130.835 90.093 129.96 90.2693C127.951 88.1075 124.301 86.6611 120.132 86.6611C115.172 86.6611 110.946 88.7074 109.346 91.5719C108.213 91.1611 106.909 90.9266 105.519 90.9266C101.171 90.9266 97.646 93.2177 97.646 96.0436C97.646 96.2113 97.6597 96.3765 97.6837 96.54H148.921V96.5408Z" fill="white"/>
<path d="M347.852 139.195H1.25465C0.351746 139.195 0 138.771 0 138.249C0 137.727 0.351746 137.304 1.25465 137.304H347.852C348.754 137.304 349 137.727 349 138.249C349.001 138.771 348.754 139.195 347.852 139.195Z" fill="#7678A8"/>
<path opacity="0.8" d="M270.527 39.7109C270.104 38.5136 268.455 37.6193 266.484 37.6193C266.122 37.6193 265.771 37.6492 265.436 37.7057C264.463 36.3535 262.352 35.4164 259.903 35.4164C259.27 35.4164 258.66 35.4789 258.085 35.5953C256.767 34.1763 254.373 33.228 251.637 33.228C248.383 33.228 245.611 34.5708 244.561 36.4502C243.817 36.1806 242.961 36.0266 242.05 36.0266C239.197 36.0266 236.884 37.5294 236.884 39.384C236.884 39.4936 236.892 39.6023 236.909 39.7101H270.527V39.7109Z" fill="white"/>
<path opacity="0.8" d="M117.573 30.794C116.988 29.1406 114.713 27.9073 111.991 27.9073C111.491 27.9073 111.007 27.9492 110.545 28.0271C109.202 26.1606 106.287 24.8674 102.907 24.8674C102.034 24.8674 101.191 24.9538 100.398 25.1147C98.5786 23.1566 95.2733 21.8472 91.4966 21.8472C87.0035 21.8472 83.177 23.7009 81.7273 26.2949C80.7011 25.9226 79.5192 25.7104 78.2612 25.7104C74.3235 25.7104 71.1304 27.7858 71.1304 30.3456C71.1304 30.497 71.1424 30.6468 71.1646 30.7949H117.573V30.794Z" fill="white"/>
<path d="M101.291 42.1269C101.171 42.0901 100.186 44.0234 99.876 45.2267C99.6706 45.712 100.076 47.3928 99.7305 49.6163L84.6996 46.6457C84.6996 46.6457 80.7636 35.1279 77.9342 29.8979C77.1152 29.9014 72.0837 36.2551 75.1262 42.3332C77.2393 46.4951 79.9223 50.7254 82.0858 51.8226C84.2494 52.9198 100.04 53.0174 100.04 53.0174C100.04 53.0174 101.879 53.0336 102.13 52.4902C102.752 51.1439 101.534 42.2014 101.291 42.1269Z" fill="#F0A8A3"/>
<path d="M99.5345 49.362L84.6996 46.6447C84.6996 46.6447 80.7636 35.127 77.9342 29.897C77.1152 29.9004 72.0837 36.2541 75.1262 42.3322C77.2393 46.4941 79.9223 50.7245 82.0858 51.8216C84.2494 52.9188 100.235 53.3108 100.235 53.3108C100.235 53.3108 100.067 50.6209 99.5345 49.362Z" fill="#E03268"/>
<path d="M82.6463 79.3365C86.2827 82.438 91.523 82.545 95.8013 81.0481C100.08 79.5504 103.506 80.5543 102.539 87.8931C102.539 92.162 100.906 98.2255 100.77 104.311C100.78 104.314 100.79 104.317 100.801 104.323C103.83 104.175 116.886 106.656 125.863 106.56C126.117 106.519 126.356 106.485 126.568 106.465C128.894 106.251 128.413 102.482 127.209 97.6957C126.368 94.3512 126.354 89.354 131.06 86.1455C135.766 82.937 140.899 84.0067 144.108 87.6432C147.316 91.2796 146.46 97.0547 145.392 100.477C144.322 103.9 146.247 106.68 151.381 106.68C156.478 106.68 170.638 104.151 174.189 104.324C174.191 104.323 174.193 104.322 174.195 104.322C174.002 98.3693 172.449 91.9908 172.449 87.8948C171.482 80.556 174.909 79.553 179.187 81.0498C183.466 82.5467 188.706 82.4397 192.342 79.3382C195.979 76.2367 196.586 69.8273 192.663 65.3813C189.053 61.2904 183.68 62.0119 178.557 63.0817C173.434 64.1515 172.343 62.0119 172.449 56.8786C172.556 51.7453 174.695 39.0183 174.268 34.4191H174.267C174.256 34.3934 174.226 34.3977 174.189 34.4165C170.638 34.2428 156.478 36.7717 151.381 36.7717C146.247 36.7717 144.322 33.9911 145.392 30.5687C146.461 27.1462 147.316 21.3711 144.108 17.7346C140.899 14.0982 135.766 13.0293 131.06 16.2378C126.354 19.4463 126.369 24.4435 127.209 27.7881C128.413 32.5747 128.894 36.3447 126.568 36.5578C126.355 36.5775 126.117 36.6108 125.863 36.6528C116.886 36.7486 103.829 34.2676 100.801 34.4156C100.763 34.3968 100.733 34.3925 100.722 34.4182H100.721C100.294 39.0174 102.433 51.7445 102.54 56.8778C102.647 62.011 100.991 64.6581 96.4329 63.0808C91.4879 61.3692 86.9263 61.7509 82.2372 65.3804C78.0565 68.6146 79.0099 76.2349 82.6463 79.3365Z" fill="#02CCC0"/>
<path d="M50.5819 66.8537C50.5819 66.8537 40.4959 79.965 38.999 81.0571C37.5022 82.1491 14.2202 94.0015 14.3015 95.6755C14.3828 97.3487 14.0653 99.3308 15.7008 100.241C15.7008 100.241 42.2889 91.4392 48.1282 88.2384C53.9684 85.0375 60.8005 76.249 65.754 73.2031L58.019 65.5537L50.5819 66.8537Z" fill="#F7B5B2"/>
<path d="M71.8905 68.0994L71.6081 55.137C71.6081 55.137 65.9296 49.1804 59.0119 53.2371C52.0951 57.2937 41.7704 77.4674 40.538 79.019C39.0642 80.3669 23.038 88.9192 17.5786 92.2048C18.823 96.4617 20.9146 100.24 20.9146 100.24C40.4088 93.5493 48.5494 88.9928 50.0437 88.0968C50.7703 87.6612 54.1551 84.2832 57.4415 80.9292C63.5778 75.5255 71.8905 68.0994 71.8905 68.0994Z" fill="#F4A640"/>
<path d="M55.8769 56.0902C55.8769 56.0902 48.7829 70.9226 67.7473 73.627L83.9653 75.3481L70.8642 102.334L73.0457 106.161C73.0457 106.161 97.941 79.4287 95.1073 72.0241C92.2737 64.6194 67.2175 56.6602 67.2175 56.6602L61.0752 54.459L55.8769 56.0902Z" fill="#FFC0BB"/>
<path d="M83.0085 110.435L69.489 108.594C69.0713 108.537 68.7786 108.152 68.8351 107.734C68.8916 107.317 69.2767 107.024 69.6944 107.081L83.2139 108.923C83.6316 108.98 83.9243 109.365 83.8678 109.782C83.8113 110.199 83.4262 110.492 83.0085 110.435Z" fill="white"/>
<path d="M70.2533 102.474L69.1818 106.614C69.05 107.124 69.276 107.635 69.6568 107.687L82.9034 109.491C83.2474 109.539 83.6171 109.37 83.8525 108.991C84.0938 108.602 84.2162 107.984 83.737 107.064C82.7895 105.245 79.017 104.306 77.2806 102.647C77.2455 102.613 77.201 102.592 77.1522 102.585L71.0561 101.755C70.7129 101.708 70.3723 102.012 70.2533 102.474Z" fill="#C1275F"/>
<path d="M75.9589 104.911C75.8717 104.839 75.858 104.673 75.9307 104.558C76.2696 104.017 77.2735 102.724 78.8885 103.237C78.9817 103.267 79.0297 103.403 78.9954 103.532L78.9946 103.536C78.9612 103.661 78.8645 103.732 78.7738 103.704C77.3257 103.249 76.4665 104.392 76.19 104.846C76.1293 104.943 76.0317 104.971 75.9589 104.911Z" fill="white"/>
<path d="M77.2607 105.64C77.1734 105.568 77.1597 105.402 77.2325 105.286C77.5714 104.746 78.5753 103.452 80.1902 103.966C80.2835 103.996 80.3314 104.131 80.2972 104.26L80.2963 104.265C80.263 104.39 80.1663 104.461 80.0755 104.432C78.6275 103.977 77.7682 105.12 77.4918 105.575C77.4319 105.672 77.3335 105.7 77.2607 105.64Z" fill="white"/>
<path d="M78.4719 106.321C78.3838 106.249 78.3709 106.083 78.4437 105.967C78.7826 105.426 79.7865 104.133 81.4014 104.647C81.4947 104.676 81.5418 104.812 81.5084 104.941L81.5076 104.945C81.4742 105.07 81.3775 105.141 81.2867 105.113C79.8387 104.658 78.9794 105.801 78.703 106.255C78.6422 106.352 78.5447 106.38 78.4719 106.321Z" fill="white"/>
<path d="M14.3189 108.273L10.0389 95.3169C9.90627 94.9164 10.1237 94.4851 10.5242 94.3524C10.9247 94.2197 11.356 94.4371 11.4887 94.8377L15.7696 107.794C15.9022 108.195 15.6848 108.626 15.2843 108.759C14.8829 108.89 14.4516 108.673 14.3189 108.273Z" fill="white"/>
<path d="M15.8716 93.3173L11.6815 94.1723C11.1646 94.2776 10.8051 94.7046 10.9258 95.0701L15.1202 107.765C15.2289 108.094 15.5421 108.353 15.9863 108.398C16.4416 108.444 17.051 108.282 17.6663 107.449C18.885 105.799 18.0728 101.997 18.8003 99.7087C18.8148 99.6625 18.8148 99.6128 18.7994 99.5658L16.8695 93.7239C16.7617 93.3944 16.3389 93.2215 15.8716 93.3173Z" fill="#C1275F"/>
<path d="M16.1861 99.5139C16.2126 99.4035 16.3555 99.3188 16.4907 99.3325C17.1258 99.3993 18.7279 99.7339 18.9752 101.41C18.9898 101.507 18.8888 101.61 18.7578 101.636L18.7536 101.636C18.6269 101.661 18.5208 101.606 18.5062 101.511C18.2794 100.01 16.875 99.7399 16.3453 99.6911C16.2323 99.6808 16.1647 99.6055 16.1861 99.5139Z" fill="white"/>
<path d="M16.1038 101.003C16.1303 100.893 16.2732 100.808 16.4085 100.823C17.0435 100.89 18.6456 101.224 18.8929 102.901C18.9075 102.998 18.8056 103.1 18.6756 103.126L18.6713 103.127C18.5446 103.152 18.4376 103.096 18.4239 103.002C18.1972 101.501 16.7927 101.23 16.263 101.182C16.15 101.171 16.0815 101.096 16.1038 101.003Z" fill="white"/>
<path d="M16.0235 102.389C16.05 102.279 16.1929 102.194 16.3281 102.209C16.9632 102.275 18.5653 102.61 18.8126 104.287C18.8272 104.383 18.7262 104.486 18.5952 104.512L18.591 104.513C18.4643 104.537 18.3582 104.482 18.3436 104.388C18.1168 102.886 16.7124 102.616 16.1827 102.567C16.0697 102.557 16.0021 102.481 16.0235 102.389Z" fill="white"/>
<path d="M75.965 22.582L71.4316 29.6118L76.0377 29.4407L77.6475 29.5168L79.9506 25.5158L75.965 22.582Z" fill="#FFC0BB"/>
<path d="M78.4531 28.1177L79.9508 25.5159L75.9652 22.583L75.1265 23.8839C75.5912 25.0298 76.554 26.7526 78.4531 28.1177Z" fill="#F99893"/>
<path d="M72.4362 24.9658L74.3558 25.0856L77.9332 29.8971L77.9923 31.1312C77.9923 31.1312 75.9528 31.958 75.7876 31.5104C75.6233 31.0628 71.6206 26.0082 71.6206 26.0082L72.4362 24.9658Z" fill="#FFC0BB"/>
<path d="M95.9023 72.8238C95.7525 70.8442 93.2886 68.1561 90.5431 66.8672C82.0849 60.7617 67.2174 56.6597 67.2174 56.6597L61.0751 54.4585L55.8623 55.6592C55.8623 55.6592 48.782 70.923 67.7463 73.6282L82.1765 75.6206C82.3776 75.6506 83.0606 75.7473 83.2985 75.7002C83.2985 75.7002 77.0056 87.7246 71.5539 99.3768C71.5539 99.3768 75.8861 101.393 79.0056 101.752C79.0056 101.752 85.3713 92.9538 89.9277 86.3065C94.4833 79.6576 96.0521 74.8033 95.9023 72.8238Z" fill="#FEB546"/>
<path d="M70.716 24.7898C71.3262 24.8069 71.9278 24.8574 72.4379 24.9652C72.4379 24.9652 72.6887 29.0732 77.9349 29.8965C77.9349 29.8965 80.0437 34.2886 78.0872 40.0424C76.1308 45.7961 72.4448 58.4804 72.4448 58.4804C72.4448 58.4804 58.3475 59.3157 55.8647 55.6587C57.7861 43.6548 59.2667 35.1547 61.7957 30.1284C63.4833 26.7719 66.9606 24.6871 70.716 24.7898Z" fill="#FF5B7E"/>
<path d="M78.5464 38.41C75.438 34.3962 69.2016 28.4961 69.2016 28.4961C66.2139 33.3512 64.2583 36.9269 64.2583 36.9269C70.0232 42.5189 75.9027 45.7847 76.1946 45.9482C76.9041 41.7058 78.5464 38.41 78.5464 38.41Z" fill="white"/>
<path d="M77.2093 15.2753C77.2093 15.2753 78.8696 12.078 79.2137 11.9855C79.5577 11.894 83.4466 12.3835 83.6708 12.3972C83.8959 12.4109 84.7774 14.9732 84.7774 14.9732C84.7774 14.9732 85.3329 16.6986 85.2276 16.7482C85.1223 16.7979 82.6695 17.9267 82.5797 17.9164C82.4898 17.907 78.8944 17.6922 78.8944 17.6922C78.8944 17.6922 76.2054 17.8711 76.3663 17.5382C76.5281 17.2078 77.2093 15.2753 77.2093 15.2753Z" fill="#FFC0BB"/>
<path d="M87.1634 15.2017C87.1634 15.2017 87.4261 17.6109 87.0136 19.4749C86.8655 20.145 86.8886 20.8425 87.0564 21.5075L87.4775 23.1746C87.5588 23.4956 87.3003 23.8011 86.9708 23.7746L85.8171 23.683C85.8171 23.683 83.1589 27.874 81.7947 28.088C80.4305 28.3019 77.7441 27.4444 75.3375 21.5109C75.3375 21.5109 73.1431 21.3902 73.4067 18.8347C73.6703 16.2792 76.3448 17.2959 76.6418 18.1783C76.6426 18.1783 82.1046 12.6 87.1634 15.2017Z" fill="#FFC0BB"/>
<path d="M85.5551 20.2675C85.4584 20.6389 85.1408 20.8769 84.8464 20.799C84.552 20.7211 84.392 20.3557 84.4896 19.9842C84.5863 19.6128 84.9038 19.3749 85.1982 19.4528C85.4926 19.5306 85.6526 19.8961 85.5551 20.2675Z" fill="#333333"/>
<path d="M86.6124 18.8038C86.3856 18.6464 86.1451 18.5197 85.896 18.423C85.6461 18.3289 85.3851 18.2707 85.1232 18.2587C84.5815 18.2279 84.08 18.4221 83.6016 18.6789C84.0029 18.2792 84.5721 18.0439 85.1301 18.0721C85.4193 18.0849 85.7043 18.162 85.9577 18.2903C86.1939 18.4084 86.4549 18.601 86.6124 18.8038Z" fill="#333333"/>
<path d="M83.4891 23.7646C83.2255 24.5041 83.5396 25.3796 84.2748 25.8606C84.5795 25.4712 84.8619 25.0843 85.1007 24.7454L83.4891 23.7646Z" fill="white"/>
<path d="M90.3685 11.2121C89.2893 10.186 87.1283 8.97923 84.7842 8.39042C85.4192 8.14052 85.8231 7.91801 85.7085 7.78364C84.7739 6.6916 80.6206 7.98733 79.2863 8.44006C79.1331 8.09516 78.576 7.0151 77.6833 7.24789C76.6247 7.52347 78.2371 8.70451 78.2371 8.70451C78.2371 8.70451 76.9259 8.55303 76.4723 9.16324C76.1369 9.61426 76.9396 9.70241 77.3812 9.71782C77.2383 9.7298 77.0303 9.78457 76.7941 9.90439C76.7941 9.90439 74.6905 10.9425 74.6623 11.8189C74.6554 12.0303 74.8257 12.0885 75.0868 12.0551C74.6751 12.875 73.9434 14.4394 74.2035 14.7261C74.3525 14.8905 74.5459 14.8331 74.7205 14.7107C74.6477 16.0912 74.771 17.2166 74.771 17.2166C76.3619 17.3193 77.2648 19.2672 77.2648 19.2672C77.3872 17.131 79.7964 13.5922 79.7964 13.5922C79.7964 13.5922 85.0871 17.3869 84.5172 15.4425C84.5172 15.4425 90.8503 19.3356 90.1631 15.6975C90.1631 15.6975 92.8179 16.1152 90.3325 12.8219C90.3334 12.8219 92.3001 13.0487 90.3685 11.2121Z" fill="#07085B"/>
<path d="M102.231 41.1929C102.166 41.3196 102.266 41.4694 102.409 41.454C103.506 41.3367 106.962 40.9901 107.055 41.2623C107.166 41.5866 104.086 41.9717 104.018 42.2816C103.949 42.5922 106.944 42.1403 107.007 42.5058C107.069 42.8712 104.326 43.1913 104.298 43.3548C104.271 43.5182 106.933 43.4926 107.099 43.6851C107.265 43.8777 104.427 44.2508 104.338 44.44C104.249 44.6291 106.293 45.0228 106.279 45.2017C106.266 45.3805 106.088 45.5962 101.231 46.0284L97.4927 46.2338L97.9035 45.2496L97.4927 42.8781C97.4927 42.8781 102.708 38.9062 102.959 38.9695C103.197 39.032 103.234 39.2417 102.231 41.1929Z" fill="#FFC0BB"/>
<path d="M69.3431 28.305C69.3431 28.305 80.2344 41.0963 82.3089 41.4574C84.3835 41.8186 97.6762 42.5375 97.6762 42.5375C98.1315 43.8537 98.4225 45.4131 98.2368 46.7764C98.2368 46.7764 84.0018 47.663 79.9503 47.3258C75.8996 46.9886 64.0481 36.9369 64.0481 36.9369C59.1253 31.3372 64.832 24.4623 69.3431 28.305Z" fill="#FF5B7E"/>
<path d="M279.741 33.9015C280.144 35.1476 279.357 35.5567 279.767 36.8165L277.745 36.7326C275.219 37.983 272.319 39.5783 272.734 39.0314C273.226 38.2338 274.886 37.1203 273.076 37.8024C269.624 39.0742 272.726 37.4224 273.435 36.7369C271.415 37.2496 269.135 38.1122 273.021 35.9444C273.979 35.1476 269.818 36.8696 270.34 36.2833C273.894 33.9033 275.247 34.8113 272.95 33.3427C270.229 31.4907 278.292 34.2353 279.741 33.9015Z" fill="#F7B2AD"/>
<path d="M316.5 30.7247C316.5 30.7247 317.849 26.1546 307.794 27.0823C304.173 27.4161 297.583 31.958 295.766 32.2378C283.071 32.7941 277.627 33.0449 277.627 33.0449C277.627 33.0449 277.114 35.2931 277.783 37.3762C277.783 37.3762 293.326 38.8346 297.107 38.6737C307.117 38.2483 316.3 34.7865 316.5 30.7247Z" fill="#00ABA1"/>
<path d="M334.192 105.216C334.583 106.399 335.755 107.996 334.846 108.155C328.875 110.555 326.923 112.395 331.107 106.526C331.106 106.527 332.782 106.868 334.192 105.216Z" fill="#07085B"/>
<path d="M282.711 105.849C281.974 106.853 281.349 108.732 280.692 108.083C275.28 104.601 272.65 104.073 279.857 104.09C279.857 104.091 280.548 105.656 282.711 105.849Z" fill="#07085B"/>
<path d="M304.176 51.9438C281.906 84.0657 288.687 72.9091 279.712 104.094C279.712 104.094 280.648 106.114 282.71 105.848C282.71 105.848 293.739 82.9814 294.861 80.8692C295.982 78.757 311.934 66.6445 311.934 66.6445L304.176 51.9438Z" fill="#E03268"/>
<path d="M302.641 56.522C315.958 93.2705 310.781 81.2846 331.026 106.645C331.026 106.645 333.215 107.051 334.192 105.214C334.192 105.214 321.921 82.9894 320.846 80.8532C319.772 78.7162 319.12 58.6975 319.12 58.6975L302.641 56.522Z" fill="#FF5B7E"/>
<path d="M310.804 23.0504C310.804 23.0504 303.904 22.0037 301.917 25.3526C299.931 28.7014 300.694 58.9328 300.694 58.9328L305.411 58.8814C311.301 24.5267 311.291 26.9162 310.804 23.0504Z" fill="#07085B"/>
<path d="M326.64 40.1964L315.229 25.2031L318.099 31.259L325.824 41.2953L326.64 40.1964Z" fill="#4F2305"/>
<path d="M302.959 24.2271C302.959 24.2271 301.25 24.2279 300.079 26.139C298.908 28.0492 298.519 52.0142 298.687 59.1535C298.687 59.1535 300.154 60.2062 301.598 60.1026C301.598 60.1026 300.548 29.5315 302.959 24.2271Z" fill="#00ABA1"/>
<path d="M304.919 18.25L301.517 20.5257L303.41 25.3816C303.41 25.3816 307.051 26.3025 308.087 23.189L304.919 18.25Z" fill="#FFC0BB"/>
<path d="M302.416 22.8357L301.516 20.5266L304.918 18.251L306.015 19.9618C305.677 21.0521 304.78 22.4719 302.416 22.8357Z" fill="#F99893"/>
<path d="M312.205 23.0961C307.028 21.5402 304.52 28.1635 304.337 36.4291C304.247 45.4915 304.407 59.7299 304.406 59.7411C304.406 59.7411 314.808 60.7338 319.75 58.9143C319.676 57.349 322.287 26.1258 312.205 23.0961Z" fill="#02CCC0"/>
<path d="M304.521 33.369C304.451 34.0622 304.4 34.7751 304.368 35.5034C306.012 35.3656 310.268 34.6125 312.45 33.4905C312.45 33.4914 309.114 33.268 304.521 33.369Z" fill="white"/>
<path d="M300.799 25.2344C300.799 25.2344 296.243 33.4452 308.151 53.1832L306.83 54.4019C306.83 54.4019 297.201 38.6367 298.761 28.27C298.87 27.5511 299.22 25.5895 300.799 25.2344Z" fill="#4F2305"/>
<path d="M296.885 16.2323C297.473 17.902 295.629 18.5045 294.974 17.0136C294.387 15.3448 296.23 14.7423 296.885 16.2323Z" fill="#F99893"/>
<path d="M296.878 19.4935C291.67 7.77037 306.303 5.7275 306.778 14.5871C309.72 13.5438 308.507 18.7438 306.284 17.3095C305.656 22.5437 299.298 23.6726 296.878 19.4935Z" fill="#FFC0BB"/>
<path d="M300.028 14.5405C300.144 16.0536 298.523 17.5171 300.616 17.506C298.755 16.9257 300.754 16.6185 300.028 14.5405Z" fill="#F99893"/>
<path d="M299.148 14.2844C298.384 13.569 296.951 13.794 296.548 14.946C297.199 14.3914 298.15 14.0371 299.148 14.2844Z" fill="#F46C0F"/>
<path d="M334.499 56.0099C312.572 70.6771 319.162 71.3969 308.118 56.5234L328.603 42.1968C334.93 51.5604 337.683 53.2747 334.499 56.0099Z" fill="#4F2305"/>
<path d="M330.194 45.1375C330.189 45.1392 313.207 57.019 310.653 58.8034C309.187 59.756 309.186 59.2921 307.031 56.2265C304.662 53.1344 305.503 54.7827 324.775 40.8207C326.797 39.4813 327.139 38.4997 328.817 41.2452C330.07 43.1879 331.373 44.1251 330.194 45.1375Z" fill="#632D07"/>
<path d="M323.868 48.5294L316.396 53.7549L317.379 55.1611L324.852 49.9356L323.868 48.5294Z" fill="#FEB546"/>
<path d="M309.649 9.25963C309.871 9.1672 310.074 9.03626 310.238 8.86595C309.601 9.12698 308.88 9.27589 308.095 8.9986C308.012 8.31907 307.521 5.3656 305.304 5.60352C305.304 5.60352 301.506 1.99363 298.257 5.61807C297.656 5.19957 297.183 4.44131 297.246 3.56836C296.982 4.3369 297.256 5.26376 297.973 5.85343C297.49 5.70793 294.457 4.92913 294.277 8.36101C293.867 8.51506 291.362 10.1429 295.317 12.742C294.478 12.8019 293.481 12.5161 292.64 12.0128C293.274 12.861 294.443 13.3026 295.574 13.0561C294.958 13.3839 294.187 13.5302 293.378 13.5559C294.288 13.9145 295.44 13.7527 296.277 13.0458C296.983 13.1648 297.921 13.1049 298.924 12.4348C298.924 12.4348 300.051 13.5645 302.435 12.2704C302.435 12.2704 303.055 13.2016 305.506 12.1643L305.904 15.4096C305.904 15.4096 306.841 14.1362 307.892 14.4905C307.892 14.4905 309.043 11.1322 308.417 9.60111C308.714 9.75773 309.197 9.87754 309.664 9.75773C309.265 9.68669 308.775 9.57971 308.349 9.27932C308.673 9.394 309.188 9.44877 309.649 9.25963Z" fill="#F46C0F"/>
<path d="M301.696 15.1736C301.703 15.426 301.915 15.6246 302.168 15.6169C302.421 15.6092 302.621 15.3986 302.613 15.1462C302.605 14.8937 302.394 14.6952 302.141 14.7029C301.887 14.7106 301.688 14.9211 301.696 15.1736Z" fill="#333333"/>
<path d="M297.763 15.5466C297.771 15.7991 297.982 15.9976 298.235 15.9899C298.489 15.9822 298.688 15.7717 298.68 15.5192C298.673 15.2667 298.461 15.0682 298.208 15.0759C297.955 15.0836 297.755 15.2941 297.763 15.5466Z" fill="#333333"/>
<path d="M301.137 14.1311C301.371 14.0635 301.592 14.0121 301.81 13.9822C302.028 13.9522 302.241 13.9505 302.448 13.9796C302.653 14.0104 302.86 14.0584 303.058 14.1525C303.163 14.1867 303.255 14.2509 303.361 14.298C303.464 14.3511 303.558 14.4178 303.673 14.47C303.617 14.363 303.551 14.2578 303.474 14.1619C303.388 14.0746 303.308 13.9753 303.2 13.9077C303.001 13.7511 302.749 13.6595 302.493 13.6227C302.236 13.5877 301.973 13.6202 301.738 13.7092C301.505 13.8008 301.29 13.9385 301.137 14.1311Z" fill="#F46C0F"/>
<path d="M299.076 18.9723C299.361 19.7109 300.191 20.1696 301.075 20.0259C301.958 19.8821 302.598 19.1837 302.631 18.3921L299.076 18.9723Z" fill="white"/>
<path d="M211.559 96.1395C210.602 91.6096 212.935 87.0985 216.188 84.1494C219.442 81.201 220.173 77.8188 213.479 75.247C209.845 73.2718 203.928 71.8562 198.684 69.1569C198.687 69.1475 198.688 69.1372 198.688 69.1252C200.216 66.6151 204.144 54.3536 208.38 46.7555C208.533 46.5587 208.672 46.3713 208.787 46.1993C210.045 44.3181 213.032 46.4714 216.55 49.7107C219.007 51.9744 223.255 54.2988 228.163 51.7776C233.071 49.2563 234.537 44.3917 232.925 39.9774C231.314 35.5638 226.002 33.6203 222.593 32.9467C219.186 32.274 217.708 29.3488 220.084 24.9789C222.442 20.6399 231.147 9.75628 232.642 6.65304C232.644 6.65132 232.645 6.64961 232.648 6.64876C237.625 9.56799 242.337 13.8394 245.823 15.7351C251.622 19.9535 254.062 17.5007 254.767 13.1659C255.471 8.83198 257.987 4.42017 262.31 2.75986C266.633 1.09955 272.369 3.54723 274.34 8.94409C276.152 13.9096 273.051 18.1503 269.77 22.0161C266.49 25.8818 267.806 27.8006 272.225 30.0848C276.644 32.369 288.468 36.4359 292.184 38.9281V38.929C292.202 38.9504 292.184 38.9735 292.15 38.9974C290.655 42.0998 281.951 52.9843 279.593 57.3233C277.218 61.6932 278.694 64.6184 282.102 65.2911C285.51 65.9638 290.822 67.9074 292.433 72.3218C294.044 76.7353 292.58 81.5998 287.672 84.122C282.763 86.6441 278.516 84.3188 276.058 82.0551C272.541 78.8167 269.554 76.6626 268.296 78.5437C268.181 78.7148 268.041 78.9031 267.888 79.1C263.653 86.698 259.724 98.9595 258.197 101.47C258.195 101.511 258.186 101.538 258.158 101.536C258.158 101.536 258.158 101.536 258.158 101.536C254.045 99.7725 244.201 92.0632 239.88 89.5976C235.56 87.1311 232.54 87.3168 231.775 91.9263C230.944 96.9278 228.509 100.634 223.25 102.947C218.562 105.007 212.517 100.669 211.559 96.1395Z" fill="#FEB546"/>
<path d="M276.833 30.6444C277.13 31.9204 276.311 32.261 276.614 33.5508L274.606 33.2966C271.983 34.3296 268.959 35.6749 269.419 35.164C269.977 34.4109 271.723 33.4404 269.862 33.9684C266.315 34.9449 269.545 33.5602 270.31 32.9371C268.255 33.2777 265.909 33.9444 269.965 32.1121C270.986 31.3992 266.695 32.7643 267.265 32.2242C271.006 30.1523 272.278 31.1715 270.113 29.5138C267.559 27.4401 275.361 30.854 276.833 30.6444Z" fill="#FFC0BB"/>
<path d="M315.448 31.1425C315.448 31.1425 315.337 23.4477 308.589 24.7888C304.298 25.642 295.995 27.9596 295.995 27.9596L275.047 29.8125C275.047 29.8125 274.357 32.249 275.054 33.9547C275.054 33.9547 311.158 38.8561 315.448 31.1425Z" fill="#02CCC0"/>
</svg>
