<svg width="80" height="145" viewBox="0 0 80 145" fill="none" xmlns="http://www.w3.org/2000/svg">
<path d="M12.6193 36.7375C13.5144 34.5753 13.8863 32.4608 13.7176 30.4543C13.3285 25.7971 14.1976 22.809 14.9933 21.1225C15.8538 19.302 16.8181 18.5669 16.8268 18.5582L16.4938 18.1042C16.4506 18.1345 15.43 18.9085 14.509 20.8371C13.6701 22.5928 12.7576 25.689 13.1598 30.5019C13.4582 34.091 11.8885 37.4985 10.1717 40.0801C10.0852 40.2099 10.1198 40.3828 10.2496 40.4693C10.3793 40.5558 10.5566 40.5212 10.6431 40.3915C11.456 39.1634 12.1177 37.9439 12.6193 36.7375Z" fill="#01008A"/>
<path d="M17.1721 18.3161C17.2542 18.1993 17.3926 18.1388 17.5353 18.1517C17.8077 18.1777 18.0758 18.1863 18.3439 18.1863C18.3742 18.1344 18.4002 18.0782 18.4304 18.0263C18.4218 18.022 18.4131 18.0177 18.4045 18.0134C17.025 17.4253 15.8748 16.461 15.0229 15.2545C14.0802 13.914 13.5051 12.2751 13.4013 10.5324C13.3408 9.51185 13.4402 8.45673 13.717 7.4016C13.7732 7.18107 13.8424 6.96918 13.9116 6.75729C14.3094 5.57676 14.9105 4.52164 15.6542 3.62652C16.5537 2.54977 17.6607 1.70222 18.8845 1.15303C19.7709 0.7552 20.718 0.521689 21.6823 0.461149C21.4617 0.383312 21.2369 0.3098 21.0077 0.24926C20.4931 0.110883 19.9742 0.0373708 19.4596 0.0114252C18.1753 -0.0577632 16.904 0.18872 15.7364 0.711957C14.5126 1.26114 13.4056 2.10437 12.5062 3.18544C11.7624 4.08056 11.1613 5.13569 10.7635 6.31621C10.69 6.5281 10.6251 6.73999 10.5646 6.96053C10.2835 8.01565 10.184 9.07077 10.2489 10.0913C10.3527 11.834 10.9278 13.4729 11.8705 14.8134C12.6748 15.955 13.7516 16.8761 15.0315 17.4728C15.0315 17.4728 15.7537 17.7755 15.6326 18.4934C15.6023 18.6663 15.6888 18.8436 15.8488 18.9128C15.9483 18.9561 16.0564 19.0123 16.1602 19.0858C16.3418 19.2112 16.5883 19.1679 16.7137 18.9907L17.1721 18.3161Z" fill="#DE8500"/>
<path d="M21.8775 17.3388C23.3089 16.6296 24.5716 15.5096 25.497 14.0826C26.0461 13.2351 26.4786 12.2751 26.7553 11.2329C26.8072 11.0297 26.8548 10.8308 26.8937 10.6275C27.1359 9.42106 27.1488 8.22324 26.9586 7.08596C26.7251 5.70651 26.1975 4.4222 25.4235 3.33681C24.4981 2.03521 23.2181 1.01468 21.683 0.456848C20.7143 0.517388 19.7716 0.755223 18.8852 1.14873C17.6614 1.69791 16.5544 2.54115 15.6549 3.62221C14.9111 4.51734 14.3101 5.57246 13.9122 6.75299C13.8387 6.96488 13.7739 7.17677 13.7176 7.3973C13.4366 8.45243 13.3371 9.50755 13.402 10.5281C13.5058 12.2708 14.0809 13.9097 15.0236 15.2502C15.8755 16.4567 17.0257 17.421 18.4052 18.0091C18.4138 18.0134 18.4225 18.0177 18.4311 18.022C18.4008 18.0783 18.3749 18.1301 18.3446 18.182C19.5727 18.1777 20.7749 17.8837 21.8775 17.3388Z" fill="#F29305"/>
<g opacity="0.32">
<path opacity="0.32" d="M22.2451 2.61463C22.3878 2.52382 22.5781 2.52814 22.7164 2.64058C24.364 3.9638 25.4451 5.79729 25.7521 7.80808C26.0634 9.83184 25.5575 11.7864 24.3337 13.3172C24.191 13.4945 23.9359 13.5204 23.7629 13.3821C23.5856 13.2437 23.5597 12.9842 23.7024 12.8113C24.7834 11.4621 25.2288 9.72806 24.9521 7.93348C24.6753 6.12594 23.698 4.46974 22.2105 3.27624C22.0332 3.13787 22.0073 2.87841 22.15 2.70544C22.1716 2.66652 22.2062 2.63625 22.2451 2.61463Z" fill="white"/>
</g>
<path d="M10.9242 36.4478C10.7382 34.9343 10.2712 33.6154 9.53177 32.53C7.81503 30.0132 7.35233 28.0371 7.26152 26.8263C7.16639 25.516 7.47774 24.7895 7.47774 24.7852L7.14477 24.6339C7.1318 24.6641 6.79883 25.4295 6.89396 26.8219C6.98045 28.0846 7.45612 30.1386 9.22907 32.7375C10.548 34.6748 10.7512 37.1137 10.6042 39.1288C10.5955 39.2283 10.6734 39.3148 10.7728 39.3234C10.8723 39.332 10.9631 39.2542 10.9717 39.1504C11.0409 38.1991 11.028 37.291 10.9242 36.4478Z" fill="#01008A"/>
<path d="M7.59879 24.5344C7.60744 24.4436 7.66798 24.3614 7.75014 24.3268C7.91014 24.2533 8.07014 24.1755 8.22149 24.0847C8.22149 24.0457 8.21716 24.0068 8.21716 23.9679C8.20851 23.9679 8.20419 23.9679 8.19554 23.9679C7.2269 24.076 6.26259 23.8987 5.39341 23.4879C4.4291 23.0295 3.57722 22.2858 2.95885 21.3301C2.59561 20.7723 2.31453 20.1409 2.13291 19.4534C2.09832 19.3063 2.06805 19.1636 2.03778 19.0209C1.88643 18.2253 1.88643 17.4339 2.0248 16.6858C2.18913 15.7864 2.54804 14.9518 3.06263 14.2469C3.43884 13.7367 3.89721 13.2999 4.4291 12.954C4.27775 12.9799 4.13072 13.0102 3.97937 13.0491C3.64208 13.1442 3.32641 13.2653 3.02371 13.4167C2.27129 13.7886 1.63129 14.3377 1.13833 15.008C0.619415 15.7129 0.264825 16.5474 0.100503 17.4469C-0.0335496 18.195 -0.0378738 18.9863 0.113476 19.782C0.139421 19.9247 0.169691 20.0674 0.20861 20.2101C0.390229 20.8977 0.671307 21.529 1.03455 22.0868C1.65292 23.0425 2.5048 23.7863 3.46911 24.2447C4.29072 24.6338 5.19882 24.8111 6.11556 24.7419C6.11556 24.7419 6.6215 24.6814 6.7815 25.1311C6.82042 25.2392 6.9242 25.3127 7.03663 25.2998C7.10582 25.2911 7.18798 25.2911 7.26582 25.2998C7.40852 25.3127 7.53393 25.209 7.5469 25.0663L7.59879 24.5344Z" fill="#22D1B0"/>
<path d="M9.95552 22.476C10.5393 21.6155 10.8982 20.5734 10.9674 19.4664C11.0063 18.8091 10.9458 18.1258 10.7685 17.4426C10.7339 17.3129 10.695 17.1831 10.6517 17.0534C10.4009 16.2923 10.0247 15.6091 9.55336 15.0253C8.97823 14.3161 8.26905 13.7583 7.47771 13.3908C6.53502 12.9497 5.48422 12.781 4.43342 12.954C3.90586 13.2999 3.44316 13.7367 3.06695 14.247C2.54804 14.9518 2.19345 15.7864 2.02913 16.6858C1.89075 17.4339 1.89075 18.2253 2.0421 19.021C2.06804 19.1637 2.09831 19.3064 2.13723 19.4491C2.31885 20.1366 2.59993 20.768 2.96317 21.3258C3.58154 22.2815 4.43342 23.0252 5.39773 23.4836C6.26691 23.8944 7.23122 24.0717 8.19986 23.9636C8.20851 23.9636 8.21283 23.9636 8.22148 23.9636C8.22148 24.0025 8.22581 24.0414 8.22581 24.0804C8.91769 23.6868 9.50579 23.1377 9.95552 22.476Z" fill="#23D9B7"/>
<g opacity="0.2">
<path opacity="0.2" d="M5.441 14.0005C5.49289 13.9053 5.601 13.8448 5.71775 13.8621C7.0799 14.0826 8.27772 14.7788 9.09933 15.821C9.92527 16.8674 10.2669 18.1388 10.0593 19.4015C10.0377 19.5442 9.89932 19.6436 9.75662 19.622C9.61392 19.6004 9.51446 19.462 9.53608 19.3193C9.7177 18.208 9.415 17.0793 8.67988 16.1496C7.94043 15.2112 6.85936 14.5886 5.63127 14.3853C5.48857 14.3637 5.38911 14.2253 5.41073 14.0826C5.41505 14.0567 5.4237 14.0264 5.441 14.0005Z" fill="#FDE2DE"/>
</g>
<path d="M45.9984 112.477C48.3855 112.477 50.3161 110.717 50.3161 108.551V84.8061C50.3161 82.6353 48.3807 80.8796 45.9984 80.8796C43.6113 80.8796 41.6807 82.6396 41.6807 84.8061V108.551C41.6759 110.717 43.6113 112.477 45.9984 112.477Z" fill="#01008A"/>
<path d="M35.499 112.477C33.1119 112.477 31.1813 110.717 31.1813 108.551V84.8061C31.1813 82.6353 33.1166 80.8796 35.499 80.8796C37.8861 80.8796 39.8166 82.6396 39.8166 84.8061V108.551C39.8214 110.717 37.8861 112.477 35.499 112.477Z" fill="#01008A"/>
<path d="M44.7668 75.3835C44.7668 75.3835 46.802 77.0786 48.8943 80.3175C52.513 85.9174 48.1525 93.0222 41.0055 93.1606C40.8533 93.1649 40.7059 93.1649 40.5537 93.1649C33.635 93.1779 29.089 86.5574 32.1181 80.9013C33.0311 79.1932 34.1771 77.3337 35.6036 75.3835H44.7668Z" fill="#01008A"/>
<path d="M43.5733 48.6552C43.5733 48.6552 42.9361 50.3546 44.4482 51.7643C45.9604 53.1697 46.802 56.0497 44.8714 57.135L40.1543 56.4475L40.3683 50.8346L43.5733 48.6552Z" fill="#141370"/>
<path d="M37.6198 46.8779C37.6198 46.8779 38.2427 54.6356 36.3311 56.4475C34.4195 58.2637 28.7181 54.7091 31.7947 51.2627C31.7947 51.2627 32.8979 49.853 34.8618 49.3297C36.8257 48.8065 36.3216 47.2584 36.3216 47.2584L37.6198 46.8779Z" fill="#141370"/>
<path d="M41.966 56.4518H36.3311L37.2489 48.6552H40.8248L41.966 56.4518Z" fill="#DC85E6"/>
<path d="M44.7668 75.3835H35.6083L30.3539 64.9015C28.371 60.9448 31.5522 56.4475 36.3311 56.4475H44.4101C49.2652 56.4475 52.4416 61.0745 50.3161 65.0398L44.7668 75.3835Z" fill="#F29305"/>
<path d="M40.1543 51.2627C38.2427 51.2627 36.683 49.84 36.683 48.106V45.8876C36.683 44.1493 38.2475 42.7309 40.1543 42.7309C42.0659 42.7309 43.6256 44.1536 43.6256 45.8876V48.106C43.6303 49.8443 42.0659 51.2627 40.1543 51.2627Z" fill="#F493FE"/>
<path d="M41.0198 46.2163C41.0198 46.2163 40.7582 46.7612 41.2813 47.4314C41.8044 48.106 42.0231 48.8628 40.8771 48.9276" stroke="#C53CCF" stroke-width="0.172928" stroke-miterlimit="10" stroke-linecap="round" stroke-linejoin="round"/>
<path d="M39.3745 46.7265C39.3745 46.839 39.2746 46.9341 39.1462 46.9341C39.0226 46.9341 38.918 46.8433 38.918 46.7265C38.918 46.6141 39.0178 46.519 39.1462 46.519C39.2746 46.519 39.3745 46.6141 39.3745 46.7265Z" fill="#4A4185"/>
<path d="M42.3655 46.7265C42.3655 46.839 42.2656 46.9341 42.1372 46.9341C42.0136 46.9341 41.909 46.8433 41.909 46.7265C41.909 46.6141 42.0088 46.519 42.1372 46.519C42.2608 46.519 42.3655 46.6141 42.3655 46.7265Z" fill="#4A4185"/>
<path d="M39.151 48.3308C39.4766 48.3308 39.7406 48.0908 39.7406 47.7946C39.7406 47.4985 39.4766 47.2584 39.151 47.2584C38.8253 47.2584 38.5613 47.4985 38.5613 47.7946C38.5613 48.0908 38.8253 48.3308 39.151 48.3308Z" fill="#D97EB0"/>
<path d="M43.3165 47.7946C43.3165 48.0887 43.055 48.3308 42.7268 48.3308C42.4035 48.3308 42.1372 48.093 42.1372 47.7946C42.1372 47.4963 42.3987 47.2584 42.7268 47.2584C43.0502 47.2584 43.3165 47.5006 43.3165 47.7946Z" fill="#D97EB0"/>
<path d="M39.7406 49.4163C39.7406 49.4163 40.9294 50.4238 42.142 49.3341" stroke="#C53CCF" stroke-width="0.172928" stroke-miterlimit="10" stroke-linecap="round" stroke-linejoin="round"/>
<path d="M36.4691 55.2972L39.5504 56.4518L41.7092 55.2972L41.966 56.4518H43.3165L39.7406 61.122L34.8618 56.5988L36.3312 56.4518L36.4691 55.2972Z" fill="#FBE3F9"/>
<path d="M36.3217 47.2584C36.3217 47.2584 40.9532 46.3287 41.2956 42.8217C41.2908 42.8217 35.7178 41.3688 36.3217 47.2584Z" fill="#141370"/>
<path d="M37.8718 47.5741C37.8718 48.1709 37.3392 48.6552 36.683 48.6552C36.0268 48.6552 35.4942 48.1709 35.4942 47.5741C35.4942 46.9774 36.0268 46.493 36.683 46.493C37.3392 46.493 37.8718 46.9774 37.8718 47.5741Z" fill="#D97EB0"/>
<path d="M37.13 49.6497C37.13 49.6497 38.6326 51.7037 41.1862 51.12L41.4239 52.7416C41.4239 52.7459 37.7292 52.8021 37.13 49.6497Z" fill="#D97EB0"/>
<path d="M36.3311 56.4518L38.9227 57.935L39.7406 56.3524L40.5157 57.935L41.966 56.4518" stroke="#7E07F3" stroke-width="0.216214" stroke-miterlimit="10" stroke-linecap="round" stroke-linejoin="round"/>
<path d="M17.8669 60.1577L32.8361 62.1166C33.9251 62.2593 35.0092 61.8528 35.6702 61.0528C37.13 59.2842 35.8033 56.7545 33.3735 56.6724L18.2616 56.1707C16.8921 56.1275 15.8079 57.2172 16.0028 58.454C16.136 59.3361 16.8968 60.028 17.8669 60.1577Z" fill="#F29305"/>
<path d="M13.592 42.6487L15.7651 47.0336L12.1702 48.2573L10.6438 43.7298L13.592 42.6487Z" fill="#FBE3F9"/>
<path d="M19.9972 57.2086C20.4394 58.268 19.8688 59.4572 18.718 59.8853C17.4627 60.3523 16.0409 59.7383 15.6462 58.5621L12.1702 48.2573L15.7651 47.0336L19.9972 57.2086Z" fill="#F29305"/>
<path d="M10.3061 42.6531C10.3061 42.6531 12.1939 42.6012 12.4887 41.5547C12.7218 40.7417 12.5981 38.852 12.0941 37.892C11.9514 37.6239 11.5139 37.6888 11.4711 37.9829L11.2286 39.7082L8.93189 37.0402C8.73217 36.8067 8.32323 36.9494 8.347 37.2434C8.39931 37.9266 8.51343 38.852 8.75595 39.5439C9.19342 40.7936 10.3061 42.6531 10.3061 42.6531Z" fill="#DC85E6"/>
<path d="M13.4731 42.9385L12.4935 41.559L10.0446 42.2033L10.6438 43.7298L13.4731 42.9385Z" fill="#DC85E6"/>
<path d="M59.3652 66.6788L45.2423 61.7577C44.2152 61.3988 43.4877 60.5642 43.3403 59.574C43.0122 57.3859 45.5276 55.76 47.6912 56.7675L61.1578 63.0291C62.3799 63.5956 62.7366 65.0312 61.9092 66.0258C61.31 66.7306 60.2781 66.9944 59.3652 66.6788Z" fill="#F29305"/>
<path d="M72.4751 53.2822L68.2288 56.1448L70.7157 58.8086L74.4723 55.5308L72.4751 53.2822Z" fill="#FBE3F9"/>
<path d="M59.0846 63.1588C58.1288 63.8896 57.9909 65.1782 58.7708 66.0647C59.6172 67.029 61.1864 67.1242 62.166 66.2723L70.7205 58.8129L68.2383 56.1492L59.0846 63.1588Z" fill="#F29305"/>
<path d="M75.3425 54.7438C75.3425 54.7438 73.721 53.8659 74.0205 52.8195C74.2535 52.0065 75.371 50.4108 76.3268 49.7925C76.5931 49.6195 76.945 49.8703 76.8213 50.1471L76.1081 51.7643L79.5413 50.4498C79.8409 50.3373 80.1214 50.64 79.9455 50.8865C79.5318 51.4616 78.9374 52.2184 78.3572 52.7157C77.3159 53.6108 75.3425 54.7438 75.3425 54.7438Z" fill="#DC85E6"/>
<path d="M72.4228 53.5848L74.0206 52.8151L75.8133 54.467L74.4723 55.5308L72.4228 53.5848Z" fill="#DC85E6"/>
<path d="M41.5523 109.134L44.0107 137.151L47.1016 137.19L50.3826 109.113C50.5348 106.799 48.5138 104.849 45.9651 104.849C43.4068 104.845 41.3859 106.812 41.5523 109.134Z" fill="#01008A"/>
<path d="M39.9451 109.134L36.0601 138.466L33.15 139.984L31.1148 109.113C30.9626 106.799 32.9835 104.849 35.5323 104.849C38.0858 104.845 40.1115 106.812 39.9451 109.134Z" fill="#01008A"/>
<path d="M45.618 73.7965L44.7668 75.3835L35.8794 76.0192L34.8143 73.7965H45.618Z" fill="#004145"/>
<path d="M44.8809 75.1672L46.2694 76.8753H34.5575L35.499 75.1672H44.8809Z" fill="#003033"/>
<path d="M43.9346 142.44L43.9156 143.902L56.474 144.053C56.474 144.053 56.4312 143.902 56.203 142.591L43.9346 142.44Z" fill="#01008A"/>
<path d="M56.1826 142.505C55.9401 141.112 51.7793 140.758 49.24 140.503C46.7008 140.248 47.1002 137.19 47.1002 137.19L44.0094 137.151L43.9333 142.44L56.1969 142.587C56.1921 142.561 56.1921 142.535 56.1826 142.505Z" fill="#BEBEFF"/>
<path d="M49.6789 142.509C49.6789 142.509 50.1734 141.463 51.6666 141.411C53.1597 141.359 55.2662 141.454 55.2662 141.454" stroke="#01008A" stroke-width="0.0864854" stroke-miterlimit="10"/>
<path d="M45.5752 137.169C45.5752 137.169 45.4943 140.286 46.7545 140.706C48.0146 141.13 49.7074 140.546 49.7074 140.546" stroke="#01008A" stroke-width="0.0864854" stroke-miterlimit="10"/>
<path d="M45.7368 139.006L47.6294 139.638" stroke="#01008A" stroke-width="0.0864854" stroke-miterlimit="10"/>
<path d="M47.3061 139.024L45.9699 139.819" stroke="#01008A" stroke-width="0.0864854" stroke-miterlimit="10"/>
<path d="M32.9122 143.296L32.8932 144.758L45.4515 144.909C45.4515 144.909 45.4087 144.758 45.1805 143.447L32.9122 143.296Z" fill="#01008A"/>
<path d="M45.1601 143.361C44.9176 141.969 40.7568 141.614 38.2176 141.359C35.6783 141.104 36.0778 138.046 36.0778 138.046L32.9869 138.008L32.9108 143.296L45.1744 143.443C45.1696 143.417 45.1649 143.387 45.1601 143.361Z" fill="#CECEFF"/>
<path d="M38.6564 143.365C38.6564 143.365 39.151 142.319 40.6441 142.267C42.1372 142.215 44.2437 142.31 44.2437 142.31" stroke="#01008A" stroke-width="0.0864854" stroke-miterlimit="10"/>
<path d="M34.5527 138.025C34.5527 138.025 34.4719 141.143 35.732 141.562C36.9921 141.986 38.6849 141.402 38.6849 141.402" stroke="#01008A" stroke-width="0.0864854" stroke-miterlimit="10"/>
<path d="M34.7096 139.863L36.6069 140.494" stroke="#01008A" stroke-width="0.0864854" stroke-miterlimit="10"/>
<path d="M36.2836 139.88L34.9474 140.676" stroke="#01008A" stroke-width="0.0864854" stroke-miterlimit="10"/>
</svg>
