<svg width="100" height="138" viewBox="0 0 100 138" fill="none" xmlns="http://www.w3.org/2000/svg">
<path d="M27.6179 53.6788C28.513 51.5167 28.8849 49.4021 28.7162 47.3956C28.327 42.7384 29.1962 39.7503 29.9919 38.0639C30.8524 36.2434 31.8167 35.5082 31.8254 35.4996L31.4924 35.0455C31.4492 35.0758 30.4286 35.8498 29.5076 37.7785C28.6687 39.5341 27.7562 42.6303 28.1584 47.4432C28.4568 51.0324 26.8871 54.4399 25.1703 57.0215C25.0838 57.1512 25.1184 57.3242 25.2482 57.4107C25.3779 57.4971 25.5552 57.4626 25.6417 57.3328C26.459 56.1047 27.1206 54.8853 27.6179 53.6788Z" fill="#01008A"/>
<path d="M32.1749 35.2531C32.2571 35.1363 32.3954 35.0758 32.5381 35.0888C32.8106 35.1147 33.0787 35.1234 33.3468 35.1234C33.3771 35.0715 33.403 35.0152 33.4333 34.9634C33.4246 34.959 33.416 34.9547 33.4073 34.9504C32.0279 34.3623 30.8776 33.398 30.0257 32.1915C29.0831 30.851 28.5079 29.2121 28.4041 27.4694C28.3436 26.4489 28.4431 25.3937 28.7198 24.3386C28.776 24.1181 28.8452 23.9062 28.9187 23.6943C29.3166 22.5138 29.9176 21.4587 30.6614 20.5635C31.5609 19.4868 32.6679 18.6392 33.8916 18.09C34.7781 17.6922 35.7251 17.4587 36.6894 17.3982C36.4689 17.3203 36.244 17.2468 36.0149 17.1863C35.5003 17.0479 34.9814 16.9744 34.4668 16.9484C33.1825 16.8792 31.9111 17.1257 30.7436 17.649C29.5198 18.1982 28.4128 19.0414 27.5133 20.1225C26.7696 21.0176 26.1685 22.0727 25.7707 23.2532C25.6971 23.4651 25.6323 23.677 25.5717 23.8975C25.2907 24.9527 25.1912 26.0078 25.2561 27.0283C25.3599 28.771 25.935 30.4099 26.8777 31.7504C27.682 32.892 28.7587 33.8131 30.0387 34.4098C30.0387 34.4098 30.7609 34.7125 30.6398 35.4304C30.6095 35.6033 30.696 35.7806 30.856 35.8498C30.9555 35.8931 31.0636 35.9493 31.1674 36.0228C31.349 36.1482 31.5955 36.105 31.7209 35.9277L32.1749 35.2531Z" fill="#E28902"/>
<path d="M36.8805 34.2801C38.3118 33.571 39.5745 32.451 40.4999 31.024C41.049 30.1764 41.4815 29.2164 41.7626 28.1743C41.8144 27.971 41.862 27.7721 41.9009 27.5689C42.1431 26.3624 42.1561 25.1646 41.9658 24.0273C41.7323 22.6479 41.2047 21.3636 40.4307 20.2782C39.5053 18.9766 38.2253 17.956 36.6902 17.3982C35.7215 17.4587 34.7789 17.6966 33.8924 18.0901C32.6686 18.6393 31.5616 19.4825 30.6621 20.5636C29.9184 21.4587 29.3173 22.5138 28.9195 23.6943C28.846 23.9062 28.7811 24.1181 28.7206 24.3386C28.4395 25.3938 28.34 26.4489 28.4049 27.4694C28.5087 29.2121 29.0838 30.851 30.0265 32.1915C30.8784 33.398 32.0286 34.3623 33.4081 34.9504C33.4167 34.9547 33.4254 34.9591 33.434 34.9634C33.4037 35.0196 33.3778 35.0715 33.3475 35.1234C34.5756 35.1191 35.7778 34.825 36.8805 34.2801Z" fill="#F29305"/>
<g opacity="0.32">
<path opacity="0.32" d="M37.2481 19.5516C37.3908 19.4608 37.5811 19.4652 37.7194 19.5776C39.367 20.9008 40.448 22.7343 40.7551 24.7451C41.0664 26.7689 40.5605 28.7234 39.3367 30.2542C39.194 30.4315 38.9389 30.4575 38.7659 30.3191C38.5929 30.1807 38.5627 29.9212 38.7054 29.7483C39.7864 28.3991 40.2318 26.6651 39.9551 24.8705C39.6783 23.0629 38.701 21.4068 37.2135 20.2133C37.0362 20.0749 37.0103 19.8154 37.153 19.6425C37.1746 19.6079 37.2092 19.5776 37.2481 19.5516Z" fill="white"/>
</g>
<path d="M26.4331 50.2712C25.7801 47.067 24.552 44.3297 22.7877 42.1373C18.6926 37.0476 17.3608 32.9093 16.9672 30.332C16.5391 27.5515 17.0797 25.9472 17.084 25.9299L16.3446 25.6661C16.3186 25.7353 15.7392 27.4261 16.1802 30.3839C16.5824 33.0693 17.9489 37.3719 22.178 42.6303C25.3304 46.548 26.1779 51.7242 26.2082 56.0528C26.2082 56.269 26.3855 56.442 26.6017 56.442C26.8179 56.442 26.9996 56.2604 26.9996 56.0398C26.9823 53.9901 26.7963 52.0572 26.4331 50.2712Z" fill="#01008A"/>
<path d="M17.3002 25.3764C17.3045 25.1775 17.417 25.0002 17.5899 24.9007C17.9229 24.7191 18.2429 24.5202 18.5542 24.3083C18.5456 24.2262 18.5369 24.1397 18.5283 24.0532C18.5153 24.0575 18.5023 24.0575 18.4851 24.0618C16.431 24.4553 14.3424 24.2478 12.4138 23.5126C10.2689 22.6997 8.32734 21.2511 6.83979 19.3138C5.97061 18.1808 5.25711 16.8792 4.75982 15.4392C4.65604 15.1409 4.56523 14.8382 4.48307 14.5398C4.02038 12.862 3.89064 11.1712 4.05496 9.5539C4.25388 7.60365 4.87657 5.75719 5.8625 4.16586C6.57601 3.01128 7.48844 1.9994 8.56086 1.17346C8.24519 1.2513 7.92952 1.34643 7.61817 1.45454C6.91331 1.70102 6.25602 2.01669 5.63765 2.38858C4.09388 3.31398 2.81822 4.58964 1.87552 6.10746C0.88959 7.69879 0.266898 9.54525 0.0679815 11.4955C-0.0963409 13.1128 0.0333962 14.8036 0.496093 16.4814C0.578255 16.7841 0.669057 17.0825 0.77284 17.3808C1.27446 18.8208 1.98796 20.1224 2.85281 21.2554C4.33604 23.1927 6.28197 24.6413 8.42681 25.4542C10.2516 26.1505 12.2192 26.3753 14.1651 26.064C14.1651 26.064 15.2375 25.8478 15.657 26.7775C15.7564 27.0023 15.9943 27.1364 16.2364 27.0931C16.3835 27.0672 16.5564 27.0456 16.7294 27.0499C17.0364 27.0542 17.2872 26.8121 17.2916 26.505L17.3002 25.3764Z" fill="#00DCEA"/>
<path d="M21.9833 20.5678C23.0904 18.6262 23.6742 16.343 23.6309 13.969C23.605 12.5549 23.3542 11.1063 22.8612 9.68363C22.7661 9.40687 22.6579 9.13877 22.5498 8.87499C21.8882 7.28798 20.9628 5.89124 19.8558 4.72801C18.5066 3.31397 16.8937 2.24155 15.1467 1.58859C13.0537 0.805896 10.7792 0.624276 8.56082 1.17778C7.4884 2.00372 6.58029 3.0156 5.86246 4.17018C4.87653 5.76151 4.25384 7.60798 4.05492 9.55822C3.8906 11.1755 4.02033 12.8663 4.48303 14.5441C4.56519 14.8425 4.656 15.1452 4.75978 15.4436C5.26139 16.8835 5.97057 18.1851 6.83975 19.3181C8.32298 21.2554 10.2689 22.704 12.4137 23.517C14.3424 24.2521 16.431 24.4597 18.485 24.0662C18.498 24.0618 18.511 24.0618 18.5283 24.0575C18.5369 24.144 18.5456 24.2262 18.5542 24.3126C19.9682 23.3397 21.1315 22.0597 21.9833 20.5678Z" fill="#13E7F5"/>
<g opacity="0.2">
<path opacity="0.2" d="M10.8873 3.23185C10.9824 3.01563 11.2072 2.87293 11.4537 2.89456C14.3986 3.13671 17.0839 4.4167 19.0125 6.50532C20.9541 8.60259 21.9012 11.2663 21.6763 13.995C21.6504 14.3063 21.3779 14.5398 21.0623 14.5139C20.7509 14.4879 20.5174 14.2155 20.5433 13.8998C20.7423 11.4912 19.899 9.1388 18.178 7.27504C16.4439 5.39831 14.0223 4.24373 11.3586 4.02751C11.0472 4.00157 10.8137 3.72914 10.8397 3.41347C10.8483 3.3486 10.8656 3.28806 10.8873 3.23185Z" fill="#FDE2DE"/>
</g>
<path d="M78.0433 72.8785L74.9355 94.8588C74.6865 96.6188 73.0296 97.9377 71.0615 97.9377C68.9066 97.9377 67.1588 96.3593 67.1588 94.4134L67.585 66.2581L72.2443 67.3305C75.6825 67.1143 78.479 69.791 78.0433 72.8785Z" fill="#01008A"/>
<path d="M72.1341 128.458L75.2611 134.923V93.7475C75.2611 91.7281 73.4462 90.0892 71.2099 90.0892C68.9737 90.0892 67.1588 91.7281 67.1588 93.7475L72.1341 128.458Z" fill="#01008A"/>
<path d="M78.0913 75.7455C83.8937 75.7455 88.5974 71.4979 88.5974 66.2581C88.5974 61.0183 83.8937 56.7706 78.0913 56.7706C72.2889 56.7706 67.5851 61.0183 67.5851 66.2581C67.5851 71.4979 72.2889 75.7455 78.0913 75.7455Z" fill="#002E8A"/>
<path d="M82.602 28.317L83.4592 36.9698H74.2747L75.5484 28.6153L82.602 28.317Z" fill="#DC85E6"/>
<path d="M76.8606 31.0109H79.0011C81.0171 31.0109 82.6691 29.5191 82.6691 27.6986V25.1213C82.6691 23.3008 81.0171 21.8089 79.0011 21.8089H76.8606C74.8446 21.8089 73.1925 23.3008 73.1925 25.1213V27.6986C73.1925 29.5191 74.8446 31.0109 76.8606 31.0109Z" fill="#F493FE"/>
<path d="M82.4393 28.8488C82.4393 28.8488 81.7977 30.7342 79.4273 30.985C77.0569 31.2358 75.2421 30.665 75.2421 30.665L74.8973 32.9223C74.8925 32.9266 82.061 33.9385 82.4393 28.8488Z" fill="#D97EB0"/>
<path d="M78.2971 24.9008C78.2971 25.0867 78.4647 25.2337 78.6658 25.2337C78.8669 25.2337 79.0346 25.0824 79.0346 24.9008C79.0346 24.7192 78.8669 24.5678 78.6658 24.5678C78.4647 24.5678 78.2971 24.7192 78.2971 24.9008Z" fill="#4A4185"/>
<path d="M75.6682 24.2132C75.6682 24.3992 75.8358 24.5462 76.0369 24.5462C76.2428 24.5462 76.4056 24.3948 76.4056 24.2132C76.4056 24.0316 76.238 23.8802 76.0369 23.8802C75.831 23.8802 75.6682 24.0273 75.6682 24.2132Z" fill="#4A4185"/>
<path d="M81.8695 28.3126C82.7475 28.3126 83.4593 27.6698 83.4593 26.8769C83.4593 26.0841 82.7475 25.4413 81.8695 25.4413C80.9915 25.4413 80.2797 26.0841 80.2797 26.8769C80.2797 27.6698 80.9915 28.3126 81.8695 28.3126Z" fill="#D97EB0"/>
<path d="M80.7249 25.878C80.7249 25.878 79.9731 25.251 80.2748 24.0662C80.5812 22.8813 81.4911 22.6954 81.4911 22.6954L82.6643 23.1883V25.6359C82.6691 25.6359 81.8742 25.2121 80.7249 25.878Z" fill="#141370"/>
<path d="M74.2747 36.9698H71.3202C65.9905 36.9698 62.0016 41.3849 63.0694 46.0983L67.6377 66.2581H88.4442L93.0939 46.1286C94.1857 41.4065 90.192 36.9698 84.8527 36.9698H74.2747Z" fill="#13E7F5"/>
<path d="M83.3107 35.4779L83.4592 36.9698L78.6658 39.8325L74.2747 36.9698L74.562 35.0801L83.3107 35.4779Z" fill="#DC85E6"/>
<path d="M53.9807 58.8982C55.8196 60.1565 58.4389 59.8279 59.8324 58.1674L70.7456 45.16C72.1391 43.4994 71.7752 41.1341 69.9363 39.8757C68.0975 38.6173 65.4781 38.946 64.0847 40.6065L53.1715 53.6139C51.7828 55.2744 52.1467 57.6398 53.9807 58.8982Z" fill="#13E7F5"/>
<path d="M77.7177 26.4099C77.7177 26.8164 78.0816 27.1407 78.527 27.1407C78.9771 27.1407 79.3363 26.8121 79.3363 26.4099C79.3363 26.0034 78.9723 25.6791 78.527 25.6791C78.0816 25.6748 77.7177 26.0034 77.7177 26.4099Z" fill="#D97EB0"/>
<path d="M74.0832 25.2337C74.0832 25.6402 74.4471 25.9645 74.8925 25.9645C75.3426 25.9645 75.7017 25.6359 75.7017 25.2337C75.7017 24.8316 75.3378 24.5029 74.8925 24.5029C74.4471 24.5029 74.0832 24.8316 74.0832 25.2337Z" fill="#D97EB0"/>
<path d="M55.6519 52.455L32.5996 54.9069L31.7855 58.6387L55.8913 59.923C58.4053 60.0571 60.474 58.1544 60.2777 55.8885C60.0957 53.7653 57.9935 52.2085 55.6519 52.455Z" fill="#13E7F5"/>
<path d="M36.531 54.4917L35.8846 58.8592L31.7855 58.6387L32.5996 54.9068L36.531 54.4917Z" fill="#7E07F3"/>
<path d="M30.5884 54.8117C30.5884 54.8117 30.8661 56.9825 29.463 57.5144C28.3712 57.9295 25.7136 58.1371 24.2818 57.7393C23.8795 57.6268 23.8891 57.1122 24.2961 57.0085L26.6569 56.4117L22.51 54.2755C22.1509 54.0896 22.2706 53.5923 22.6872 53.5663C23.6545 53.5015 24.9618 53.4625 25.9722 53.6096C27.787 53.8777 30.5884 54.8117 30.5884 54.8117Z" fill="#DC85E6"/>
<path d="M29.0225 57.6527L31.8382 58.3965L32.5995 54.9068L29.5684 54.4917L29.0225 57.6527Z" fill="#DC85E6"/>
<path d="M96.9248 23.8889C99.1084 24.5678 100.267 26.7126 99.5154 28.6802L93.6398 44.1135C92.888 46.0854 90.5128 47.1318 88.334 46.4529C86.1504 45.774 84.9916 43.6292 85.7434 41.6616L91.619 26.2283C92.366 24.2608 94.7412 23.2143 96.9248 23.8889Z" fill="#13E7F5"/>
<path d="M88.5926 67.071L84.6421 95.0145C84.393 96.7745 82.7362 98.0934 80.7681 98.0934C78.6132 98.0934 76.8654 96.515 76.8654 94.5691V72.9521L88.5926 67.071Z" fill="#01008A"/>
<path d="M82.061 130.443L84.9677 135.083V93.9075C84.9677 91.888 83.1528 90.2491 80.9165 90.2491C78.6802 90.2491 76.8654 91.888 76.8654 93.9075L82.061 130.443Z" fill="#01008A"/>
<path d="M92.3038 29.2164L79.6667 11.6382L82.3244 8.68475L98.8211 24.611C100.54 26.2716 100.243 28.9223 98.1842 30.2369C96.2592 31.465 93.5871 31.0023 92.3038 29.2164Z" fill="#13E7F5"/>
<path d="M81.8216 14.635L85.1305 11.3917L82.3244 8.68475L79.6667 11.6339L81.8216 14.635Z" fill="#7E07F3"/>
<path d="M80.2317 7.80259C80.2317 7.80259 79.5373 9.89554 78.0145 9.88257C76.8318 9.87392 74.2986 9.11717 73.1589 8.23502C72.8381 7.98853 73.0727 7.51719 73.4893 7.56908L75.9219 7.86746L73.0488 4.42101C72.7998 4.12264 73.1302 3.70751 73.5228 3.83291C74.4375 4.11831 75.6586 4.55074 76.5205 5.04803C78.0672 5.93883 80.2317 7.80259 80.2317 7.80259Z" fill="#DC85E6"/>
<path d="M79.7146 7.39612L82.152 8.87502L79.6667 11.6339L77.3729 9.79609L79.7146 7.39612Z" fill="#DC85E6"/>
<path d="M94.3581 42.2281L88.267 52.1999L91.8632 51.4821L94.3581 42.2281Z" fill="#00DCEA"/>
<path d="M67.5851 69.4148V65.6268H88.5927L88.2527 69.4148H67.5851Z" fill="#004145"/>
<path d="M76.3338 69.1467H77.7991C78.3881 69.1467 78.867 68.7143 78.867 68.1824V66.9543C78.867 66.4224 78.3881 65.99 77.7991 65.99H76.3338C75.7448 65.99 75.266 66.4224 75.266 66.9543V68.1824C75.2612 68.7143 75.74 69.1467 76.3338 69.1467Z" stroke="#FF9A17" stroke-width="0.407" stroke-miterlimit="10"/>
<path d="M77.167 24.5029L75.1558 27.5645L76.2141 27.8888" stroke="#C53CCF" stroke-width="0.2035" stroke-miterlimit="10" stroke-linecap="round" stroke-linejoin="round"/>
<path d="M81.223 23.37C81.223 23.37 78.0242 22.8251 77.5549 21.8089H82.3052C82.3052 21.8089 82.6691 22.7213 82.6691 23.1883C82.6691 23.6554 82.4393 23.8802 82.4393 23.8802L81.223 23.37Z" fill="#141370"/>
<path d="M80.2747 24.9008L79.341 28.8488C79.341 28.8488 75.9985 27.3569 73.1972 27.8888C73.1972 27.8888 73.2547 30.7731 76.8605 31.0066C80.4663 31.2401 81.0553 30.492 81.0505 29.2985C81.0457 28.105 81.1367 25.6748 81.1367 25.6748L80.2747 24.9008Z" fill="#141370"/>
<path d="M77.3968 28.7451C77.2628 29.251 76.7599 29.6272 76.1566 29.6272C75.5532 29.6272 75.0504 29.251 74.9163 28.7451H77.3968Z" fill="#F493FE"/>
<path d="M78.6658 26.0467C79.3666 26.0467 79.9348 25.5336 79.9348 24.9008C79.9348 24.2679 79.3666 23.7548 78.6658 23.7548C77.965 23.7548 77.3969 24.2679 77.3969 24.9008C77.3969 25.5336 77.965 26.0467 78.6658 26.0467Z" stroke="#4A4185" stroke-width="0.10175" stroke-miterlimit="10"/>
<path d="M75.8981 25.238C76.5989 25.238 77.167 24.725 77.167 24.0921C77.167 23.4592 76.5989 22.9462 75.8981 22.9462C75.1972 22.9462 74.6291 23.4592 74.6291 24.0921C74.6291 24.725 75.1972 25.238 75.8981 25.238Z" stroke="#4A4185" stroke-width="0.10175" stroke-miterlimit="10"/>
<path d="M77.5549 24.5462L77.1191 24.3992" stroke="#4A4185" stroke-width="0.10175" stroke-miterlimit="10"/>
<path d="M78.6658 39.8325L83.4592 36.9698L84.3499 39.1925L78.6658 39.8325Z" fill="#7E07F3"/>
<path d="M78.6658 39.8325L73.1972 39.0152L74.2746 36.9698L78.6658 39.8325Z" fill="#7E07F3"/>
<path d="M75.3234 133.708L75.3426 135.17L62.6959 135.321C62.6959 135.321 62.739 135.17 62.9689 133.859L75.3234 133.708Z" fill="#01008A"/>
<path d="M62.9879 133.773C63.2321 132.381 67.4221 132.026 69.9793 131.771C72.5364 131.516 72.1341 128.458 72.1341 128.458L75.2467 128.42L75.3233 133.708L62.9736 133.855C62.9784 133.829 62.9831 133.803 62.9879 133.773Z" fill="#BEBEFF"/>
<path d="M69.5388 133.777C69.5388 133.777 69.0408 132.731 67.5371 132.679C66.0335 132.627 63.9122 132.722 63.9122 132.722" stroke="#01008A" stroke-width="0.0864854" stroke-miterlimit="10"/>
<path d="M73.6713 128.441C73.6713 128.441 73.7527 131.559 72.4837 131.978C71.2148 132.402 69.51 131.818 69.51 131.818" stroke="#01008A" stroke-width="0.0864854" stroke-miterlimit="10"/>
<path d="M73.5133 130.275L71.6027 130.906" stroke="#01008A" stroke-width="0.0864854" stroke-miterlimit="10"/>
<path d="M71.9283 130.292L73.2739 131.088" stroke="#01008A" stroke-width="0.0864854" stroke-miterlimit="10"/>
<path d="M85.2502 135.697L85.2694 137.159L72.6227 137.31C72.6227 137.31 72.6658 137.159 72.8956 135.849L85.2502 135.697Z" fill="#01008A"/>
<path d="M72.9148 135.762C73.159 134.37 77.3491 134.015 79.9062 133.76C82.4633 133.505 82.061 130.448 82.061 130.448L85.1736 130.409L85.2502 135.697L72.9005 135.844C72.9052 135.814 72.91 135.788 72.9148 135.762Z" fill="#CECEFF"/>
<path d="M79.4656 135.766C79.4656 135.766 78.9676 134.72 77.464 134.668C75.9603 134.616 73.839 134.711 73.839 134.711" stroke="#01008A" stroke-width="0.0864854" stroke-miterlimit="10"/>
<path d="M83.5981 130.426C83.5981 130.426 83.6795 133.544 82.4106 133.963C81.1416 134.387 79.4368 133.803 79.4368 133.803" stroke="#01008A" stroke-width="0.0864854" stroke-miterlimit="10"/>
<path d="M83.4401 132.26L81.5295 132.895" stroke="#01008A" stroke-width="0.0864854" stroke-miterlimit="10"/>
<path d="M81.8552 132.281L83.2008 133.077" stroke="#01008A" stroke-width="0.0864854" stroke-miterlimit="10"/>
</svg>
