<svg width="656" height="450" viewBox="0 0 656 450" fill="none" xmlns="http://www.w3.org/2000/svg">
<g clip-path="url(#clip0_67_34)">
<path d="M363.933 333.056C363.603 362.261 365.111 391.513 368.408 420.554L369.397 422.108H654.1C656.149 418.575 655.065 413.629 650.896 411.651C638.602 405.833 624.565 403.643 611.093 405.668C622.257 399.969 632.431 392.385 641.052 383.294C643.996 380.161 647.034 376.204 643.878 371.541C642.229 369.091 639.426 367.655 636.482 367.49C618.111 366.359 599.623 367.372 581.511 370.528C584.455 358.234 592.533 347.8 596.679 335.859C601.837 320.997 598.233 299.918 577.931 300.177C575.387 300.224 572.844 300.695 570.371 301.378C551.952 306.348 535.607 318.571 525.48 334.775C528.047 308.09 530.331 279.875 518.861 255.639C515.281 248.126 510.1 240.895 502.516 237.433C491.847 232.558 479.081 236.35 469.142 242.638C453.338 252.624 441.868 268.428 434.025 285.409C426.182 302.414 421.684 320.715 417.232 338.874C411.933 326.768 406.139 314.049 393.586 308.067C387.368 305.099 380.043 304.817 374.037 308.208C364.71 313.484 364.051 323.776 363.933 333.056Z" fill="#55E0D3"/>
<path d="M291.156 333.196C291.486 362.401 289.978 391.653 286.681 420.694L285.692 422.248H1.01279C-1.03628 418.715 0.0471367 413.769 4.21593 411.791C16.5103 405.973 30.5476 403.783 44.0196 405.809C32.8557 400.109 22.6811 392.525 14.0609 383.434C11.1168 380.301 8.07853 376.344 11.2346 371.681C12.8832 369.232 15.686 367.795 18.63 367.63C37.001 366.499 55.4897 367.512 73.6015 370.668C70.6575 358.374 62.579 347.94 58.4337 335.999C53.2757 321.137 56.8793 300.058 77.1815 300.317C79.7252 300.364 82.2688 300.835 84.7419 301.518C103.16 306.488 119.505 318.711 129.633 334.916C127.066 308.231 124.781 280.015 136.251 255.779C139.831 248.266 145.013 241.035 152.597 237.573C163.266 232.698 176.031 236.49 185.97 242.778C201.774 252.765 213.244 268.568 221.087 285.55C228.93 302.554 233.429 320.855 237.88 339.014C243.179 326.908 248.973 314.189 261.527 308.207C267.745 305.239 275.069 304.957 281.075 308.348C290.402 313.601 291.038 323.917 291.156 333.196Z" fill="#55E0D3"/>
<path d="M233.641 345.538C220.122 351.262 206.626 356.961 193.107 362.684C199.089 349.872 205.519 337.271 212.396 324.906C213.126 323.587 211.007 322.551 210.277 323.87C196.993 347.705 185.405 372.435 175.584 397.895L163.831 277.919C163.69 276.412 161.335 276.577 161.476 278.108L175.749 423.85C175.89 425.358 178.245 425.193 178.104 423.662L176.078 403.006C176.102 402.983 176.125 402.959 176.125 402.936C180.954 390.147 186.253 377.546 191.953 365.157C192.212 365.369 192.565 365.44 192.989 365.275C206.791 359.434 220.616 353.593 234.418 347.752C235.807 347.163 235.03 344.949 233.641 345.538Z" fill="white"/>
<path d="M127.513 419.14C123.344 411.815 119.199 404.514 115.03 397.189C115.007 396.859 114.865 396.553 114.559 396.364C112.275 392.337 109.966 388.286 107.682 384.258C109.283 369.138 110.885 354.017 112.486 338.896C112.651 337.389 110.343 336.942 110.178 338.449C108.671 352.557 107.187 366.665 105.68 380.773C96.7063 364.993 87.7328 349.189 78.7593 333.409C78.0057 332.09 76.0744 333.432 76.828 334.751C86.2961 351.426 95.7878 368.101 105.256 384.777C105.232 385.012 105.209 385.224 105.185 385.46C105.091 386.308 105.774 386.802 106.434 386.826L111.591 395.917C100.263 394.504 88.9576 393.091 77.6288 391.678C76.1215 391.489 75.674 393.797 77.1813 393.986L113.052 398.461C117.221 405.809 121.389 413.134 125.582 420.482C126.335 421.801 128.267 420.435 127.513 419.14Z" fill="white"/>
<path d="M272.078 376.392C265.436 382.704 258.818 389.04 252.176 395.352L271.842 350.838C272.455 349.448 270.335 348.412 269.723 349.801L258.842 374.461C258.323 369.42 257.782 364.404 257.264 359.364C257.099 357.856 254.767 358.021 254.908 359.552C255.497 365.205 256.086 370.834 256.675 376.486C256.722 377.028 257.099 377.358 257.499 377.475L247.725 399.591C247.607 399.709 247.466 399.827 247.348 399.944C246.995 400.298 246.948 400.675 247.089 401.004L238.092 421.401C237.479 422.79 239.599 423.827 240.212 422.437L249.703 400.934C257.758 393.256 265.813 385.601 273.844 377.923C274.951 376.887 273.161 375.356 272.078 376.392Z" fill="white"/>
<path d="M504.848 294.453C492.671 313.483 480.518 332.514 468.341 351.544C472.793 322.457 477.22 293.369 481.672 264.282C481.907 262.775 479.599 262.327 479.364 263.835C473.782 300.412 468.176 337.012 462.594 373.589C453.126 359.316 443.682 345.044 434.214 330.771C433.366 329.499 431.434 330.841 432.282 332.113C442.174 347.022 452.043 361.931 461.935 376.839C461.982 376.91 462.029 376.934 462.1 377.004C459.839 391.819 457.578 406.633 455.317 421.424C455.081 422.932 457.389 423.379 457.625 421.872C460.946 400.109 464.267 378.37 467.587 356.608C467.823 356.514 468.035 356.372 468.2 356.137C481.13 335.929 494.06 315.697 506.991 295.489C507.792 294.217 505.672 293.181 504.848 294.453Z" fill="white"/>
<path d="M574.916 318.477L550.351 364.028C548.891 351.427 547.407 338.85 545.947 326.249C545.782 324.742 543.426 324.907 543.591 326.438C545.146 339.839 546.724 353.217 548.278 366.618C548.302 366.901 548.443 367.113 548.608 367.278L528.329 404.891C528.188 404.985 528.023 405.103 527.882 405.197C527.387 405.551 527.317 406.045 527.458 406.493C524.702 411.627 521.923 416.738 519.167 421.872C518.437 423.215 520.557 424.228 521.287 422.909L530.143 406.516C543.379 397.26 556.616 388.004 569.852 378.748C571.101 377.876 569.758 375.945 568.51 376.817C556.545 385.178 544.581 393.539 532.616 401.9C547.43 374.438 562.221 346.976 577.036 319.537C577.742 318.171 575.623 317.135 574.916 318.477Z" fill="white"/>
<path d="M613.848 388.098C605.676 391.796 597.503 395.494 589.307 399.191C594.889 392.997 600.447 386.803 606.029 380.585C607.042 379.454 605.252 377.923 604.239 379.054C600.517 383.176 596.82 387.321 593.099 391.443C593.829 386.19 594.559 380.938 595.312 375.686C595.524 374.179 593.216 373.731 593.004 375.238C592.203 381.009 591.379 386.779 590.578 392.55C590.508 393.068 590.743 393.468 591.097 393.68C588.694 396.365 586.268 399.026 583.866 401.711C583.772 401.782 583.701 401.876 583.63 401.971C578.143 408.071 572.679 414.171 567.191 420.271C566.178 421.401 567.968 422.932 568.981 421.802C574.468 415.702 579.933 409.625 585.42 403.525C595.171 399.121 604.898 394.716 614.649 390.312C616.015 389.7 615.238 387.486 613.848 388.098Z" fill="white"/>
<path d="M132.483 278.673C132.176 284.326 131.87 289.955 131.564 295.607C131.493 297.115 133.825 296.926 133.919 295.419C134.226 289.766 134.532 284.137 134.838 278.485C134.909 276.977 132.577 277.166 132.483 278.673Z" fill="#00ACA1"/>
<path d="M134.367 305.169C134.202 303.662 131.847 303.827 132.011 305.358C132.859 312.565 133.707 319.748 134.555 326.955C134.72 328.463 137.075 328.298 136.91 326.767C136.062 319.583 135.215 312.376 134.367 305.169Z" fill="#00ACA1"/>
<path d="M140.749 293.3C140.726 291.793 138.37 291.957 138.394 293.488C138.512 300.271 138.629 307.031 138.771 313.814C138.794 315.322 141.15 315.157 141.126 313.626C140.985 306.866 140.867 300.083 140.749 293.3Z" fill="#00ACA1"/>
<path d="M65.3819 310.422C60.5536 318.666 60.6007 328.369 65.3112 336.66C66.0649 337.979 67.9962 336.636 67.2425 335.317C62.9324 327.757 63.1209 318.925 67.5016 311.459C68.2553 310.14 66.1356 309.103 65.3819 310.422Z" fill="#00ACA1"/>
<path d="M74.2846 354.817L69.6212 343.818C69.0324 342.429 66.8185 343.206 67.4073 344.619C68.9617 348.293 70.5162 351.968 72.0707 355.618C72.6595 357.008 74.897 356.207 74.2846 354.817Z" fill="#00ACA1"/>
<path d="M75.0379 342.995C73.6248 339.179 72.2116 335.364 70.822 331.548C70.3039 330.135 68.0664 330.912 68.6081 332.349C70.0213 336.165 71.4344 339.98 72.824 343.796C73.3657 345.209 75.5796 344.432 75.0379 342.995Z" fill="#00ACA1"/>
<path d="M112.157 322.857C107.658 319.724 103.183 316.568 98.6846 313.436C97.4599 312.564 95.9054 314.354 97.1537 315.226L110.626 324.647C111.85 325.495 113.405 323.705 112.157 322.857Z" fill="#00ACA1"/>
<path d="M107.046 327.968C104.008 325.637 100.946 323.305 97.9078 320.973C96.7066 320.055 95.1757 321.845 96.3769 322.763C99.4152 325.095 102.477 327.427 105.515 329.758C106.716 330.677 108.247 328.887 107.046 327.968Z" fill="#00ACA1"/>
<path d="M54.7831 373.495C47.8822 372.482 40.9578 372.129 34.0098 372.741C30.3356 373.071 22.7046 372.953 20.7027 377.028C16.8401 384.847 35.211 392.902 40.0864 395.21C41.4524 395.87 42.4887 393.75 41.1227 393.091C37.0952 391.183 33.2326 389.04 29.5819 386.449C28.1688 385.436 26.7085 384.447 25.4132 383.269C23.105 382.139 22.7753 380.655 24.4711 378.794C24.7301 376.298 26.1904 375.261 28.8518 375.732C37.3072 374.366 45.9038 374.578 54.3592 375.827C55.8194 376.039 56.2905 373.707 54.7831 373.495Z" fill="#00ACA1"/>
<path d="M52.5218 403.266C49.8368 402.136 47.1519 401.005 44.4904 399.875C43.1008 399.286 42.0645 401.406 43.4541 401.994C46.1391 403.125 48.8241 404.256 51.4855 405.386C52.8987 405.975 53.935 403.855 52.5218 403.266Z" fill="#00ACA1"/>
<path d="M53.747 395.305C50.0728 393.468 46.3986 391.631 42.748 389.794C41.3819 389.111 40.3692 391.231 41.7116 391.914C45.3858 393.751 49.06 395.588 52.7107 397.425C54.0767 398.108 55.113 395.988 53.747 395.305Z" fill="#00ACA1"/>
<path d="M76.4746 413.228L23.1046 415.889C21.5973 415.96 21.7622 418.315 23.2931 418.244L76.663 415.583C78.1703 415.489 77.9819 413.157 76.4746 413.228Z" fill="#00ACA1"/>
<path d="M101.888 412.451C95.953 412.852 90.0178 413.229 84.1061 413.629C82.5988 413.723 82.7636 416.079 84.2945 415.984C90.2298 415.584 96.165 415.207 102.077 414.807C103.56 414.713 103.396 412.357 101.888 412.451Z" fill="#00ACA1"/>
<path d="M90.4653 407.575C85.2366 407.764 80.0315 407.976 74.8029 408.164C73.2955 408.211 73.4604 410.566 74.9913 410.519C80.22 410.331 85.4251 410.119 90.6537 409.931C92.1611 409.86 91.9726 407.505 90.4653 407.575Z" fill="#00ACA1"/>
<path d="M158.367 306.889C158.178 305.382 155.823 305.57 156.011 307.078C157.001 314.709 158.013 322.316 159.003 329.947C159.191 331.455 161.546 331.266 161.358 329.759C160.345 322.128 159.356 314.52 158.367 306.889Z" fill="#00ACA1"/>
<path d="M163.407 338.967C163.219 337.46 160.887 337.624 161.052 339.155C163.266 357.668 165.48 376.18 167.694 394.692C167.882 396.199 170.214 396.035 170.049 394.504L163.407 338.967Z" fill="#00ACA1"/>
<path d="M155.187 324.576C154.904 323.116 152.549 323.257 152.832 324.765C154.339 332.396 155.823 340.027 157.33 347.658C157.613 349.118 159.968 348.977 159.686 347.469L155.187 324.576Z" fill="#00ACA1"/>
<path d="M125.888 398.956C122.191 392.95 118.516 386.944 114.819 380.938C114.018 379.643 112.087 380.985 112.887 382.281C116.585 388.286 120.259 394.292 123.957 400.298C124.734 401.594 126.689 400.251 125.888 398.956Z" fill="#00ACA1"/>
<path d="M132.836 412.356C131.446 409.53 130.08 406.68 128.691 403.854C128.031 402.512 125.817 403.289 126.477 404.655C127.866 407.481 129.232 410.331 130.622 413.157C131.258 414.5 133.495 413.723 132.836 412.356Z" fill="#00ACA1"/>
<path d="M137.193 403.595C134.909 398.39 132.624 393.185 130.339 387.956C129.727 386.566 127.513 387.367 128.126 388.757C130.41 393.962 132.695 399.167 134.979 404.396C135.592 405.762 137.806 404.984 137.193 403.595Z" fill="#00ACA1"/>
<path d="M158.555 239.411C149.911 243.557 143.105 250.316 139.03 259.031C138.394 260.397 140.514 261.433 141.15 260.067C144.942 251.965 151.278 245.511 159.356 241.649C160.699 240.966 159.921 238.752 158.555 239.411Z" fill="#00ACA1"/>
<path d="M158.037 247.113C154.01 250.999 150.006 254.885 145.978 258.771C144.895 259.831 146.685 261.362 147.768 260.302C151.796 256.416 155.8 252.53 159.827 248.644C160.911 247.584 159.121 246.053 158.037 247.113Z" fill="#00ACA1"/>
<path d="M547.571 314.755C542.649 320.125 537.727 325.519 532.804 330.889C531.768 332.019 533.558 333.55 534.594 332.42C539.517 327.05 544.439 321.656 549.361 316.286C550.398 315.179 548.608 313.625 547.571 314.755Z" fill="#00ACA1"/>
<path d="M570.959 303.214C566.579 305.452 562.174 307.689 557.793 309.903C556.451 310.586 557.228 312.8 558.594 312.117C562.975 309.879 567.379 307.642 571.76 305.428C573.103 304.769 572.325 302.531 570.959 303.214Z" fill="#00ACA1"/>
<path d="M560.973 313.178C557.016 315.415 553.036 317.629 549.079 319.867C547.76 320.62 549.103 322.552 550.422 321.798C554.378 319.56 558.359 317.347 562.316 315.109C563.635 314.355 562.292 312.424 560.973 313.178Z" fill="#00ACA1"/>
<path d="M590.131 324.86C588.93 333.009 586.339 340.616 582.312 347.8C581.558 349.119 583.701 350.155 584.431 348.836C588.553 341.488 591.214 333.668 592.463 325.331C592.651 323.8 590.343 323.352 590.131 324.86Z" fill="#00ACA1"/>
<path d="M575.905 357.739C574.327 360.683 572.772 363.65 571.194 366.594C570.488 367.937 572.608 368.973 573.314 367.631C574.892 364.687 576.447 361.719 578.025 358.775C578.755 357.433 576.635 356.396 575.905 357.739Z" fill="#00ACA1"/>
<path d="M578.873 339.062C576.589 344.549 574.304 350.037 571.996 355.548C571.407 356.938 573.527 357.974 574.116 356.585C576.4 351.097 578.685 345.609 580.993 340.098C581.558 338.685 579.462 337.649 578.873 339.062Z" fill="#00ACA1"/>
<path d="M618.888 370.009C613.518 370.739 608.172 371.469 602.802 372.199C601.318 372.411 601.483 374.743 602.99 374.555C608.36 373.825 613.707 373.094 619.077 372.364C620.56 372.152 620.396 369.797 618.888 370.009Z" fill="#00ACA1"/>
<path d="M637 371.235C633.891 370.976 630.782 370.74 627.674 370.481C626.166 370.363 625.719 372.671 627.226 372.789C630.335 373.048 633.444 373.284 636.553 373.543C638.037 373.661 638.508 371.352 637 371.235Z" fill="#00ACA1"/>
<path d="M628.639 376.392C624.823 376.439 621.008 376.486 617.216 376.533C615.709 376.557 615.874 378.888 617.404 378.888C621.22 378.841 625.035 378.794 628.827 378.747C630.335 378.723 630.146 376.368 628.639 376.392Z" fill="#00ACA1"/>
<path d="M607.466 413.464C599.976 413.723 592.51 413.958 585.02 414.217C583.513 414.264 583.678 416.62 585.209 416.573L607.654 415.819C609.161 415.748 608.973 413.416 607.466 413.464Z" fill="#00ACA1"/>
<path d="M639.638 413.087C632.007 413.134 624.4 413.158 616.769 413.205C615.261 413.205 615.426 415.56 616.957 415.56C624.588 415.513 632.196 415.489 639.827 415.442C641.334 415.419 641.145 413.064 639.638 413.087Z" fill="#00ACA1"/>
<path d="M619.313 408.966C614.225 409.249 609.161 409.531 604.074 409.814C602.567 409.908 602.732 412.24 604.263 412.169C609.35 411.886 614.414 411.604 619.501 411.321C621.008 411.251 620.844 408.895 619.313 408.966Z" fill="#00ACA1"/>
<path d="M547.148 400.863L533.228 408.377C531.886 409.083 533.252 411.038 534.571 410.308L548.49 402.795C549.833 402.088 548.49 400.157 547.148 400.863Z" fill="#00ACA1"/>
<path d="M568.886 385.507C563.446 389.157 557.982 392.808 552.541 396.459C551.293 397.306 552.612 399.238 553.884 398.39C559.324 394.739 564.788 391.089 570.229 387.438C571.477 386.614 570.135 384.659 568.886 385.507Z" fill="#00ACA1"/>
<path d="M561.727 399.333C556.168 402.3 550.586 405.291 545.028 408.259C543.685 408.966 545.051 410.897 546.37 410.19C551.929 407.223 557.511 404.232 563.069 401.264C564.412 400.557 563.069 398.626 561.727 399.333Z" fill="#00ACA1"/>
<path d="M217.271 296.691C213.597 289.343 209.923 282.018 206.249 274.669C205.589 273.327 203.352 274.104 204.035 275.47C207.709 282.819 211.383 290.143 215.057 297.492C215.717 298.811 217.954 298.033 217.271 296.691Z" fill="#00ACA1"/>
<path d="M226.575 321.232C224.738 315.862 222.901 310.516 221.064 305.146C220.569 303.709 218.355 304.51 218.85 305.947C220.687 311.317 222.524 316.663 224.361 322.033C224.856 323.47 227.07 322.669 226.575 321.232Z" fill="#00ACA1"/>
<path d="M217.178 309.762C215.576 305.805 213.974 301.849 212.373 297.868C211.808 296.479 209.594 297.256 210.159 298.669C211.761 302.626 213.362 306.583 214.964 310.563C215.529 311.953 217.743 311.175 217.178 309.762Z" fill="#00ACA1"/>
<path d="M266.944 310.917C265.036 312.047 263.129 313.178 261.221 314.308C259.925 315.085 261.268 317.017 262.563 316.24C264.471 315.109 266.379 313.979 268.287 312.848C269.582 312.094 268.239 310.139 266.944 310.917Z" fill="#00ACA1"/>
<path d="M256.133 318.948C251.352 324.082 247.419 329.829 244.357 336.165C243.697 337.531 245.817 338.567 246.477 337.201C249.468 331.054 253.283 325.495 257.923 320.502C258.959 319.372 257.169 317.841 256.133 318.948Z" fill="#00ACA1"/>
<path d="M267.65 316.31C263.246 318.288 259.431 321.138 256.345 324.883C255.38 326.06 257.17 327.591 258.135 326.414C260.962 322.999 264.424 320.337 268.451 318.524C269.817 317.911 269.04 315.697 267.65 316.31Z" fill="#00ACA1"/>
<path d="M283.195 343.937C282.936 350.155 282.654 356.349 282.371 362.567C282.3 364.075 284.656 363.886 284.726 362.379C285.009 356.161 285.268 349.967 285.551 343.749C285.598 342.265 283.266 342.453 283.195 343.937Z" fill="#00ACA1"/>
<path d="M282.088 372.742C282.017 376.769 281.947 380.797 281.876 384.801C281.853 386.308 284.208 386.12 284.231 384.612C284.302 380.585 284.373 376.557 284.443 372.553C284.467 371.046 282.112 371.234 282.088 372.742Z" fill="#00ACA1"/>
<path d="M279.992 363.25C279.992 361.742 277.636 361.907 277.636 363.438C277.636 366.9 277.636 370.363 277.636 373.801C277.636 375.309 279.992 375.144 279.992 373.613C279.992 370.174 279.992 366.712 279.992 363.25Z" fill="#00ACA1"/>
<path d="M251.564 377.546C248.125 384.377 244.686 391.207 241.248 398.037C240.565 399.403 242.685 400.416 243.368 399.073C246.806 392.243 250.245 385.413 253.684 378.583C254.367 377.24 252.247 376.204 251.564 377.546Z" fill="#00ACA1"/>
<path d="M237.951 405.126C236.208 409.107 234.465 413.064 232.722 417.044C232.11 418.434 234.23 419.47 234.842 418.08C236.585 414.1 238.328 410.143 240.071 406.163C240.683 404.773 238.563 403.737 237.951 405.126Z" fill="#00ACA1"/>
<path d="M239.505 390.241C236.585 396.364 233.664 402.512 230.72 408.635C230.061 410.001 232.181 411.038 232.84 409.671C235.761 403.548 238.681 397.401 241.625 391.277C242.261 389.911 240.141 388.875 239.505 390.241Z" fill="#00ACA1"/>
<path d="M211.242 360.447L197.417 366.146C196.027 366.712 196.804 368.949 198.218 368.36C202.834 366.452 207.427 364.568 212.043 362.66C213.433 362.095 212.632 359.881 211.242 360.447Z" fill="#00ACA1"/>
<path d="M230.72 352.086C225.915 354.064 221.087 356.019 216.282 357.998C214.893 358.563 215.67 360.8 217.083 360.212C221.888 358.233 226.716 356.278 231.521 354.3C232.91 353.711 232.133 351.497 230.72 352.086Z" fill="#00ACA1"/>
<path d="M222.312 360.965C217.955 362.19 213.739 363.768 209.641 365.699C208.275 366.335 209.052 368.572 210.442 367.913C214.54 365.982 218.732 364.403 223.113 363.179C224.573 362.778 223.772 360.541 222.312 360.965Z" fill="#00ACA1"/>
<path d="M190.587 348.648C188.161 353.947 185.711 359.223 183.285 364.522C182.649 365.912 184.769 366.924 185.405 365.558C187.831 360.259 190.28 354.983 192.706 349.684C193.342 348.294 191.223 347.282 190.587 348.648Z" fill="#00ACA1"/>
<path d="M198.806 328.322C197.11 331.808 195.415 335.317 193.719 338.803C193.059 340.169 195.179 341.205 195.839 339.839C197.534 336.353 199.23 332.844 200.926 329.358C201.585 327.969 199.466 326.956 198.806 328.322Z" fill="#00ACA1"/>
<path d="M189.597 334.987C188.537 337.531 187.477 340.075 186.417 342.618C185.829 344.008 187.948 345.044 188.537 343.655C189.597 341.111 190.657 338.567 191.717 336.024C192.306 334.611 190.186 333.574 189.597 334.987Z" fill="#00ACA1"/>
<path d="M452.419 380.679C451.477 386.19 450.512 391.678 449.57 397.189C449.31 398.673 451.619 399.144 451.878 397.637L454.728 381.126C454.987 379.643 452.678 379.171 452.419 380.679Z" fill="#00ACA1"/>
<path d="M446.79 408.635L444.624 417.538C444.27 419.022 446.578 419.469 446.932 417.985C447.662 415.018 448.368 412.05 449.099 409.083C449.475 407.622 447.144 407.175 446.79 408.635Z" fill="#00ACA1"/>
<path d="M441.963 394.645C441.539 397.612 441.115 400.58 440.691 403.547C440.479 405.055 442.787 405.502 442.999 403.995C443.423 401.027 443.847 398.06 444.271 395.092C444.483 393.608 442.175 393.161 441.963 394.645Z" fill="#00ACA1"/>
<path d="M454.845 258.771C438.994 278.39 428.419 301.566 424.039 326.414C423.779 327.897 426.088 328.369 426.347 326.861C430.657 302.39 440.996 279.615 456.612 260.302C457.601 259.124 455.811 257.593 454.845 258.771Z" fill="#00ACA1"/>
<path d="M473.946 244.404C469.825 247.466 465.679 250.551 461.558 253.613C460.333 254.508 461.675 256.463 462.9 255.545C467.022 252.483 471.167 249.397 475.289 246.336C476.49 245.441 475.147 243.486 473.946 244.404Z" fill="#00ACA1"/>
<path d="M467.328 255.027C464.573 257.665 461.817 260.326 459.062 262.964C457.978 264.024 459.768 265.531 460.852 264.495C463.607 261.857 466.363 259.196 469.118 256.558C470.202 255.498 468.412 253.967 467.328 255.027Z" fill="#00ACA1"/>
<path d="M469.589 284.467C468.223 292.405 466.857 300.342 465.491 308.303C465.232 309.786 467.54 310.257 467.799 308.75L471.897 284.915C472.157 283.408 469.848 282.96 469.589 284.467Z" fill="#00ACA1"/>
<path d="M462.406 319.088C461.063 326.814 459.721 334.562 458.355 342.288C458.096 343.771 460.404 344.242 460.663 342.735C462.005 335.01 463.348 327.261 464.714 319.536C464.973 318.052 462.665 317.605 462.406 319.088Z" fill="#00ACA1"/>
<path d="M460.404 302.885C459.556 309.456 458.708 316.004 457.86 322.575C457.672 324.082 459.98 324.53 460.168 323.022C461.016 316.451 461.864 309.904 462.712 303.332C462.924 301.825 460.592 301.378 460.404 302.885Z" fill="#00ACA1"/>
<path d="M489.75 328.651C486.57 333.715 483.367 338.802 480.188 343.866C479.387 345.161 481.507 346.174 482.307 344.902C485.487 339.839 488.69 334.751 491.87 329.687C492.67 328.416 490.551 327.379 489.75 328.651Z" fill="#00ACA1"/>
<path d="M506.826 302.532C502.492 308.797 498.182 315.038 493.848 321.303C493.001 322.528 494.767 324.083 495.638 322.834C499.972 316.569 504.282 310.328 508.616 304.063C509.487 302.838 507.697 301.284 506.826 302.532Z" fill="#00ACA1"/>
<path d="M499.218 322.598L491.281 335.623C490.48 336.918 492.624 337.931 493.401 336.659C496.039 332.326 498.7 327.968 501.338 323.635C502.115 322.316 499.996 321.303 499.218 322.598Z" fill="#00ACA1"/>
<path d="M518.814 266.519C518.366 265.083 516.152 265.86 516.6 267.32C518.908 274.786 520.062 282.37 520.109 290.19C520.109 291.697 522.464 291.532 522.464 290.001C522.417 281.97 521.193 274.174 518.814 266.519Z" fill="#00ACA1"/>
<path d="M520.204 300.671C519.356 307.548 518.508 314.425 517.66 321.303C517.472 322.81 519.78 323.257 519.968 321.75C520.816 314.873 521.664 307.995 522.512 301.118C522.7 299.634 520.392 299.163 520.204 300.671Z" fill="#00ACA1"/>
<path d="M517.283 286.492C517.26 284.985 514.904 285.15 514.928 286.681C514.999 292.498 515.093 298.316 515.163 304.157C515.187 305.664 517.542 305.499 517.519 303.968C517.424 298.151 517.354 292.333 517.283 286.492Z" fill="#00ACA1"/>
<path d="M467.257 402.017C465.868 406.774 464.478 411.532 463.065 416.29C462.641 417.75 464.949 418.197 465.373 416.737C466.763 411.979 468.152 407.222 469.565 402.464C469.989 401.004 467.681 400.58 467.257 402.017Z" fill="#00ACA1"/>
<path d="M473.735 372.106C472.251 377.923 470.767 383.741 469.283 389.582C468.907 391.066 471.215 391.489 471.592 390.029C473.075 384.212 474.559 378.394 476.043 372.553C476.42 371.093 474.112 370.646 473.735 372.106Z" fill="#00ACA1"/>
<path d="M476.655 394.341C631.533 -263.42 756.574 -796.762 755.941 -796.911C755.308 -797.06 629.241 -263.96 474.362 393.801C319.484 1051.56 194.443 1584.9 195.076 1585.05C195.709 1585.2 321.776 1052.1 476.655 394.341Z" fill="#00ACA1"/>
<path d="M529.272 380.49C523.925 391.465 518.579 402.464 513.256 413.44C512.597 414.806 514.716 415.842 515.376 414.476C520.722 403.5 526.069 392.501 531.391 381.526C532.051 380.16 529.931 379.124 529.272 380.49Z" fill="#00ACA1"/>
<path d="M539.564 361.978C538.198 364.309 536.808 366.641 535.442 368.973C534.665 370.292 536.784 371.305 537.562 370.009C538.928 367.678 540.317 365.346 541.683 363.014C542.437 361.695 540.317 360.682 539.564 361.978Z" fill="#00ACA1"/>
<path d="M529.012 367.984C526.916 372.223 524.82 376.463 522.724 380.726C522.041 382.092 524.16 383.128 524.843 381.762C526.94 377.523 529.036 373.283 531.132 369.02C531.791 367.654 529.672 366.618 529.012 367.984Z" fill="#00ACA1"/>
<path d="M2.56738 422.131L655.654 422.014C655.654 422.014 610.151 449.782 322.175 449.782C34.1984 449.782 2.56738 422.131 2.56738 422.131Z" fill="#E0FFF9"/>
<path d="M433.083 212.302C425.522 212.443 419.776 203.587 421.448 196.121C423.167 188.49 430.492 183.12 438.123 181.33C445.754 179.564 453.715 180.671 461.463 181.777C456.164 171.909 450.723 161.569 450.252 150.358C449.781 139.148 455.858 126.806 466.716 123.933C475.406 121.601 484.78 125.982 490.88 132.6C497.004 139.218 500.49 147.768 503.834 156.105C505.083 148.215 506.354 140.231 509.44 132.859C512.502 125.464 517.589 118.633 524.725 115.053C538.574 108.082 556.71 116.066 564.176 129.656C571.642 143.246 569.993 160.368 563.587 174.5C568.651 162.865 582.759 155.988 595.03 159.167C607.324 162.37 616.297 175.23 615.049 187.878C613.801 200.502 602.472 212.325 589.801 213.055H433.106L433.083 212.302Z" fill="#B3FFF0"/>
<path d="M119.811 131.282C116.16 131.423 112.416 131.494 109.024 130.151C105.468 128.738 102.382 125.37 102.571 121.555C102.806 117.268 106.834 114.23 110.72 112.369C119.717 108.059 130.104 106.669 139.925 108.506C134.319 103.961 129.138 98.5438 126.335 91.902C123.532 85.2602 123.415 77.1346 127.442 71.1287C130.881 65.9942 136.91 63.0031 143.034 62.1552C149.158 61.3309 155.399 62.4143 161.358 64.0629C174.052 67.6194 185.994 73.7901 196.239 82.0806C189.526 71.6233 190.681 56.7381 198.924 47.4113C207.167 38.1081 221.793 35.164 233.004 40.5576C244.215 45.9511 251.022 59.2347 248.879 71.5055C260.09 59.1169 271.819 46.3986 287.246 40.0394C292.239 37.9903 297.915 36.6479 303.026 38.3907C308.49 40.2278 312.306 45.2916 314.425 50.6616C320.007 64.9108 314.331 82.693 301.542 91.0776C310.892 87.6625 321.138 85.7783 330.818 88.0394C340.521 90.3004 349.495 97.4133 351.874 107.07C354.252 116.726 348.27 128.291 338.496 130.151L338.472 132.53L119.811 131.282Z" fill="#B3FFF0"/>
<path d="M570.582 176.125C558.24 172.286 545.546 181.754 537.514 192.164C539.893 184.11 541.118 175.748 540.929 167.269C540.764 160.557 539.94 147.65 530.543 147.603C522.064 147.556 517.565 158.814 515.398 165.338C513.538 170.967 512.643 176.761 512.596 182.555C510.712 178.41 508.286 174.524 505.294 170.991C500.184 164.985 491.681 158.225 483.391 162.112C477.22 165.008 474.865 172.616 475.76 178.975C476.207 182.06 477.385 184.84 479.033 187.36C473.357 185.24 467.516 185.64 463.112 191.929C457.365 200.102 467.446 210.135 475.713 205.048C477.008 204.247 475.665 202.316 474.37 203.116C469.636 206.037 462.806 201.68 463.795 196.074C464.666 191.175 470.343 188.773 474.723 188.773C477.102 188.773 479.293 189.409 481.342 190.422C484.78 194.449 489.232 197.794 493.259 200.785C494.507 201.703 495.803 200.102 494.79 198.995C492.058 196.004 488.148 192.376 483.862 189.762C481.766 187.454 480.023 184.91 478.939 181.966C476.56 175.466 478.398 165.432 486.193 163.69C494.837 161.758 502.374 170.308 506.708 176.714C509.628 181.001 511.724 185.688 513.114 190.61C513.491 193.366 514.032 196.074 514.786 198.783C515.139 200.055 517.236 199.607 517.071 198.288C516.717 195.556 516.176 192.871 515.446 190.233C514.645 184.369 514.763 178.41 515.94 172.522C516.741 168.471 517.989 164.514 519.732 160.745C521.428 157.071 526.091 147.886 531.72 150.029C540.317 153.303 538.975 168.306 538.386 175.513C537.632 184.557 535.277 193.295 531.603 201.609C530.99 202.999 533.063 204.011 533.722 202.645C538.88 191.835 548.655 181.495 560.643 178.48C567.873 176.667 577.813 179.14 575.952 188.773C574.35 197.063 565.612 200.502 558.617 203.163C557.204 203.705 557.981 205.919 559.418 205.377C566.79 202.575 575.292 199.065 577.836 190.822C579.72 184.581 577.012 178.127 570.582 176.125Z" fill="#B1DDD5"/>
<path d="M316.946 104.291C314.308 97.5548 305.735 97.861 299.846 98.3556C290.755 99.1329 281.994 101.535 273.703 105.233C277.542 95.4822 281.876 85.708 284.867 75.6981C286.681 69.6216 284.679 62.862 277.071 63.7335C269.322 64.6285 261.715 73.4607 256.745 78.9013C250.716 85.496 245.793 92.9386 241.813 100.899C240.282 93.8807 237.856 87.1211 234.347 80.7855C231.921 76.4283 227.941 68.7266 221.699 69.6923C216.942 70.4224 215.222 76.0043 214.045 79.914C211.501 88.2752 210.371 96.8954 210.371 105.61C206.131 100.829 201.232 96.7776 195.556 93.7629C190.327 90.9837 180.977 86.5794 174.995 88.9111C170.614 90.6304 169.719 95.6471 171.415 99.6746C172.639 102.619 174.995 104.409 177.75 105.563C172.875 105.822 168.023 106.458 163.407 108.059C159.262 109.496 153.821 111.875 153.585 116.962C153.374 121.249 156.906 125.158 160.793 126.524C166.798 128.621 173.181 125.182 178.316 122.403C179.658 121.696 178.292 119.741 176.973 120.471C172.239 123.015 165.833 126.548 160.486 123.839C157.071 122.097 156.129 119.812 157.26 116.232C158.461 112.393 159.474 112.063 163.289 110.626C170.944 107.706 179.328 107.753 187.383 107.73C188.702 107.73 188.844 105.563 187.525 105.398C182.484 104.762 175.277 103.914 173.37 98.2379C171.815 93.5745 177.397 90.9366 181.189 91.0779C183.638 91.1721 186.535 92.4204 188.749 93.2683C197.44 96.5656 204.883 102.218 210.653 109.472C211.383 110.391 212.844 109.92 212.796 108.719C212.608 102.124 213.008 95.5529 214.257 89.0524C215.152 84.4126 215.929 77.1584 219.368 73.7433C226.056 67.1486 233.499 83.9651 235.006 87.3331C237.456 92.8444 239.128 98.6147 240.164 104.55C240.353 105.633 241.86 106.128 242.402 104.974C248.361 91.9965 257.004 80.4322 268.098 71.388C269.322 70.3753 270.594 69.339 271.913 68.444C272.926 67.8552 273.962 67.2664 274.975 66.6775C278.555 64.7698 280.604 65.7826 281.169 69.7629C283.43 74.1672 282.794 74.5676 281.24 78.8071C280.58 80.6206 279.874 82.4106 279.167 84.2241C276.27 91.808 273.397 99.3919 270.5 106.976C270.17 107.824 270.948 109.096 271.96 108.601C277.495 105.916 283.242 103.773 289.224 102.383C294.759 101.088 308.561 97.6726 312.777 102.878C314.826 103.89 315.038 105.492 313.413 107.682C313.813 109.896 313.154 111.286 311.411 111.828C310.304 112.652 308.608 113.076 307.336 113.453C304.321 114.324 301.212 114.937 298.151 115.667C291.156 117.339 284.16 119.011 277.165 120.683C275.705 121.037 276.506 123.251 277.966 122.897C288.376 120.401 299.517 118.752 309.597 115.196C314.308 113.594 319.112 109.873 316.946 104.291Z" fill="#B1DDD5"/>
<path d="M219.297 411.885V422.013H127.419V411.885H135.568H211.148H219.297Z" fill="#F47722"/>
<path d="M203.682 384.706L211.148 411.885H135.568L142.21 384.776H203.423L203.682 384.706Z" fill="#F79021"/>
<path d="M196.969 360.236L203.682 384.707L203.423 384.778H142.21L148.192 360.236H196.969Z" fill="#F9F9F9"/>
<path d="M185.688 319.089L196.969 360.235H148.192L158.273 319.089C158.273 319.089 163.454 329.287 173.37 329.287C183.285 329.287 185.688 319.089 185.688 319.089Z" fill="#F79021"/>
<path d="M158.273 319.089H185.711C185.711 319.089 183.262 329.287 173.37 329.287C163.478 329.287 158.273 319.089 158.273 319.089Z" fill="#F47722"/>
<path d="M379.948 127.796L379.006 127.372C379.501 126.194 379.925 124.97 380.278 123.721C381.95 117.833 381.998 111.592 380.749 105.586L382.516 105.256C394.48 99.1796 405.974 92.1374 416.808 84.2944C416.902 84.3415 416.996 84.3886 417.091 84.4357L413.628 108.153C413.369 108.177 413.11 108.224 412.851 108.271C410.661 108.695 408.541 109.967 407.528 111.945C406.539 113.829 406.681 116.043 407.034 118.186C395.281 122.12 384.306 125.817 379.948 127.796Z" fill="#00ACA1"/>
<path d="M400.015 193.273C398.955 183.64 390.288 176.668 380.655 177.704C370.998 178.741 364.027 187.408 365.063 197.064C366.123 206.721 374.79 213.693 384.423 212.633C394.08 211.596 401.051 202.929 400.015 193.273ZM373.566 160.747L390.924 158.862C390.406 160.747 390.123 162.748 390.123 164.798C390.123 172.193 393.679 178.788 399.191 182.909L401.099 163.667L412.309 158.556L415.324 186.301L421.895 246.925L371.399 252.389V251.989H321.868V257.759L294.547 260.727L284.749 170.379L325.895 165.905L334.633 164.962L366.359 161.524L373.566 160.747ZM327.544 243.51L384.682 237.316C384.682 237.316 380.043 213.127 352.722 216.071C325.401 219.039 327.544 243.51 327.544 243.51ZM322.245 219.604C331.901 218.544 338.873 209.877 337.837 200.244C336.777 190.588 328.109 183.616 318.453 184.652C308.82 185.712 301.848 194.379 302.885 204.036C303.921 213.669 312.612 220.64 322.245 219.604Z" fill="#C3D5D8"/>
<path d="M407.292 119.6C407.198 119.129 407.128 118.658 407.033 118.187C408.823 117.598 410.613 116.986 412.427 116.397L410.661 128.644C408.659 126.218 407.905 122.756 407.292 119.6Z" fill="#F2B481"/>
<path d="M282.488 367.137V395.376C269.158 391.608 254.767 390.265 241.578 394.481C227.988 398.815 216 410.026 213.645 424.11H188.985C189.244 409.743 195.321 395.612 205.519 385.508C210.606 384.66 215.223 381.056 217.554 376.346C225.939 369.351 236.208 364.617 246.971 362.827C258.7 360.872 270.971 362.379 281.853 367.137H282.488Z" fill="#00ACA1"/>
<path d="M364.121 143.435C364.427 145.955 364.757 148.452 365.087 150.972L333.173 154.411C332.796 151.938 332.419 149.488 332.043 147.015C317.676 146.803 303.968 137.076 298.645 123.698C293.299 110.25 296.502 93.9278 306.206 83.1643C315.909 72.4244 331.525 67.549 345.703 70.4224C359.905 73.2723 372.247 83.6118 378.017 96.8954C379.218 99.6746 380.16 102.595 380.749 105.586C381.997 111.592 381.95 117.834 380.278 123.722C379.925 124.97 379.501 126.195 379.006 127.372H378.983C376.109 134.273 370.857 140.232 364.121 143.435Z" fill="#F9A138"/>
<path d="M217.554 376.345C215.222 381.056 210.606 384.659 205.519 385.507C204.482 385.696 203.423 385.766 202.363 385.672L202.41 384.753C200.855 382.422 199.701 379.807 198.995 377.099L198.665 376.439C200.125 375.709 201.609 374.979 202.834 373.896C204.058 372.812 205.024 371.352 205.165 369.727C205.401 366.689 202.74 364.169 199.96 362.897C197.558 361.813 194.802 361.272 192.212 361.813C189.621 362.355 187.195 364.051 186.135 366.477C185.075 368.926 185.617 372.059 187.69 373.731L187.972 373.943C185.947 376.604 183.921 379.242 181.872 381.88C175.112 378.276 171.462 369.633 173.676 362.284C175.725 355.454 182.602 350.437 189.691 350.343C189.833 350.343 189.951 350.343 190.068 350.343V350.579C196.804 351.309 203.493 352.487 210.064 354.065C211.006 354.277 211.949 354.512 212.891 354.748L213.197 354.441C218.049 359.387 220.475 366.783 218.685 373.448C218.402 374.437 218.049 375.427 217.554 376.345Z" fill="#312A5E"/>
<path d="M373.589 160.746L366.382 161.524L334.657 164.962L325.919 165.904L324.789 155.329L333.197 154.411L365.11 150.972L372.459 150.171L373.589 160.746Z" fill="#312A5E"/>
<path d="M413.628 108.154L412.427 116.397C410.614 116.986 408.824 117.598 407.034 118.187C406.68 116.044 406.539 113.83 407.528 111.946C408.541 109.967 410.661 108.696 412.851 108.272C413.11 108.224 413.369 108.177 413.628 108.154Z" fill="#F2B481"/>
<path d="M371.093 407.152H371.517H398.838H401.57V421.378V421.99H336.801V407.152H371.093Z" fill="#312A5E"/>
<path d="M401.569 311.481V407.152H398.837H371.516H371.093V325.66H390.123V311.481H401.569Z" fill="#00ACA1"/>
<path d="M282.488 395.376V367.137V286.069V265.625H321.868H371.399H401.57V311.482H390.123V282.159H301.872V325.661H371.093V407.152H336.8V421.99H282.488V395.376Z" fill="#C3D5D8"/>
<path d="M400.015 193.272C401.051 202.928 394.08 211.596 384.423 212.632C374.79 213.692 366.123 206.72 365.063 197.064C364.027 187.407 370.998 178.74 380.655 177.704C390.288 176.667 398.955 183.639 400.015 193.272Z" fill="#312A5E"/>
<path d="M390.123 311.481V325.66H371.093V311.481H371.304H390.123Z" fill="#00ACA1"/>
<path d="M371.093 311.482V325.661H301.872V282.159H390.123V311.482H371.305H371.093ZM359.882 299.824V289.672H308.631V299.824H359.882ZM352.086 314.026C352.086 311.623 350.154 309.668 347.752 309.668C345.35 309.668 343.418 311.623 343.418 314.026C343.418 316.404 345.35 318.359 347.752 318.359C350.154 318.359 352.086 316.404 352.086 314.026ZM334.916 314.026C334.916 311.623 332.961 309.668 330.582 309.668C328.18 309.668 326.225 311.623 326.225 314.026C326.225 316.404 328.18 318.359 330.582 318.359C332.961 318.359 334.916 316.404 334.916 314.026ZM316.781 314.026C316.781 311.623 314.849 309.668 312.447 309.668C310.045 309.668 308.113 311.623 308.113 314.026C308.113 316.404 310.045 318.359 312.447 318.359C314.849 318.359 316.781 316.404 316.781 314.026Z" fill="#F9F9F9"/>
<path d="M384.683 237.315L327.544 243.509C327.544 243.509 325.401 219.038 352.722 216.071C380.043 213.127 384.683 237.315 384.683 237.315Z" fill="#00ACA1"/>
<path d="M371.399 252.389V265.625H321.868V257.759L371.399 252.389Z" fill="#312A5E"/>
<path d="M371.399 251.988V252.389L321.868 257.759V251.988H371.399Z" fill="#C3D5D8"/>
<path d="M359.882 289.672H308.632V299.823H359.882V289.672Z" fill="#312A5E"/>
<path d="M347.752 309.669C350.154 309.669 352.086 311.624 352.086 314.026C352.086 316.405 350.154 318.36 347.752 318.36C345.35 318.36 343.418 316.405 343.418 314.026C343.418 311.624 345.35 309.669 347.752 309.669Z" fill="#F47722"/>
<path d="M337.837 200.244C338.873 209.877 331.902 218.544 322.245 219.604C312.612 220.64 303.921 213.669 302.885 204.036C301.849 194.379 308.82 185.712 318.453 184.652C328.11 183.616 336.777 190.587 337.837 200.244Z" fill="#312A5E"/>
<path d="M330.583 309.669C332.961 309.669 334.916 311.624 334.916 314.026C334.916 316.405 332.961 318.36 330.583 318.36C328.18 318.36 326.225 316.405 326.225 314.026C326.225 311.624 328.18 309.669 330.583 309.669Z" fill="#F47722"/>
<path d="M312.447 309.669C314.849 309.669 316.781 311.624 316.781 314.026C316.781 316.405 314.849 318.36 312.447 318.36C310.045 318.36 308.113 316.405 308.113 314.026C308.113 311.624 310.045 309.669 312.447 309.669Z" fill="#F47722"/>
<path d="M190.069 350.343C189.951 350.343 189.833 350.343 189.692 350.343L189.668 349.731C192.801 326.956 204.295 305.405 221.488 290.143C238.21 275.281 260.137 266.449 282.489 265.554V265.625V286.068C264.66 287.293 247.348 294.83 234.3 307.007C221.182 319.277 212.467 336.165 210.065 353.97V354.064C203.494 352.486 196.805 351.309 190.069 350.579V350.343Z" fill="#00ACA1"/>
<path d="M279.238 142.399L278.178 164.915L271.489 151.066L261.409 155.046L252.859 138.748L267.155 127.254L269.04 144.966L279.238 142.399Z" fill="#F9A138"/>
<path d="M275.776 176.573L262.987 182.485L256.887 201.468L243.062 196.31V180.86L255.662 184.864L257.852 174.666L275.776 176.573Z" fill="#F9A138"/>
<path d="M341.534 152.761C334.657 138.583 327.779 124.381 320.902 110.202C320.243 108.86 318.029 109.637 318.688 111.003C325.566 125.182 332.443 139.384 339.32 153.562C339.98 154.905 342.194 154.128 341.534 152.761Z" fill="#F9F9F9"/>
<path d="M364.122 109.096C363.344 110.745 362.308 112.323 360.848 113.453C360.377 113.83 359.764 114.113 359.105 114.348C359.129 110.815 359.152 107.282 359.152 103.749C359.152 102.242 356.82 102.43 356.797 103.938C356.773 107.588 356.75 111.216 356.726 114.866C354.889 115.055 352.958 114.819 351.686 114.089C350.932 113.665 350.343 112.746 349.849 111.687C352.393 108.413 353.923 102.69 350.202 101.112C345.916 99.2745 345.986 104.739 347.023 109.308C346.481 109.402 345.939 109.496 345.397 109.614C345.939 103.797 344.102 97.0841 340.499 93.457C334.799 87.7102 333.15 97.3432 334.139 101.512C335.011 105.163 337.79 111.027 341.77 113.288C340.687 115.62 338.873 117.481 336.636 117.787C337.39 112.911 336.259 106.693 331.501 106.01C325.26 105.139 326.673 114.183 328.981 117.127C330.159 118.611 331.643 119.577 333.197 120.071C330.842 124.405 325.59 126.949 321.138 121.626C320.173 120.472 318.218 121.791 319.207 122.968C323.541 128.15 331.172 128.15 335.081 122.309C335.411 121.814 335.717 121.178 335.976 120.472C338.944 120.401 341.888 118.799 343.56 115.855C343.867 115.314 344.126 114.748 344.338 114.16C345.209 114.277 346.128 114.207 347.093 113.901C347.47 113.783 347.847 113.547 348.224 113.265C348.459 113.83 348.718 114.301 348.93 114.56C351.121 117.339 353.947 118.116 356.703 117.669C356.632 128.856 356.585 140.044 356.514 151.255C356.514 152.762 358.846 152.574 358.869 151.066C358.94 139.714 358.987 128.338 359.058 116.986C362.073 115.714 364.805 113.1 366.218 110.109C366.901 108.743 364.781 107.706 364.122 109.096ZM332.608 116.656C330.418 115.149 327.639 112.111 330.96 110.533C333.574 109.284 333.904 111.286 334.375 113.83C334.61 115.031 334.516 116.279 334.234 117.481C333.715 117.292 333.174 117.033 332.608 116.656ZM341.77 110.273C340.97 109.402 340.192 108.531 339.392 107.659C338.355 106.222 337.554 104.432 336.966 102.76C336.589 101.677 335.199 97.2725 336.118 96.2833C337.319 96.2362 338.52 96.2126 339.698 96.1655C340.522 97.2961 341.158 98.5208 341.582 99.8162C342.642 102.737 343.019 105.846 342.877 108.931C342.854 109.308 342.807 109.685 342.76 110.085C342.453 110.156 342.1 110.203 341.77 110.273Z" fill="#F9F9F9"/>
<path d="M329.523 210.277C326.626 208.393 323.729 206.533 320.903 204.554C318.971 207.38 316.993 210.16 314.991 212.939C313.931 214.376 311.67 212.845 312.73 211.408C314.732 208.629 316.71 205.826 318.642 203C316.027 201.233 313.413 199.373 310.846 197.512C309.409 196.499 310.94 194.238 312.377 195.275C314.944 197.135 317.558 198.972 320.172 200.762C321.962 198.124 323.729 195.439 325.472 192.754C326.437 191.271 328.675 192.802 327.733 194.285C325.99 196.994 324.223 199.655 322.41 202.317C325.26 204.248 328.157 206.156 331.054 208.04C332.538 208.959 331.007 211.22 329.523 210.277Z" fill="#F9F9F9"/>
<path d="M390.194 202.717C387.297 200.833 384.4 198.973 381.574 196.994C379.642 199.82 377.664 202.6 375.662 205.379C374.602 206.816 372.341 205.285 373.401 203.848C375.403 201.069 377.381 198.266 379.313 195.44C376.698 193.673 374.084 191.813 371.517 189.952C370.08 188.939 371.611 186.678 373.048 187.714C375.615 189.575 378.229 191.412 380.844 193.202C382.634 190.564 384.4 187.879 386.143 185.194C387.109 183.711 389.346 185.241 388.404 186.725C386.661 189.434 384.895 192.095 383.081 194.757C385.931 196.688 388.828 198.596 391.725 200.48C393.209 201.375 391.678 203.636 390.194 202.717Z" fill="#F9F9F9"/>
<path d="M340.663 241.131C339.509 235.62 338.355 230.109 337.201 224.621C336.894 223.161 334.539 223.326 334.845 224.81C335.999 230.321 337.153 235.832 338.307 241.32C338.637 242.78 340.992 242.615 340.663 241.131Z" fill="#067C70"/>
<path d="M348.718 217.579C348.53 216.071 346.174 216.26 346.363 217.767L349.26 240.33C349.448 241.838 351.803 241.649 351.615 240.142L348.718 217.579Z" fill="#067C70"/>
<path d="M359.952 217.766C359.952 216.258 357.597 216.423 357.597 217.954C357.644 225.091 357.691 232.251 357.738 239.387C357.738 240.894 360.093 240.729 360.093 239.199C360.046 232.039 359.999 224.902 359.952 217.766Z" fill="#067C70"/>
<path d="M369.538 219.839C368.525 225.892 367.513 231.969 366.523 238.022C366.264 239.506 368.596 239.977 368.832 238.469C369.844 232.416 370.857 226.34 371.846 220.287C372.105 218.803 369.797 218.356 369.538 219.839Z" fill="#067C70"/>
<path d="M400.816 323.447C391.277 323.211 381.738 322.999 372.2 322.764C370.622 322.717 370.81 325.072 372.388 325.119C381.927 325.355 391.466 325.567 401.004 325.802C402.582 325.849 402.37 323.494 400.816 323.447Z" fill="#067C70"/>
<path d="M400.816 337.884C391.277 337.649 381.738 337.437 372.2 337.201C370.622 337.154 370.81 339.51 372.388 339.557C381.927 339.792 391.466 340.004 401.004 340.24C402.582 340.263 402.37 337.932 400.816 337.884Z" fill="#067C70"/>
<path d="M400.816 351.591C391.277 351.356 381.738 351.144 372.2 350.908C370.622 350.861 370.81 353.217 372.388 353.264C381.927 353.499 391.466 353.711 401.004 353.947C402.582 353.97 402.37 351.639 400.816 351.591Z" fill="#067C70"/>
<path d="M400.816 366.03C391.277 365.794 381.738 365.582 372.2 365.347C370.622 365.3 370.81 367.655 372.388 367.702C381.927 367.938 391.466 368.15 401.004 368.385C402.582 368.409 402.37 366.077 400.816 366.03Z" fill="#067C70"/>
<path d="M400.816 381.197C391.277 380.962 381.738 380.75 372.2 380.514C370.622 380.467 370.81 382.823 372.388 382.87C381.927 383.105 391.466 383.317 401.004 383.553C402.582 383.576 402.37 381.221 400.816 381.197Z" fill="#067C70"/>
<path d="M400.816 395.635C391.277 395.399 381.738 395.187 372.2 394.952C370.622 394.905 370.81 397.26 372.388 397.307C381.927 397.543 391.466 397.755 401.004 397.99C402.582 398.014 402.37 395.658 400.816 395.635Z" fill="#067C70"/>
<path d="M266.284 271.255C266.072 269.771 263.717 269.936 263.929 271.443C264.683 276.789 265.436 282.136 266.19 287.482C266.402 288.966 268.757 288.801 268.545 287.294C267.792 281.947 267.038 276.601 266.284 271.255Z" fill="#067C70"/>
<path d="M252.93 292.475C250.127 287.246 247.301 281.994 244.498 276.765C243.791 275.423 241.837 276.789 242.567 278.108C245.369 283.336 248.196 288.589 250.998 293.817C251.705 295.136 253.636 293.794 252.93 292.475Z" fill="#067C70"/>
<path d="M240.494 300.483C236.773 295.254 233.075 290.002 229.354 284.774C228.483 283.549 226.528 284.868 227.423 286.116C231.144 291.345 234.842 296.597 238.563 301.826C239.435 303.05 241.366 301.731 240.494 300.483Z" fill="#067C70"/>
<path d="M228.647 310.398C224.054 306.371 219.438 302.344 214.845 298.316C213.691 297.327 212.16 299.093 213.314 300.106C217.907 304.134 222.523 308.161 227.116 312.189C228.27 313.178 229.801 311.411 228.647 310.398Z" fill="#067C70"/>
<path d="M219.038 323.517C213.715 320.479 208.369 317.441 203.046 314.402C201.727 313.649 200.714 315.768 202.01 316.522C207.333 319.56 212.679 322.598 218.002 325.637C219.321 326.39 220.334 324.247 219.038 323.517Z" fill="#067C70"/>
<path d="M211.854 340.051C205.919 338.191 200.007 336.33 194.072 334.469C192.635 334.022 192.188 336.33 193.625 336.778C199.56 338.638 205.472 340.499 211.407 342.359C212.867 342.831 213.291 340.499 211.854 340.051Z" fill="#067C70"/>
<path d="M217.06 412.546C210.442 409.625 203.823 406.705 197.229 403.784C195.839 403.172 194.803 405.292 196.192 405.904C202.811 408.824 209.429 411.745 216.024 414.665C217.413 415.278 218.449 413.158 217.06 412.546Z" fill="#067C70"/>
<path d="M227.234 401.783L211.901 385.178C210.865 384.071 209.358 385.861 210.37 386.968C215.481 392.503 220.592 398.038 225.703 403.573C226.716 404.68 228.247 402.89 227.234 401.783Z" fill="#067C70"/>
<path d="M239.058 393.563C236.396 385.555 233.711 377.57 231.05 369.563C230.579 368.126 228.341 368.927 228.836 370.363C231.497 378.371 234.182 386.356 236.844 394.363C237.338 395.8 239.552 394.999 239.058 393.563Z" fill="#067C70"/>
<path d="M247.442 364.757C247.277 363.25 244.922 363.415 245.087 364.946C246.147 373.896 247.183 382.846 248.243 391.772C248.408 393.28 250.763 393.115 250.598 391.584C249.538 382.657 248.502 373.707 247.442 364.757Z" fill="#067C70"/>
<path d="M264.989 364.969C264.447 373.59 263.929 382.233 263.387 390.854C263.293 392.337 265.601 392.808 265.695 391.301C266.237 382.681 266.755 374.037 267.297 365.417C267.391 363.933 265.083 363.462 264.989 364.969Z" fill="#067C70"/>
<path d="M278.697 368.125C277.236 376.11 275.8 384.094 274.339 392.102C274.08 393.586 276.388 394.057 276.647 392.549C278.108 384.565 279.544 376.581 281.005 368.573C281.287 367.089 278.956 366.642 278.697 368.125Z" fill="#067C70"/>
<path d="M297.091 221.418C296.973 219.91 294.618 220.075 294.736 221.606C295.136 226.411 295.56 231.215 295.96 235.997C296.078 237.504 298.433 237.339 298.316 235.808C297.915 231.004 297.491 226.222 297.091 221.418Z" fill="#A2BABC"/>
<path d="M301.966 233.688C301.872 232.181 299.517 232.346 299.611 233.877C299.823 237.268 300.035 240.66 300.247 244.028C300.341 245.535 302.696 245.37 302.602 243.839C302.39 240.471 302.178 237.08 301.966 233.688Z" fill="#A2BABC"/>
<path d="M298.151 245.982C298.08 244.475 295.725 244.64 295.796 246.171C295.913 248.785 296.031 251.399 296.149 254.013C296.219 255.521 298.575 255.356 298.504 253.825C298.386 251.187 298.269 248.573 298.151 245.982Z" fill="#A2BABC"/>
<path d="M413.11 212.938C413.039 211.431 410.684 211.596 410.755 213.127L411.391 225.397C411.461 226.905 413.817 226.74 413.746 225.209C413.534 221.134 413.322 217.036 413.11 212.938Z" fill="#A2BABC"/>
<path d="M411.627 232.816V239.811C411.627 241.318 413.982 241.154 413.982 239.623V232.628C413.982 231.12 411.627 231.309 411.627 232.816Z" fill="#A2BABC"/>
<path d="M408.682 226.081C408.588 224.573 406.233 224.738 406.327 226.269C406.469 228.601 406.61 230.933 406.751 233.264C406.845 234.772 409.201 234.607 409.106 233.076C408.965 230.721 408.824 228.389 408.682 226.081Z" fill="#A2BABC"/>
<path d="M322.104 328.18C313.884 327.992 305.664 327.803 297.421 327.639C297.326 322.716 297.232 317.794 297.138 312.895C297.114 311.387 294.759 311.552 294.783 313.083C294.877 318.147 294.971 323.211 295.065 328.274C294.83 328.957 295.23 329.97 296.219 329.97C304.91 330.159 313.578 330.371 322.268 330.559C323.799 330.559 323.611 328.204 322.104 328.18Z" fill="#A2BABC"/>
<path d="M358.092 327.31C349.542 327.616 341.017 327.922 332.467 328.228C330.96 328.275 331.124 330.631 332.655 330.583C341.205 330.277 349.731 329.971 358.28 329.665C359.788 329.594 359.623 327.239 358.092 327.31Z" fill="#A2BABC"/>
<path d="M352.392 332.161C347.446 332.349 342.5 332.514 337.578 332.703C336.07 332.75 336.235 335.105 337.766 335.058C342.712 334.869 347.658 334.705 352.58 334.516C354.088 334.469 353.899 332.114 352.392 332.161Z" fill="#A2BABC"/>
<path d="M288.565 360.707C288.541 359.2 286.186 359.365 286.21 360.896C286.398 373.308 286.61 385.743 286.798 398.156C286.822 399.663 289.177 399.498 289.154 397.967C288.965 385.555 288.753 373.143 288.565 360.707Z" fill="#A2BABC"/>
<path d="M289.059 403.691C288.989 402.183 286.634 402.348 286.704 403.879C286.916 407.836 287.128 411.793 287.34 415.726C287.411 417.233 289.766 417.068 289.695 415.537C289.483 411.604 289.271 407.647 289.059 403.691Z" fill="#A2BABC"/>
<path d="M294.171 395.235C294.053 393.727 291.698 393.892 291.815 395.423C292.098 399.168 292.381 402.913 292.663 406.634C292.781 408.141 295.136 407.976 295.018 406.446C294.736 402.701 294.453 398.956 294.171 395.235Z" fill="#A2BABC"/>
<path d="M287.364 142.682C287.246 148.546 287.105 154.434 286.987 160.299C286.963 161.806 289.295 161.618 289.342 160.111C289.46 154.246 289.601 148.358 289.719 142.493C289.743 140.986 287.411 141.174 287.364 142.682Z" fill="#F9A138"/>
<path d="M272.337 167.788C267.509 165.197 262.68 162.63 257.876 160.039C256.533 159.333 255.52 161.452 256.839 162.159C261.668 164.75 266.496 167.317 271.301 169.908C272.643 170.614 273.679 168.495 272.337 167.788Z" fill="#F9A138"/>
<path d="M275.564 184.817L266.496 192.566C265.366 193.531 266.685 195.486 267.839 194.497C270.854 191.906 273.892 189.339 276.907 186.748C278.037 185.783 276.718 183.851 275.564 184.817Z" fill="#F9A138"/>
<path d="M307.996 88.6516C300.883 98.0255 299.046 109.919 303.097 120.989C303.615 122.402 305.829 121.625 305.311 120.188C301.542 109.919 303.144 98.9205 309.786 90.1825C310.704 88.9813 308.914 87.4504 307.996 88.6516Z" fill="#F7BC39"/>
<path d="M360.565 81.8456C359.246 81.0919 358.21 83.2116 359.529 83.9653C368.808 89.194 374.343 98.7563 374.437 109.378C374.461 110.886 376.793 110.721 376.793 109.19C376.698 97.72 370.551 87.4746 360.565 81.8456Z" fill="#F7BC39"/>
<path d="M372.482 119.341C372.341 125.394 369.986 130.859 365.77 135.216C364.71 136.299 366.5 137.83 367.56 136.747C372.2 131.942 374.673 125.818 374.814 119.153C374.861 117.646 372.506 117.834 372.482 119.341Z" fill="#F7BC39"/>
<path d="M318.029 138.795C314.543 137.005 311.717 134.391 309.668 131.046C308.867 129.751 306.936 131.094 307.737 132.389C309.974 136.063 313.177 138.96 316.993 140.915C318.335 141.598 319.372 139.478 318.029 138.795Z" fill="#F7BC39"/>
<path d="M318.194 77.9122C316.263 79.5844 314.331 81.2566 312.424 82.9288C311.293 83.918 312.612 85.8729 313.766 84.8601L319.537 79.8435C320.667 78.8778 319.348 76.923 318.194 77.9122Z" fill="#F7BC39"/>
<path d="M316.969 84.9306C314.567 87.9689 312.165 91.0072 309.762 94.0454C308.82 95.223 310.61 96.7775 311.552 95.5763C313.954 92.5381 316.357 89.4998 318.759 86.4615C319.678 85.2839 317.911 83.753 316.969 84.9306Z" fill="#F7BC39"/>
<path d="M370.598 105.61C370.41 104.103 368.054 104.291 368.243 105.798C368.926 110.886 368.761 115.902 367.795 120.943C367.513 122.427 369.821 122.874 370.103 121.39C371.116 116.138 371.304 110.909 370.598 105.61Z" fill="#F7BC39"/>
<path d="M616.651 411.815V421.943H524.773V411.815H532.946H608.502H616.651Z" fill="#F47722"/>
<path d="M601.059 384.635L608.502 411.815H532.946L539.564 384.706H600.8L601.059 384.635Z" fill="#F79021"/>
<path d="M594.323 360.166L601.059 384.637L600.8 384.707H539.564L545.57 360.166H594.323Z" fill="#F9F9F9"/>
<path d="M583.065 319.019L594.347 360.165H545.57L555.65 319.019C555.65 319.019 560.832 329.217 570.747 329.217C580.663 329.217 583.065 319.019 583.065 319.019Z" fill="#F79021"/>
<path d="M555.627 319.019H583.066C583.066 319.019 580.616 329.217 570.724 329.217C560.832 329.217 555.627 319.019 555.627 319.019Z" fill="#F47722"/>
<path d="M477.244 216.683C464.549 217.672 451.783 217.672 439.089 216.706C439.301 210.771 439.536 204.883 439.772 199.018C465.962 198.641 492.105 196.145 517.872 191.599C520.934 220.427 518.672 261.409 518.578 290.331C535.23 318.429 550.044 347.681 561.09 378.394L560.667 378.535C560.549 378.771 560.431 378.983 560.29 379.195C557.016 384.847 551.151 388.898 544.745 390.099L544.792 390.311C543.991 390.971 543.214 391.63 542.437 392.337L542.319 392.196C525.903 362.896 508.875 333.927 491.305 305.287C486.735 275.941 482.166 246.547 477.573 217.201L477.173 217.154C477.197 216.989 477.22 216.847 477.244 216.683Z" fill="#F9A138"/>
<path d="M437.911 400.605C437.44 400.84 436.946 401.076 436.475 401.335L436.286 400.982C435.438 345.916 436.734 280.04 439.089 216.707C451.784 217.673 464.549 217.673 477.244 216.684C477.22 216.848 477.197 216.99 477.173 217.155C473.028 247.82 467.87 278.344 461.747 308.656C460.993 339.251 460.239 369.845 456.706 400.252L455.929 400.157C450.017 400.77 444.059 401.029 438.1 400.958L437.911 400.605Z" fill="#F79021"/>
<path d="M517.919 131.305C513.727 140.891 509.016 150.265 504.329 159.592L503.623 159.239C501.008 160.723 497.758 159.733 494.955 158.673C476.844 151.796 459.721 142.752 442.81 133.26C443.116 127.537 443.423 121.908 443.729 116.397C459.226 122.379 474.936 127.89 490.787 132.931C493.966 113.476 498.182 93.857 507.509 76.5224C509.417 72.966 512.008 69.1976 515.964 68.5146C516.977 68.3261 517.99 68.3968 518.979 68.6088C521.499 69.1976 523.807 70.9876 525.48 73.0602C528.848 77.2761 530.308 82.7638 530.402 88.1573C530.496 93.5508 529.319 98.8737 527.858 104.079C525.268 113.406 521.805 122.45 517.919 131.305Z" fill="#00ACA1"/>
<path d="M408.942 141.48C410.261 141.221 411.627 141.103 413.04 141.103C417.727 141.103 422.061 142.516 425.688 144.966C431.694 149.017 435.651 155.894 435.651 163.69C435.651 173.064 429.951 181.072 421.849 184.51L425.499 164.067L412.899 157.331L412.64 157.448L412.428 155.446L391.254 157.755C393.492 149.441 400.369 143.058 408.942 141.48Z" fill="#312A5E"/>
<path d="M504.329 159.592C509.016 150.265 513.727 140.892 517.919 131.306C518.366 151.325 518.814 171.345 519.261 191.364C518.79 191.459 518.343 191.529 517.872 191.6C492.105 196.146 465.962 198.642 439.772 199.019C440.243 187.149 440.761 175.443 441.303 163.949C441.797 153.516 442.292 143.247 442.81 133.261C459.721 142.752 476.843 151.796 494.955 158.674C497.758 159.734 501.008 160.723 503.623 159.239L504.329 159.592Z" fill="#00ACA1"/>
<path d="M488.078 62.6025C498.582 63.3091 509.016 65.1698 519.12 68.1374L518.979 68.6084C517.99 68.3964 516.977 68.3258 515.964 68.5142C512.007 69.1972 509.416 72.9656 507.509 76.5221C498.182 93.8567 493.966 113.476 490.786 132.93C474.936 127.89 459.226 122.379 443.729 116.396C443.964 112.251 444.2 108.177 444.435 104.149C441.585 105.444 435.933 107.47 429.079 109.802L431.458 84.4357C437.817 82.4102 442.692 77.0638 444.058 70.422L445.283 70.6339C450.629 68.2787 456.353 66.7713 462.17 66.1825C462.147 66.5829 462.123 66.9833 462.099 67.3837L461.911 67.5015C464.973 73.0127 467.681 78.6653 470.06 84.4828L470.79 85.0716C476.631 77.8645 482.472 70.7046 488.29 63.4975C488.29 63.4975 488.219 63.1678 488.078 62.6025Z" fill="#00ACA1"/>
<path d="M442.81 133.26C438.641 130.952 434.52 128.597 430.375 126.265C430.586 121.673 431.175 117.103 432.165 112.605C432.235 112.652 432.329 112.699 432.4 112.746L433.578 112.417C436.946 113.759 440.337 115.101 443.729 116.397C443.423 121.908 443.116 127.537 442.81 133.26Z" fill="#00ACA1"/>
<path d="M429.079 109.801L428.985 110.79C428.632 110.602 428.232 110.414 427.855 110.225C428.255 110.084 428.679 109.943 429.079 109.801Z" fill="#312A5E"/>
<path d="M425.782 85.3075C427.76 85.3075 429.668 85.0013 431.458 84.4361L429.079 109.802C428.679 109.943 428.255 110.085 427.854 110.226C425.287 109.025 422.579 108.106 419.8 107.494C417.892 107.07 415.89 106.787 413.958 107.046L417.421 83.3291C419.941 84.6009 422.767 85.3075 425.782 85.3075Z" fill="#312A5E"/>
<path d="M428.985 110.791L427.336 128.361C424.981 129.351 422.178 130.363 420.388 130.623C417.727 131.046 414.83 130.693 412.639 129.115C412.003 128.668 411.462 128.126 410.991 127.537L412.757 115.29C417.962 113.571 423.167 111.828 427.854 110.226C428.231 110.414 428.632 110.603 428.985 110.791Z" fill="#F2B481"/>
<path d="M419.8 107.494C422.579 108.106 425.287 109.024 427.854 110.226C423.168 111.827 417.962 113.57 412.757 115.289L413.958 107.046C415.89 106.787 417.892 107.07 419.8 107.494Z" fill="#F2B481"/>
<path d="M566.744 387.863C568.086 391.089 568.227 395.07 566.178 397.92C564.765 399.874 562.528 401.076 560.337 402.159C547.007 408.754 533.134 414.265 518.885 418.575C525.621 408.895 533.558 400.063 542.437 392.338C543.215 391.631 543.992 390.972 544.793 390.312L544.746 390.1C551.152 388.899 557.016 384.848 560.29 379.195L560.62 379.384C562.975 381.975 565.378 384.636 566.744 387.863Z" fill="#312A5E"/>
<path d="M483.839 43.2189C484.357 46.3514 487.277 59.1168 488.078 62.6026C488.219 63.1678 488.29 63.4976 488.29 63.4976C482.473 70.7046 476.632 77.8646 470.791 85.0716L470.061 84.4828C467.682 78.6654 464.973 73.0128 461.911 67.5015L462.1 67.3837C462.123 66.9833 462.147 66.5829 462.17 66.1825C462.335 63.0265 462.524 59.894 462.736 56.7616C457.978 56.526 452.961 55.8195 449.641 52.475C446.437 49.2248 445.684 44.3729 445.118 39.8509C444.2 32.8322 443.305 25.8136 442.41 18.795C453.856 18.4417 465.303 18.0648 476.773 17.688C477.48 22.2101 478.657 26.6379 480.259 30.9245L480.612 31.0893C481.483 29.3465 482.638 27.7213 484.357 26.8264C485.511 26.214 486.924 26.0727 488.125 26.426C488.926 26.6615 489.609 27.109 490.104 27.7684C491.093 29.1109 490.975 30.9716 490.622 32.5967C489.656 36.7655 487.207 40.581 483.839 43.2189Z" fill="#F2B481"/>
<path d="M442.363 18.4653L442.033 18.5124C439.183 16.0865 436.239 13.4957 434.991 9.96281C433.719 6.45349 434.826 1.7901 438.288 0.4005C440.102 -0.306074 442.174 0.000108139 443.988 0.706683C445.778 1.41326 447.403 2.52022 449.099 3.46232C454.775 6.5948 461.299 7.91374 467.776 8.17282C472.887 8.38479 477.974 7.9844 483.038 7.46624L487.301 7.60756C487.607 13.8254 487.89 20.0668 488.172 26.2847L488.125 26.426C486.924 26.0727 485.511 26.214 484.357 26.8264C482.638 27.7214 481.483 29.3465 480.612 31.0894L480.259 30.9245C478.657 26.638 477.48 22.2101 476.773 17.688C465.303 18.0649 453.856 18.4417 442.41 18.795C442.386 18.6772 442.386 18.583 442.363 18.4653Z" fill="#312A5E"/>
<path d="M457.154 400.934C457.742 405.998 457.884 411.132 457.53 416.22L457.625 418.386C441.538 419.14 425.428 419.917 409.342 420.695L409.201 417.538C417.962 411.603 427.077 406.163 436.474 401.334C436.946 401.075 437.44 400.84 437.911 400.604L438.1 400.958C444.058 401.028 450.017 400.769 455.929 400.157L456.706 400.251C456.682 400.463 456.659 400.698 456.635 400.91L457.154 400.934Z" fill="#312A5E"/>
<path d="M417.138 83.1881C411.179 80.0792 407.105 73.8613 407.105 66.6542C407.105 58.929 411.815 52.3108 418.504 49.4609L415.489 66.3481L425.9 71.9065L435.368 67.5963L436.946 51.6984C441.491 55.1135 444.435 60.5542 444.435 66.6542C444.435 67.9496 444.294 69.1979 444.059 70.4226C442.693 77.0644 437.817 82.4109 431.458 84.4364C429.668 85.0016 427.76 85.3078 425.782 85.3078C422.767 85.3078 419.941 84.6012 417.421 83.3294C417.326 83.2823 417.232 83.2352 417.138 83.1881Z" fill="#312A5E"/>
<path d="M430.374 126.265C430.351 126.524 430.327 126.759 430.327 127.018C429.527 127.395 428.49 127.866 427.336 128.361L428.985 110.791C430.092 111.332 431.128 111.945 432.164 112.604C431.175 117.103 430.586 121.672 430.374 126.265Z" fill="#F2B481"/>
<path d="M427.336 128.361L425.782 144.801L425.688 144.966C422.061 142.516 417.727 141.103 413.04 141.103C411.627 141.103 410.261 141.221 408.942 141.48L410.991 127.537C411.462 128.126 412.004 128.668 412.64 129.115C414.83 130.693 417.727 131.046 420.388 130.622C422.178 130.363 424.981 129.351 427.336 128.361Z" fill="#312A5E"/>
<path d="M412.428 155.447L412.64 157.449L401.429 162.56L399.521 181.802C394.01 177.681 390.453 171.086 390.453 163.691C390.453 161.642 390.736 159.64 391.254 157.755L412.428 155.447Z" fill="#312A5E"/>
<path d="M450.724 24.495C448.486 24.0946 446.319 24.5421 444.412 25.7904C443.14 26.6147 444.482 28.5696 445.754 27.7217C447.12 26.8267 448.675 26.5205 450.276 26.8031C451.76 27.0622 452.208 24.754 450.724 24.495Z" fill="#312A5E"/>
<path d="M469.919 25.06C467.116 23.9295 464.149 23.8588 461.299 24.9187C459.886 25.4604 460.663 27.6743 462.1 27.1326C464.337 26.2847 466.669 26.2847 468.883 27.1797C470.296 27.745 471.332 25.6252 469.919 25.06Z" fill="#312A5E"/>
<path d="M449.24 29.7933C448.769 29.2516 447.897 29.0632 447.379 29.6991C447.238 29.864 447.144 30.0524 447.05 30.2173C446.932 30.335 446.838 30.4763 446.767 30.6648C446.461 31.5833 446.178 32.549 446.696 33.4439C447.144 34.1976 447.992 34.6451 448.863 34.4567C451.077 33.9386 450.3 30.9945 449.24 29.7933Z" fill="#312A5E"/>
<path d="M467.187 31.4893C466.975 30.241 465.986 28.9928 464.573 29.5109C463.442 29.9349 463.183 31.0183 463.372 32.031C463.325 33.2322 463.796 34.4569 465.232 34.5276C466.905 34.6218 467.399 32.8318 467.187 31.4893Z" fill="#312A5E"/>
<path d="M458.473 45.81C458.237 44.2084 456.894 42.1829 455.034 43.2663C454.893 43.3605 454.775 43.4783 454.657 43.5725C454.304 43.6667 454.045 43.9493 453.998 44.4439C453.88 45.9748 453.927 48.7069 455.74 49.2957C457.931 50.0023 458.708 47.4586 458.473 45.81Z" fill="#312A5E"/>
<path d="M456.188 39.3796C454.021 39.2618 454.728 37.5189 455.058 35.9409C455.411 34.3629 455.741 32.7613 456.094 31.1833C456.424 29.6995 454.092 29.252 453.786 30.7358C453.48 32.1961 453.15 33.6563 452.844 35.1166C452.585 36.2942 452.161 37.5425 452.208 38.7437C452.278 40.7927 453.927 41.57 455.764 41.6877C457.224 41.7819 457.695 39.4738 456.188 39.3796Z" fill="#E08B4B"/>
<path d="M476.113 41.2404C475.571 37.7311 470.955 36.2472 468.6 39.0029C467.823 39.8979 467.611 41.0284 467.799 42.0647C467.799 43.3601 468.341 44.6555 469.66 45.4798C472.651 47.3405 476.655 44.7732 476.113 41.2404Z" fill="#E08B4B"/>
<path d="M516.624 68.1141C506.284 71.8825 501.479 81.539 498.535 91.5253C494.484 105.233 491.823 119.388 490.057 133.566C490.033 133.543 490.009 133.519 489.962 133.496C475.43 126.571 460.545 120.471 445.33 115.243C443.917 114.748 442.857 116.868 444.294 117.362C459.509 122.591 474.394 128.691 488.926 135.616C489.373 135.828 489.774 135.733 490.057 135.498C490.575 136.322 492.058 136.393 492.2 135.192C493.613 123.486 495.709 111.898 498.559 100.452C501.479 88.7932 504.8 74.8972 517.425 70.3281C518.838 69.8099 518.06 67.596 516.624 68.1141Z" fill="#067C70"/>
<path d="M515.988 132.578C512.997 139.337 510.006 146.097 507.014 152.833C505.931 155.282 505.554 156.695 503.105 158.156C500.137 159.922 498.488 158.58 495.38 157.378C491.964 156.083 488.573 154.67 485.228 153.233C471.78 147.463 458.755 140.75 446.202 133.214C444.907 132.436 443.87 134.556 445.166 135.333C460.852 144.731 477.268 152.88 494.343 159.498C498.441 161.076 503.27 163.808 506.52 159.522C508.899 156.342 510.218 151.42 511.819 147.793C513.915 143.059 516.011 138.324 518.108 133.614C518.72 132.224 516.6 131.188 515.988 132.578Z" fill="#067C70"/>
<path d="M444.223 81.068L443.422 100.428C443.352 101.935 445.707 101.747 445.777 100.24C446.037 93.7863 446.319 87.333 446.578 80.8796C446.649 79.3722 444.294 79.5606 444.223 81.068Z" fill="#067C70"/>
</g>
<defs>
<clipPath id="clip0_67_34">
<rect width="655.654" height="449.782" fill="white"/>
</clipPath>
</defs>
</svg>
