<svg width="462" height="401" viewBox="0 0 462 401" fill="none" xmlns="http://www.w3.org/2000/svg">
<path d="M452.376 237.184C443.363 261.775 429.139 286.469 410.576 308.933C407.304 312.896 403.894 316.79 400.346 320.613C391.728 329.907 382.457 338.573 372.603 346.546C368.356 349.983 363.986 353.292 359.493 356.471C352.98 361.086 346.222 365.405 339.219 369.43C335.377 371.63 331.465 373.733 327.483 375.74C324.407 377.291 321.287 378.777 318.121 380.197C299.498 388.61 279.831 394.488 259.646 397.674C257.064 398.079 254.464 398.439 251.846 398.756C249.78 399.009 247.699 399.231 245.604 399.421C243.782 399.592 241.95 399.74 240.11 399.865C236.23 400.132 232.318 400.294 228.374 400.352C218.67 400.501 208.965 400.036 199.319 398.958C193.647 398.331 187.92 397.484 182.139 396.419C175.36 395.166 168.764 393.699 162.351 392.019C158.018 390.892 153.767 389.672 149.597 388.359C144.615 386.802 139.755 385.119 135.019 383.309H135.013C123.586 378.974 112.505 373.779 101.863 367.768C90.7035 361.483 80.1024 354.254 70.1764 346.159C66.9411 343.518 63.8204 340.815 60.8144 338.049C56.6931 334.272 52.7811 330.388 49.0784 326.397C10.3264 284.747 -5.4986 233.125 2.9394 191.55C20.1524 106.807 89.8574 81.9181 149.599 88.6271C169.227 90.8271 187.78 96.4451 203.042 104.465C212.001 109.204 221.494 112.855 231.319 115.34C235.515 116.403 239.765 117.244 244.049 117.859H244.055C247.144 118.308 250.223 118.643 253.291 118.866C257.233 119.166 261.164 119.284 265.064 119.251C266.577 119.238 268.09 119.207 269.603 119.151C306.234 117.815 340.611 104.086 371.609 98.9971C420.79 90.9261 485.766 146.091 452.376 237.184Z" fill="#117B6B"/>
<path d="M452.376 237.184C443.363 261.776 429.139 286.469 410.576 308.933C407.303 312.896 403.893 316.79 400.346 320.613C391.727 329.907 382.456 338.574 372.603 346.547C368.355 349.984 363.985 353.293 359.493 356.472C352.979 361.087 346.221 365.406 339.219 369.431C335.377 371.631 331.465 373.734 327.483 375.741C324.407 377.292 321.286 378.778 318.121 380.198C299.498 388.611 279.831 394.489 259.646 397.675C257.063 398.08 254.463 398.44 251.846 398.757C249.779 399.01 247.698 399.232 245.604 399.422C243.781 399.593 241.95 399.741 240.11 399.866C236.229 400.133 232.317 400.295 228.374 400.353C218.67 400.503 208.966 400.038 199.321 398.961C193.648 398.334 187.921 397.487 182.141 396.422C175.361 395.169 168.765 393.702 162.353 392.022C158.019 390.895 153.768 389.675 149.599 388.362V88.627C169.227 90.827 187.78 96.445 203.042 104.465C212 109.203 221.493 112.854 231.318 115.34C235.514 116.403 239.763 117.244 244.048 117.859H244.054C247.142 118.308 250.221 118.643 253.29 118.866C257.232 119.166 261.163 119.284 265.063 119.251C266.576 119.238 268.089 119.207 269.602 119.151C306.233 117.815 340.61 104.086 371.608 98.997C420.793 90.925 485.766 146.091 452.376 237.184Z" fill="#179E8A"/>
<path d="M259.645 331.437V397.672C257.062 398.077 254.462 398.437 251.845 398.754C249.778 399.007 247.697 399.229 245.603 399.419V331.437H259.645Z" fill="#4A9AE2"/>
<path d="M259.644 331.437H245.604V350.845H259.644V331.437Z" fill="#4788D6"/>
<path d="M158.621 334.6H320.621L323.502 317H158.621V334.6Z" fill="#5AA3E7"/>
<path d="M252.533 108.525H336.058C339.156 108.525 342.216 109.206 345.022 110.519C347.828 111.832 350.311 113.745 352.296 116.124C354.281 118.502 355.719 121.288 356.509 124.284C357.299 127.279 357.421 130.412 356.867 133.46L323.498 316.998H196.977L231.722 125.898C232.607 121.023 235.175 116.614 238.978 113.439C242.781 110.265 247.578 108.525 252.533 108.525Z" fill="#5AA3E7"/>
<path d="M241.172 108.525H324.697C327.795 108.525 330.855 109.206 333.661 110.519C336.467 111.832 338.951 113.745 340.936 116.124C342.92 118.502 344.359 121.288 345.149 124.284C345.938 127.279 346.06 130.412 345.506 133.46L312.135 316.998H185.616L220.363 125.898C221.248 121.023 223.815 116.614 227.618 113.439C231.421 110.264 236.218 108.525 241.172 108.525Z" fill="#6AACEC"/>
<path d="M251.888 286.317C251.881 286.772 251.864 287.241 251.844 287.717C251.463 295.737 248.857 305.51 240.108 313.036C238.376 314.526 236.509 315.852 234.532 316.999C232.538 318.159 230.481 319.21 228.372 320.146C214.112 326.525 196.472 328.861 183.912 329.69C174.391 330.324 167.795 330.084 167.795 330.084L135.019 383.31H135.013C123.586 378.975 112.504 373.78 101.863 367.769C116.551 342.007 135.519 308.75 141.925 297.597C144.559 293.014 150.125 289.305 157.072 286.317C179.107 276.834 215.023 274.581 215.023 274.581L223.757 274.17L240.108 273.397L250.223 272.923C250.223 272.923 250.363 273.367 250.559 274.17C250.717 274.802 250.907 275.664 251.098 276.709C251.674 279.878 251.938 283.096 251.888 286.317Z" fill="#202070"/>
<path d="M307.389 286.317C307.224 296.027 303.965 308.839 290.033 316.997C278.923 323.497 264.466 326.802 251.844 328.473C247.666 329.023 243.69 329.391 240.108 329.644C235.367 329.973 231.308 330.088 228.372 330.118C225.172 330.15 223.296 330.081 223.296 330.081L199.319 398.957C193.646 398.33 187.919 397.483 182.139 396.418C175.359 395.165 168.763 393.698 162.351 392.018C167.169 377.351 175.89 351.271 183.912 329.686C189.14 315.61 194.071 303.436 197.426 297.594C200.06 293.011 205.626 289.302 212.574 286.314C220.702 282.814 230.709 280.307 240.109 278.528C243.925 277.805 247.648 277.205 251.098 276.705C262.198 275.105 270.531 274.577 270.531 274.577L277.568 274.248L279.259 274.166L305.725 272.919L305.781 273.108C305.839 273.308 305.939 273.666 306.06 274.166C307.01 278.145 307.456 282.227 307.389 286.317Z" fill="#34318B"/>
<path d="M277.095 237.184C277.095 238.539 277.091 239.891 277.082 241.241C277.038 258.341 276.809 274.17 276.809 274.17L240.109 267.587C240.109 267.587 239.401 253.059 239.299 241.241C239.286 239.841 239.286 238.481 239.292 237.184C239.318 231.753 239.539 227.484 240.108 226.511C240.227 226.246 240.306 225.964 240.342 225.676C240.494 224.836 240.642 223.442 240.792 221.613C241.013 218.732 241.223 214.764 241.413 210.113C241.47 208.81 241.525 207.455 241.578 206.05C241.71 202.45 241.836 198.569 241.95 194.541C241.989 193.201 242.026 191.841 242.065 190.484C242.171 186.679 242.265 182.806 242.355 178.975C242.387 177.615 242.42 176.254 242.455 174.912C242.544 170.925 242.62 167.037 242.695 163.405C242.721 162.012 242.746 160.659 242.771 159.347C242.981 148.611 243.113 140.903 243.158 140.719C243.31 140.119 250.974 128.533 250.974 128.533L269.178 124.09L276.811 132.858C276.811 132.858 276.679 144.618 276.59 159.341C276.583 160.67 276.577 162.023 276.571 163.399C276.553 167.146 276.54 171.025 276.534 174.906C276.527 176.261 276.527 177.622 276.527 178.969C276.527 182.895 276.534 186.781 276.546 190.478C276.552 191.857 276.559 193.212 276.57 194.535C276.602 198.797 276.646 202.714 276.723 206.044C276.747 207.336 276.779 208.538 276.81 209.644C276.816 209.796 276.823 209.954 276.823 210.112C276.923 213.456 276.994 217.38 277.033 221.612C277.046 222.941 277.059 224.296 277.065 225.675C277.089 229.404 277.095 233.296 277.095 237.184Z" fill="white"/>
<path d="M276.589 159.345C276.583 160.674 276.576 162.027 276.57 163.403H242.692C242.718 162.009 242.744 160.657 242.768 159.345H276.589Z" fill="#EFEFF4"/>
<path d="M276.532 174.91C276.525 176.265 276.525 177.626 276.525 178.973H242.356C242.388 177.613 242.42 176.252 242.456 174.91H276.532Z" fill="#EFEFF4"/>
<path d="M276.57 194.539H241.952C241.991 193.199 242.028 191.839 242.067 190.482H276.546C276.552 191.861 276.558 193.22 276.57 194.539Z" fill="#EFEFF4"/>
<path d="M276.822 210.11H241.414C241.471 208.807 241.526 207.452 241.579 206.047H276.723C276.747 207.339 276.779 208.541 276.81 209.647C276.816 209.794 276.822 209.952 276.822 210.11Z" fill="#EFEFF4"/>
<path d="M277.064 225.675H240.343C240.495 224.835 240.643 223.441 240.793 221.612H277.032C277.044 222.941 277.055 224.295 277.064 225.675Z" fill="#EFEFF4"/>
<path d="M277.095 237.184C277.095 238.538 277.091 239.891 277.082 241.241H239.3C239.287 239.841 239.287 238.481 239.293 237.184H277.095Z" fill="#EFEFF4"/>
<path d="M221.706 208.196L210.058 250.385L160.647 252.739L155.683 234.648L187.924 226.769L195.124 191.554L210.278 193.879L221.706 208.196Z" fill="url(#paint0_linear_80_39)"/>
<path d="M313.847 270.22C312.647 274.43 274.437 276.233 271.816 272.694C270.626 271.087 268.138 252.894 266.859 227.911C265.322 197.932 265.53 158.174 271.803 125.524L291.888 134.247L298.326 143.875L310.841 159.213C310.841 159.213 310.309 186.703 309.741 204.933C309.702 206.061 309.672 207.149 309.633 208.193C309.035 226.188 315.052 266.01 313.847 270.22Z" fill="url(#paint1_linear_80_39)"/>
<path d="M313.846 270.22C312.646 274.43 274.436 276.233 271.815 272.694C270.625 271.087 268.137 252.894 266.858 227.911C272.518 225.625 280.663 219.277 282.241 201.584C284.702 173.936 296.926 159.066 296.926 159.066C300.044 171.889 300.044 185.273 296.926 198.097L309.744 204.933C309.705 206.06 309.675 207.149 309.636 208.193C309.034 226.189 315.049 266.01 313.846 270.22Z" fill="url(#paint2_linear_80_39)"/>
<path d="M243.154 272.694C243.154 272.694 209.764 273.531 210.365 272.025C210.966 270.519 216.98 258.49 220.244 247.793C223.508 237.096 224.802 196.218 224.802 196.218L221.702 208.193C221.668 208.187 221.635 208.179 221.602 208.169C220.963 208.004 217.394 207.08 212.987 205.916C204.764 203.732 193.649 200.693 193.365 200.13C192.908 199.23 197.118 180.576 201.03 167.638C204.942 154.7 212.164 137.559 250.081 128.531C242.881 153.497 243.154 272.694 243.154 272.694Z" fill="url(#paint3_linear_80_39)"/>
<path d="M318.847 208.192C318.847 208.192 306.511 256.552 295.565 256.775C284.619 256.998 235.672 249.989 227.886 249.312C222.637 248.7 217.528 247.212 212.771 244.912C212.771 244.912 201.491 253.033 200.022 251.001C198.591 249.032 204.169 241.401 204.479 240.981C204.098 241.31 195.466 248.93 193.591 247.057C191.673 245.139 202.504 228.89 208.935 228.669C215.366 228.448 229.691 235.321 229.691 235.321L282.242 230.808L284.142 222.725L289.129 201.582L318.847 208.192Z" fill="url(#paint4_linear_80_39)"/>
<path d="M269.174 124.09C269.174 124.09 293.993 123.864 312.268 137.176C330.543 150.488 331.868 169.737 318.851 208.192C312.096 206.773 289.116 203.387 289.133 201.582C289.15 199.777 297.848 157.03 297.848 157.03L269.174 124.09Z" fill="url(#paint5_linear_80_39)"/>
<path d="M293.541 229.184C293.388 230.113 282.241 230.81 282.241 230.81L284.141 222.727C288.868 225.651 293.617 228.714 293.541 229.184Z" fill="url(#paint6_linear_80_39)"/>
<path d="M226.53 156.806C226.53 156.806 225.405 169.222 224.803 196.222L221.603 208.173C220.964 208.008 217.395 207.084 212.988 205.92C216.495 200.165 220.096 192.253 220.438 183.664C221.119 166.51 226.53 156.806 226.53 156.806Z" fill="url(#paint7_linear_80_39)"/>
<path d="M224.95 81.9021C215.024 82.5021 205.25 67.1611 210.361 61.4451C215.472 55.7291 222.694 61.4451 222.694 61.4451C222.694 61.4451 216.528 56.3321 221.341 50.3151C226.154 44.2981 234.277 55.4281 249.168 53.1721C264.059 50.9161 277.718 58.7821 274.889 71.2231C285.869 71.2231 282.56 86.2641 277.747 95.7401C272.934 105.216 264.511 119.204 254.583 108.674C248.915 102.531 242.124 97.528 234.577 93.9351L224.95 81.9021Z" fill="url(#paint8_linear_80_39)"/>
<path d="M261.352 138.083C253.306 139.507 249.319 135.299 247.668 132.52C246.661 130.83 246.54 128.234 245.8 125.126C245.277 122.799 244.384 120.571 243.155 118.526L265.113 102.056C264.905 104.911 266.277 109.702 267.829 114.228C269.629 119.483 271.684 124.388 271.803 125.52C272.031 127.626 269.397 136.652 261.352 138.083Z" fill="url(#paint9_linear_80_39)"/>
<path d="M267.828 114.232C263.213 125.341 254.661 127.432 245.799 125.126C245.276 122.799 244.383 120.571 243.154 118.526L265.112 102.056C264.903 104.917 266.276 109.706 267.828 114.232Z" fill="url(#paint10_linear_80_39)"/>
<path d="M223.598 76.8271C251.123 81.2271 261.727 76.8271 261.727 76.8271C261.727 76.8271 264.492 92.2271 266.41 92.9041C268.328 93.5811 267.029 84.8381 271.317 83.7661C275.605 82.6941 278.537 90.1951 275.661 94.5391C272.785 98.8831 268.78 97.3581 268.78 97.3581C268.78 97.3581 262.073 120.77 244.695 121.158C227.317 121.546 223.147 99.2731 223.373 93.0681C223.599 86.8631 223.146 80.6611 223.598 76.8271Z" fill="url(#paint11_linear_80_39)"/>
<path d="M224.752 250.385H152.791C151.942 250.385 151.128 250.722 150.528 251.323C149.928 251.923 149.591 252.737 149.591 253.585C149.591 254.434 149.928 255.248 150.528 255.848C151.128 256.448 151.942 256.785 152.791 256.785H224.749C225.598 256.785 226.411 256.448 227.012 255.848C227.612 255.248 227.949 254.434 227.949 253.585C227.949 252.737 227.612 251.924 227.013 251.324C226.413 250.724 225.6 250.386 224.752 250.385Z" fill="#202070"/>
<path d="M158.701 175.986H61.2329C60.4849 175.959 59.7408 176.105 59.0585 176.413C58.3762 176.721 57.7741 177.182 57.2992 177.76C56.8244 178.339 56.4894 179.019 56.3206 179.748C56.1518 180.477 56.1536 181.236 56.3259 181.964L69.7569 256.78H179.184L165.753 181.964C165.419 180.321 164.542 178.838 163.263 177.753C161.983 176.669 160.377 176.047 158.701 175.986Z" fill="#202070"/>
<path d="M116.816 226.511L106.116 218.076L112.284 209.641L122.984 218.076L116.816 226.511Z" fill="#4848AA"/>
<path d="M189.617 253.579C189.617 253.746 189.567 253.909 189.474 254.048C189.382 254.187 189.25 254.295 189.096 254.359C188.941 254.422 188.772 254.439 188.608 254.407C188.444 254.374 188.294 254.294 188.176 254.176C188.058 254.058 187.978 253.907 187.945 253.743C187.912 253.58 187.929 253.41 187.993 253.256C188.057 253.102 188.165 252.97 188.304 252.877C188.443 252.784 188.606 252.735 188.773 252.735C188.996 252.735 189.211 252.824 189.369 252.982C189.527 253.141 189.616 253.355 189.617 253.579Z" fill="#4848AA"/>
<path d="M202.197 254.426C202.663 254.426 203.041 254.048 203.041 253.582C203.041 253.116 202.663 252.738 202.197 252.738C201.73 252.738 201.353 253.116 201.353 253.582C201.353 254.048 201.73 254.426 202.197 254.426Z" fill="#4848AA"/>
<path d="M206.087 253.579C206.087 253.694 206.053 253.806 205.989 253.902C205.925 253.997 205.834 254.072 205.728 254.116C205.622 254.16 205.505 254.171 205.392 254.149C205.28 254.126 205.176 254.071 205.095 253.99C205.014 253.909 204.958 253.805 204.936 253.692C204.914 253.58 204.925 253.463 204.969 253.357C205.013 253.251 205.087 253.16 205.183 253.096C205.279 253.032 205.391 252.998 205.506 252.998C205.582 252.998 205.658 253.013 205.728 253.042C205.799 253.071 205.863 253.114 205.917 253.168C205.971 253.222 206.014 253.286 206.043 253.357C206.072 253.427 206.087 253.503 206.087 253.579Z" fill="#4848AA"/>
<path d="M196.733 254.162H193.533C193.457 254.162 193.381 254.147 193.311 254.118C193.24 254.089 193.176 254.046 193.122 253.992C193.068 253.938 193.025 253.874 192.996 253.803C192.967 253.733 192.952 253.657 192.952 253.581C192.952 253.427 193.013 253.279 193.122 253.17C193.231 253.061 193.379 253 193.533 253H196.733C196.887 253 197.035 253.061 197.144 253.17C197.253 253.279 197.314 253.427 197.314 253.581C197.314 253.657 197.299 253.733 197.27 253.803C197.241 253.874 197.198 253.938 197.144 253.992C197.09 254.046 197.026 254.089 196.956 254.118C196.885 254.147 196.809 254.162 196.733 254.162Z" fill="#4848AA"/>
<path d="M348.152 267.587H140.182C138.75 267.587 137.377 267.018 136.364 266.005C135.351 264.993 134.782 263.619 134.782 262.187C134.782 260.755 135.351 259.381 136.364 258.369C137.377 257.356 138.75 256.787 140.182 256.787H348.152C349.584 256.787 350.958 257.356 351.971 258.369C352.983 259.381 353.552 260.755 353.552 262.187C353.552 263.619 352.983 264.993 351.971 266.005C350.958 267.018 349.584 267.587 348.152 267.587Z" fill="#89BEF5"/>
<path d="M248.578 267.587H40.609C39.1768 267.587 37.8033 267.018 36.7906 266.005C35.7779 264.993 35.209 263.619 35.209 262.187C35.209 260.755 35.7779 259.381 36.7906 258.369C37.8033 257.356 39.1768 256.787 40.609 256.787H248.578C250.01 256.787 251.384 257.356 252.396 258.369C253.409 259.381 253.978 260.755 253.978 262.187C253.978 263.619 253.409 264.993 252.396 266.005C251.384 267.018 250.01 267.587 248.578 267.587Z" fill="#A9D0FF"/>
<path d="M240.108 267.587V399.863C236.227 400.13 232.315 400.292 228.372 400.35V286.317H60.8141V338.05C56.6928 334.273 52.7808 330.389 49.0781 326.398V267.587H240.108Z" fill="#89BEF5"/>
<path d="M240.108 267.586H49.0781V274.169H240.108V267.586Z" fill="#6AACEC"/>
<path d="M339.216 267.587V369.429C335.374 371.629 331.462 373.732 327.48 375.739V286.317H251.844V398.754C247.97 399.221 244.058 399.59 240.108 399.862V267.587H339.216Z" fill="#6AACEC"/>
<path d="M339.215 267.586H240.108V274.169H339.215V267.586Z" fill="#4788D6"/>
<path d="M70.1765 286.317V346.16C66.9411 343.519 63.8205 340.816 60.8145 338.05V286.317H70.1765Z" fill="#6AACEC"/>
<path d="M327.481 286.317V375.74C324.405 377.291 321.284 378.777 318.119 380.197V286.317H327.481Z" fill="#4788D6"/>
<path d="M410.575 308.933C399.208 322.71 386.486 335.311 372.602 346.546L380.002 237.184H405.721L410.575 308.933Z" fill="#8FC9EF"/>
<path d="M380.967 230.809C377.846 197.551 388.207 162.751 400.801 146.62C408.469 169.879 381.952 186.12 388.965 236.486" fill="url(#paint12_linear_80_39)"/>
<path d="M381.156 225.454C385.59 192.344 376.609 157.154 364.665 140.547C356.084 163.485 381.938 180.763 372.941 230.809" fill="url(#paint13_linear_80_39)"/>
<path d="M383.634 234.723C384.534 201.331 397.472 175.867 411.913 161.374C416.726 185.386 388.447 198.323 389.351 249.162" fill="url(#paint14_linear_80_39)"/>
<path d="M383.638 247.525C382.738 214.133 369.8 188.671 355.361 174.176C350.548 198.188 378.825 211.124 377.924 261.964" fill="url(#paint15_linear_80_39)"/>
<path d="M400.343 320.608C391.725 329.902 382.454 338.569 372.6 346.542C368.353 349.979 363.983 353.287 359.49 356.467L368.269 226.761H393.988L400.343 320.608Z" fill="#F0F8FF"/>
<path d="M187.621 45.5771H111.574C110.145 45.5771 108.986 46.7358 108.986 48.1651V105.486C108.986 106.915 110.145 108.074 111.574 108.074H187.621C189.051 108.074 190.209 106.915 190.209 105.486V48.1651C190.209 46.7358 189.051 45.5771 187.621 45.5771Z" fill="url(#paint16_linear_80_39)"/>
<path d="M128.049 56.0311H119.324C119.035 56.0311 118.758 55.9162 118.554 55.7118C118.349 55.5074 118.234 55.2302 118.234 54.9411C118.235 54.6521 118.35 54.375 118.554 54.1706C118.758 53.9663 119.035 53.8513 119.324 53.8511H128.049C128.338 53.8513 128.615 53.9663 128.82 54.1706C129.024 54.375 129.139 54.6521 129.139 54.9411C129.139 55.2302 129.025 55.5074 128.82 55.7118C128.616 55.9162 128.338 56.0311 128.049 56.0311Z" fill="white"/>
<path opacity="0.44" d="M132.185 61.371H119.325C119.036 61.3707 118.759 61.2558 118.555 61.0514C118.351 60.8471 118.236 60.57 118.235 60.281C118.235 60.1377 118.263 59.9958 118.318 59.8634C118.373 59.731 118.453 59.6106 118.554 59.5092C118.655 59.4078 118.776 59.3273 118.908 59.2724C119.04 59.2175 119.182 59.1891 119.325 59.189H132.185C132.329 59.1891 132.47 59.2175 132.603 59.2724C132.735 59.3273 132.855 59.4078 132.957 59.5092C133.058 59.6106 133.138 59.731 133.193 59.8634C133.247 59.9958 133.275 60.1377 133.275 60.281C133.275 60.57 133.16 60.8471 132.956 61.0514C132.751 61.2558 132.474 61.3707 132.185 61.371Z" fill="white"/>
<path opacity="0.15" d="M118.234 86.5123C127.034 86.5123 126.434 92.2773 133.275 92.2773C140.116 92.2773 138.766 81.1684 147.564 81.1684C156.362 81.1684 153.656 86.7213 159.523 86.7213C165.39 86.7213 164.035 80.4644 170.123 80.4644C176.211 80.4644 173.504 88.4794 181.856 88.4794" stroke="black" stroke-width="0.929" stroke-linecap="round" stroke-linejoin="round"/>
<path d="M118.234 83.0301C127.034 83.0301 126.434 92.2801 133.275 92.2801C140.116 92.2801 138.766 74.4571 147.564 74.4571C156.362 74.4571 153.656 83.3691 159.523 83.3691C165.39 83.3691 164.035 73.3281 170.123 73.3281C176.211 73.3281 173.504 86.1881 181.856 86.1881" stroke="white" stroke-width="1.177" stroke-linecap="round" stroke-linejoin="round"/>
<path d="M92.7399 64.7551C107.942 64.7551 120.266 52.4313 120.266 37.2291C120.266 22.0269 107.942 9.70312 92.7399 9.70312C77.5377 9.70312 65.2139 22.0269 65.2139 37.2291C65.2139 52.4313 77.5377 64.7551 92.7399 64.7551Z" fill="url(#paint17_linear_80_39)"/>
<path d="M92.7397 55.956C103.082 55.956 111.467 47.5716 111.467 37.229C111.467 26.8863 103.082 18.502 92.7397 18.502C82.3971 18.502 74.0127 26.8863 74.0127 37.229C74.0127 47.5716 82.3971 55.956 92.7397 55.956Z" fill="url(#paint18_linear_80_39)"/>
<path d="M91.5959 45.8381V43.7861C90.3179 43.7497 89.0636 43.4325 87.9219 42.8571L88.5719 40.3281C89.6712 40.935 90.9033 41.2613 92.1589 41.2781C93.3909 41.2781 94.2349 40.8041 94.2349 39.9391C94.2349 39.1181 93.5429 38.5991 91.9429 38.0581C89.6319 37.2811 88.0518 36.2001 88.0518 34.1051C88.0518 32.2051 89.3919 30.7111 91.7049 30.2581V28.2051H93.8209V30.1051C94.9039 30.1213 95.9714 30.3642 96.9549 30.8181L96.3289 33.2601C95.3598 32.7836 94.2957 32.532 93.2159 32.5241C91.8159 32.5241 91.3578 33.1241 91.3578 33.7351C91.3578 34.4461 92.1139 34.9011 93.9519 35.5931C96.5229 36.5011 97.5619 37.6931 97.5619 39.6341C97.5619 41.5581 96.1989 43.2001 93.7149 43.6341V45.8341L91.5959 45.8381Z" fill="url(#paint19_linear_80_39)"/>
<path d="M300.762 2.86496V29.182C300.762 29.8805 300.484 30.5505 299.991 31.0445C299.497 31.5385 298.827 31.816 298.128 31.816H259.561L252.146 39.231C251.977 39.3999 251.762 39.515 251.528 39.5617C251.294 39.6084 251.051 39.5846 250.83 39.4933C250.61 39.4019 250.421 39.2472 250.288 39.0487C250.156 38.8502 250.085 38.6167 250.085 38.378V2.86496C250.085 2.16638 250.362 1.49641 250.856 1.00244C251.35 0.508471 252.02 0.230957 252.719 0.230957H298.128C298.827 0.230957 299.497 0.508471 299.991 1.00244C300.484 1.49641 300.762 2.16638 300.762 2.86496Z" fill="#BDE1FF"/>
<path d="M264.256 16.811C264.256 17.235 264.13 17.6496 263.894 18.0021C263.659 18.3547 263.324 18.6295 262.932 18.7918C262.54 18.9541 262.109 18.9965 261.693 18.9138C261.278 18.8311 260.896 18.6269 260.596 18.327C260.296 18.0272 260.092 17.6452 260.009 17.2293C259.926 16.8134 259.969 16.3823 260.131 15.9905C260.293 15.5988 260.568 15.2639 260.921 15.0283C261.273 14.7927 261.688 14.667 262.112 14.667C262.68 14.667 263.226 14.8929 263.628 15.295C264.03 15.697 264.256 16.2424 264.256 16.811Z" fill="white"/>
<path d="M277.568 16.811C277.568 17.235 277.442 17.6496 277.206 18.0021C276.971 18.3547 276.636 18.6295 276.244 18.7918C275.852 18.9541 275.421 18.9965 275.005 18.9138C274.59 18.8311 274.208 18.6269 273.908 18.327C273.608 18.0272 273.404 17.6452 273.321 17.2293C273.238 16.8134 273.281 16.3823 273.443 15.9905C273.605 15.5988 273.88 15.2639 274.233 15.0283C274.585 14.7927 275 14.667 275.424 14.667C275.992 14.667 276.538 14.8929 276.94 15.295C277.342 15.697 277.568 16.2424 277.568 16.811Z" fill="white"/>
<path d="M290.88 16.811C290.88 17.235 290.754 17.6496 290.518 18.0021C290.283 18.3547 289.948 18.6295 289.556 18.7918C289.165 18.9541 288.733 18.9965 288.318 18.9138C287.902 18.8311 287.52 18.6269 287.22 18.327C286.92 18.0272 286.716 17.6452 286.633 17.2293C286.55 16.8134 286.593 16.3823 286.755 15.9905C286.917 15.5988 287.192 15.2639 287.545 15.0283C287.897 14.7927 288.312 14.667 288.736 14.667C289.304 14.667 289.85 14.8929 290.252 15.295C290.654 15.697 290.88 16.2424 290.88 16.811Z" fill="white"/>
<path d="M348.513 49.041H325.659C323.291 49.041 321.372 50.9604 321.372 53.328V76.182C321.372 78.5497 323.291 80.469 325.659 80.469H348.513C350.88 80.469 352.8 78.5497 352.8 76.182V53.328C352.8 50.9604 350.88 49.041 348.513 49.041Z" fill="url(#paint20_linear_80_39)"/>
<path d="M330.769 64.4751L335.169 68.8751L343.404 60.6401" stroke="white" stroke-width="1.57" stroke-linecap="round" stroke-linejoin="round"/>
<defs>
<linearGradient id="paint0_linear_80_39" x1="157.267" y1="133.857" x2="205.031" y2="292.325" gradientUnits="userSpaceOnUse">
<stop stop-color="#FFD5D3"/>
<stop offset="1" stop-color="#FE96A6"/>
</linearGradient>
<linearGradient id="paint1_linear_80_39" x1="295.451" y1="133.573" x2="223.956" y2="258.667" gradientUnits="userSpaceOnUse">
<stop stop-color="#52C4FF"/>
<stop offset="1" stop-color="#2C84FF"/>
</linearGradient>
<linearGradient id="paint2_linear_80_39" x1="208.678" y1="-34.0685" x2="385.95" y2="63.516" gradientUnits="userSpaceOnUse">
<stop stop-color="#52C4FF"/>
<stop offset="1" stop-color="#2C84FF"/>
</linearGradient>
<linearGradient id="paint3_linear_80_39" x1="224.544" y1="129.398" x2="169.808" y2="272.511" gradientUnits="userSpaceOnUse">
<stop stop-color="#52C4FF"/>
<stop offset="1" stop-color="#2C84FF"/>
</linearGradient>
<linearGradient id="paint4_linear_80_39" x1="281.579" y1="225.428" x2="334.324" y2="65.2705" gradientUnits="userSpaceOnUse">
<stop stop-color="#FFD5D3"/>
<stop offset="1" stop-color="#FE96A6"/>
</linearGradient>
<linearGradient id="paint5_linear_80_39" x1="299.086" y1="133.846" x2="279.585" y2="292.997" gradientUnits="userSpaceOnUse">
<stop stop-color="#52C4FF"/>
<stop offset="1" stop-color="#2C84FF"/>
</linearGradient>
<linearGradient id="paint6_linear_80_39" x1="293.293" y1="197.581" x2="289.265" y2="244.834" gradientUnits="userSpaceOnUse">
<stop stop-color="#FFD5D3"/>
<stop offset="1" stop-color="#FE96A6"/>
</linearGradient>
<linearGradient id="paint7_linear_80_39" x1="187.584" y1="74.9785" x2="245.86" y2="88.3673" gradientUnits="userSpaceOnUse">
<stop stop-color="#52C4FF"/>
<stop offset="1" stop-color="#2C84FF"/>
</linearGradient>
<linearGradient id="paint8_linear_80_39" x1="333.027" y1="357.114" x2="250.303" y2="2.95352" gradientUnits="userSpaceOnUse">
<stop stop-color="#002757"/>
<stop offset="1" stop-color="#061F3E"/>
</linearGradient>
<linearGradient id="paint9_linear_80_39" x1="278.982" y1="192.15" x2="195.202" y2="20.215" gradientUnits="userSpaceOnUse">
<stop stop-color="#FFD5D3"/>
<stop offset="1" stop-color="#FE96A6"/>
</linearGradient>
<linearGradient id="paint10_linear_80_39" x1="278.932" y1="191.111" x2="251.415" y2="95.557" gradientUnits="userSpaceOnUse">
<stop stop-color="#FFD5D3"/>
<stop offset="1" stop-color="#FE96A6"/>
</linearGradient>
<linearGradient id="paint11_linear_80_39" x1="226.143" y1="112.473" x2="320.098" y2="-38.635" gradientUnits="userSpaceOnUse">
<stop stop-color="#FFD5D3"/>
<stop offset="1" stop-color="#FE96A6"/>
</linearGradient>
<linearGradient id="paint12_linear_80_39" x1="411.646" y1="136.016" x2="386.508" y2="140.376" gradientUnits="userSpaceOnUse">
<stop stop-color="#56E281"/>
<stop offset="1" stop-color="#00966A"/>
</linearGradient>
<linearGradient id="paint13_linear_80_39" x1="360.233" y1="148.039" x2="375.387" y2="150.494" gradientUnits="userSpaceOnUse">
<stop stop-color="#56E281"/>
<stop offset="1" stop-color="#00966A"/>
</linearGradient>
<linearGradient id="paint14_linear_80_39" x1="398.943" y1="175.859" x2="366.549" y2="273.289" gradientUnits="userSpaceOnUse">
<stop stop-color="#56E281"/>
<stop offset="1" stop-color="#00966A"/>
</linearGradient>
<linearGradient id="paint15_linear_80_39" x1="370.608" y1="174.703" x2="338.211" y2="272.131" gradientUnits="userSpaceOnUse">
<stop stop-color="#56E281"/>
<stop offset="1" stop-color="#00966A"/>
</linearGradient>
<linearGradient id="paint16_linear_80_39" x1="103.626" y1="-10.8576" x2="146.722" y2="127.94" gradientUnits="userSpaceOnUse">
<stop stop-color="#F4ABFF"/>
<stop offset="1" stop-color="#9552FF"/>
</linearGradient>
<linearGradient id="paint17_linear_80_39" x1="70.8842" y1="-10.1156" x2="142.672" y2="145.516" gradientUnits="userSpaceOnUse">
<stop stop-color="#FFF489"/>
<stop offset="1" stop-color="#FE7F20"/>
</linearGradient>
<linearGradient id="paint18_linear_80_39" x1="63.6379" y1="-42.9226" x2="101.991" y2="62.6602" gradientUnits="userSpaceOnUse">
<stop stop-color="#FFF489"/>
<stop offset="1" stop-color="#FE7F20"/>
</linearGradient>
<linearGradient id="paint19_linear_80_39" x1="89.2233" y1="33.4597" x2="203.933" y2="69.4894" gradientUnits="userSpaceOnUse">
<stop stop-color="#FFF489"/>
<stop offset="1" stop-color="#FE7F20"/>
</linearGradient>
<linearGradient id="paint20_linear_80_39" x1="319.8" y1="35.0241" x2="363.108" y2="109.477" gradientUnits="userSpaceOnUse">
<stop stop-color="#31E282"/>
<stop offset="1" stop-color="#006391"/>
</linearGradient>
</defs>
</svg>
